<svg width="92" height="92" viewBox="0 0 92 92" fill="none" xmlns="http://www.w3.org/2000/svg">
<g clip-path="url(#clip0_813_24074)">
<rect width="92" height="92" fill="#EEEEF5"/>
<path fill-rule="evenodd" clip-rule="evenodd" d="M5.05247 93.2002C5.76784 93.9155 6.5304 94.555 7.33014 95.1184C8.36104 95.8447 8.89094 97.1238 8.67563 98.3664C8.50866 99.33 8.42163 100.321 8.42163 101.332C8.42163 110.859 16.1448 118.582 25.6718 118.582C26.6831 118.582 27.6741 118.495 28.6377 118.328C29.8802 118.113 31.1594 118.643 31.8857 119.674C32.4491 120.474 33.0885 121.236 33.8038 121.951C40.5404 128.688 51.4626 128.688 58.1993 121.951C58.9147 121.236 59.5541 120.474 60.1175 119.674C60.8439 118.643 62.1231 118.113 63.3657 118.328C64.3295 118.495 65.3207 118.582 66.3322 118.582C75.8592 118.582 83.5824 110.859 83.5824 101.332C83.5824 100.32 83.4953 99.3284 83.3281 98.3642C83.1126 97.1218 83.6422 95.8427 84.6729 95.1163C85.4715 94.5533 86.2331 93.9146 86.9475 93.2002C93.6842 86.4636 93.6842 75.5413 86.9475 68.8047C86.233 68.0902 85.4715 67.4515 84.6728 66.8886C83.6421 66.1621 83.1125 64.8829 83.328 63.6405C83.4952 62.6761 83.5824 61.6842 83.5824 60.6719C83.5824 51.1449 75.8592 43.4217 66.3322 43.4217C65.3207 43.4217 64.3295 43.5088 63.3658 43.6758C62.1232 43.8912 60.8439 43.3613 60.1176 42.3303C59.5541 41.5305 58.9147 40.7679 58.1993 40.0525C51.4626 33.3158 40.5404 33.3158 33.8038 40.0525C33.0876 40.7687 32.4475 41.5322 31.8836 42.333C31.1574 43.3642 29.8782 43.8943 28.6355 43.6792C27.6726 43.5124 26.6824 43.4255 25.6718 43.4255C16.1448 43.4255 8.42163 51.1487 8.42163 60.6757C8.42163 61.6863 8.50852 62.6765 8.67523 63.6393C8.89034 64.8817 8.36049 66.1606 7.32978 66.8868C6.53017 67.4501 5.76773 68.0894 5.05247 68.8047C-1.68416 75.5413 -1.68416 86.4636 5.05247 93.2002Z" fill="#D8DAE9"/>
</g>
<defs>
<clipPath id="clip0_813_24074">
<rect width="92" height="92" fill="white"/>
</clipPath>
</defs>
</svg>
