<svg width="100" height="100" viewBox="0 0 100 100" fill="none" xmlns="http://www.w3.org/2000/svg">
<path fill-rule="evenodd" clip-rule="evenodd" d="M19.4308 14.7661C15.0129 14.7661 11.4314 18.3476 11.4314 22.7655V66.7623C11.4314 71.1803 15.0129 74.7617 19.4308 74.7617H74.0321C74.3649 74.7617 74.684 74.8939 74.9193 75.1292L84.2844 84.4943C85.8654 86.0753 88.5686 84.9555 88.5686 82.7197L88.5686 74.7617V22.7655C88.5686 18.3476 84.9871 14.7661 80.5692 14.7661H19.4308Z" fill="#EEEEF5"/>
<path d="M88.5686 82.7197H88.0686H88.5686ZM88.5686 74.7617L89.0686 74.7617V74.7617H88.5686ZM10.9314 22.7655V23.4988H11.9314V22.7655H10.9314ZM10.9314 24.9654V26.4319H11.9314V24.9654H10.9314ZM10.9314 27.8985V29.365H11.9314V27.8985H10.9314ZM10.9314 30.8316V32.2982H11.9314V30.8316H10.9314ZM10.9314 33.7647V35.2313H11.9314V33.7647H10.9314ZM10.9314 36.6978V38.1644H11.9314V36.6978H10.9314ZM10.9314 39.631V41.0975H11.9314V39.631H10.9314ZM10.9314 42.5641V44.0306H11.9314V42.5641H10.9314ZM10.9314 45.4972V46.9638H11.9314V45.4972H10.9314ZM10.9314 48.4303V49.8969H11.9314V48.4303H10.9314ZM10.9314 51.3634V52.83H11.9314V51.3634H10.9314ZM10.9314 54.2966V55.7631H11.9314V54.2966H10.9314ZM10.9314 57.2297V58.6962H11.9314V57.2297H10.9314ZM10.9314 60.1628V61.6294H11.9314V60.1628H10.9314ZM10.9314 63.0959V64.5625H11.9314V63.0959H10.9314ZM10.9314 66.029V66.7623H11.9314V66.029H10.9314ZM10.9314 66.7623C10.9314 67.0432 10.945 67.321 10.9717 67.5951L11.967 67.4983C11.9435 67.2563 11.9314 67.0108 11.9314 66.7623H10.9314ZM11.2954 69.2302C11.4583 69.768 11.6731 70.2832 11.9338 70.77L12.8153 70.2978C12.5853 69.8685 12.396 69.4142 12.2524 68.9402L11.2954 69.2302ZM12.8606 72.1546C13.2139 72.5846 13.6086 72.9792 14.0385 73.3325L14.6734 72.5598C14.2937 72.2479 13.9452 71.8994 13.6333 71.5197L12.8606 72.1546ZM15.4232 74.2593C15.9099 74.5201 16.4251 74.7348 16.9629 74.8978L17.2529 73.9407C16.7789 73.7971 16.3247 73.6078 15.8953 73.3778L15.4232 74.2593ZM18.598 75.2214C18.8721 75.2481 19.15 75.2617 19.4308 75.2617V74.2617C19.1823 74.2617 18.9369 74.2497 18.6949 74.2261L18.598 75.2214ZM19.4308 75.2617H20.1892V74.2617H19.4308V75.2617ZM21.7059 75.2617H23.2226V74.2617H21.7059V75.2617ZM24.7393 75.2617H26.256V74.2617H24.7393V75.2617ZM27.7727 75.2617H29.2894V74.2617H27.7727V75.2617ZM30.8061 75.2617H32.3228V74.2617H30.8061V75.2617ZM33.8395 75.2617H35.3562V74.2617H33.8395V75.2617ZM36.8729 75.2617H38.3896V74.2617H36.8729V75.2617ZM39.9063 75.2617H41.423V74.2617H39.9063V75.2617ZM42.9397 75.2617H44.4564V74.2617H42.9397V75.2617ZM45.9731 75.2617H47.4898V74.2617H45.9731V75.2617ZM49.0065 75.2617H50.5232V74.2617H49.0065V75.2617ZM52.0399 75.2617H53.5566V74.2617H52.0399V75.2617ZM55.0733 75.2617H56.59V74.2617H55.0733V75.2617ZM58.1067 75.2617H59.6234V74.2617H58.1067V75.2617ZM61.1401 75.2617H62.6568V74.2617H61.1401V75.2617ZM64.1735 75.2617H65.6902V74.2617H64.1735V75.2617ZM67.2069 75.2617H68.7236V74.2617H67.2069V75.2617ZM70.2403 75.2617H71.757V74.2617H70.2403V75.2617ZM73.2737 75.2617H74.0321V74.2617H73.2737V75.2617ZM74.0321 75.2617C74.2322 75.2617 74.4242 75.3412 74.5658 75.4828L75.2729 74.7757C74.9438 74.4466 74.4975 74.2617 74.0321 74.2617V75.2617ZM74.5658 75.4828L75.1511 76.0681L75.8582 75.361L75.2729 74.7757L74.5658 75.4828ZM76.3217 77.2387L77.4924 78.4094L78.1995 77.7023L77.0288 76.5316L76.3217 77.2387ZM78.663 79.58L79.8336 80.7506L80.5407 80.0435L79.3701 78.8729L78.663 79.58ZM81.0042 81.9213L82.1749 83.0919L82.882 82.3848L81.7114 81.2141L81.0042 81.9213ZM83.3455 84.2625L83.9308 84.8478L84.6379 84.1407L84.0526 83.5554L83.3455 84.2625ZM83.9308 84.8478C84.1477 85.0647 84.3847 85.2407 84.635 85.3772L85.1135 84.4991C84.9483 84.409 84.7881 84.2909 84.6379 84.1407L83.9308 84.8478ZM86.3569 85.7177C86.9451 85.6557 87.5084 85.4223 87.9682 85.0503L87.3391 84.2729C87.0295 84.5235 86.6481 84.6814 86.252 84.7232L86.3569 85.7177ZM88.9449 83.5919C89.0255 83.3185 89.0686 83.0264 89.0686 82.7197H88.0686C88.0686 82.9321 88.0388 83.1289 87.9857 83.3094L88.9449 83.5919ZM89.0686 82.7197V82.0565L88.0686 82.0565V82.7197H89.0686ZM89.0686 80.7302L89.0686 79.4039L88.0686 79.4039L88.0686 80.7302L89.0686 80.7302ZM89.0686 78.0776L89.0686 76.7512L88.0686 76.7512L88.0686 78.0775L89.0686 78.0776ZM89.0686 75.4249V74.7617L88.0686 74.7617V75.4249L89.0686 75.4249ZM89.0686 74.7617V73.9971H88.0686V74.7617H89.0686ZM89.0686 72.4678V70.9385H88.0686V72.4678H89.0686ZM89.0686 69.4092V67.8799H88.0686V69.4092H89.0686ZM89.0686 66.3506V64.8213H88.0686V66.3506H89.0686ZM89.0686 63.292V61.7627H88.0686V63.292H89.0686ZM89.0686 60.2334V58.7041H88.0686V60.2334H89.0686ZM89.0686 57.1748V55.6455H88.0686V57.1748H89.0686ZM89.0686 54.1162V52.5869H88.0686V54.1162H89.0686ZM89.0686 51.0576V49.5283H88.0686V51.0576H89.0686ZM89.0686 47.999V46.4697H88.0686V47.999H89.0686ZM89.0686 44.9404V43.4111H88.0686V44.9404H89.0686ZM89.0686 41.8818V40.3525H88.0686V41.8818H89.0686ZM89.0686 38.8232V37.2939H88.0686V38.8232H89.0686ZM89.0686 35.7646V34.2353H88.0686V35.7646H89.0686ZM89.0686 32.706V31.1767H88.0686V32.706H89.0686ZM89.0686 29.6474V28.1181H88.0686V29.6474H89.0686ZM89.0686 26.5888V25.0595H88.0686V26.5888H89.0686ZM89.0686 23.5302V22.7655H88.0686V23.5302H89.0686ZM89.0686 22.7655C89.0686 22.4847 89.055 22.2068 89.0283 21.9327L88.033 22.0296C88.0565 22.2716 88.0686 22.5171 88.0686 22.7655H89.0686ZM88.7046 20.2977C88.5417 19.7598 88.3269 19.2446 88.0662 18.7579L87.1847 19.23C87.4147 19.6594 87.604 20.1136 87.7476 20.5876L88.7046 20.2977ZM87.1394 17.3733C86.7861 16.9433 86.3914 16.5486 85.9615 16.1953L85.3266 16.968C85.7063 17.2799 86.0548 17.6284 86.3667 18.0081L87.1394 17.3733ZM84.5768 15.2685C84.0901 15.0078 83.5749 14.793 83.0371 14.6301L82.7471 15.5871C83.2211 15.7307 83.6753 15.92 84.1047 16.15L84.5768 15.2685ZM81.402 14.3064C81.1279 14.2798 80.85 14.2661 80.5692 14.2661V15.2661C80.8176 15.2661 81.0631 15.2782 81.3051 15.3017L81.402 14.3064ZM80.5692 14.2661H79.805V15.2661H80.5692V14.2661ZM78.2765 14.2661H76.748V15.2661H78.2765V14.2661ZM75.2196 14.2661H73.6911V15.2661H75.2196V14.2661ZM72.1627 14.2661H70.6342V15.2661H72.1627V14.2661ZM69.1057 14.2661H67.5773V15.2661H69.1057V14.2661ZM66.0488 14.2661H64.5204V15.2661H66.0488V14.2661ZM62.9919 14.2661H61.4634V15.2661H62.9919V14.2661ZM59.935 14.2661H58.4065V15.2661H59.935V14.2661ZM56.8781 14.2661H55.3496V15.2661H56.8781V14.2661ZM53.8211 14.2661H52.2927V15.2661H53.8211V14.2661ZM50.7642 14.2661H49.2358V15.2661H50.7642V14.2661ZM47.7073 14.2661H46.1788V15.2661H47.7073V14.2661ZM44.6504 14.2661H43.1219V15.2661H44.6504V14.2661ZM41.5935 14.2661H40.065V15.2661H41.5935V14.2661ZM38.5365 14.2661H37.0081V15.2661H38.5365V14.2661ZM35.4796 14.2661H33.9512V15.2661H35.4796V14.2661ZM32.4227 14.2661H30.8942V15.2661H32.4227V14.2661ZM29.3658 14.2661H27.8373V15.2661H29.3658V14.2661ZM26.3089 14.2661H24.7804V15.2661H26.3089V14.2661ZM23.2519 14.2661H21.7235V15.2661H23.2519V14.2661ZM20.195 14.2661H19.4308V15.2661H20.195V14.2661ZM19.4308 14.2661C19.1499 14.2661 18.8721 14.2798 18.598 14.3064L18.6949 15.3017C18.9369 15.2782 19.1823 15.2661 19.4308 15.2661V14.2661ZM16.9629 14.6301C16.4251 14.793 15.9099 15.0078 15.4232 15.2685L15.8953 16.15C16.3247 15.9201 16.7789 15.7307 17.2529 15.5871L16.9629 14.6301ZM14.0385 16.1953C13.6086 16.5486 13.2139 16.9433 12.8606 17.3733L13.6333 18.0081C13.9452 17.6284 14.2937 17.2799 14.6734 16.968L14.0385 16.1953ZM11.9338 18.7579C11.6731 19.2446 11.4583 19.7598 11.2954 20.2977L12.2524 20.5876C12.396 20.1136 12.5853 19.6594 12.8153 19.23L11.9338 18.7579ZM10.9717 21.9327C10.945 22.2068 10.9314 22.4847 10.9314 22.7655H11.9314C11.9314 22.5171 11.9435 22.2716 11.967 22.0296L10.9717 21.9327Z" fill="#AAAEC9"/>
<path fill-rule="evenodd" clip-rule="evenodd" d="M45.5492 46.3264C45.685 46.4622 45.8365 46.5729 45.9979 46.6583C45.9442 46.8328 45.9153 47.0181 45.9153 47.2102C45.9153 48.2457 46.7548 49.0852 47.7903 49.0852C47.9825 49.0852 48.1679 49.0563 48.3425 49.0026C48.4279 49.1639 48.5385 49.3153 48.6743 49.4511C49.4065 50.1833 50.5937 50.1833 51.326 49.4511C51.4618 49.3152 51.5724 49.1637 51.6579 49.0024C51.8324 49.0561 52.0178 49.085 52.21 49.085C53.2456 49.085 54.085 48.2455 54.085 47.21C54.085 47.0179 54.0562 46.8326 54.0025 46.6581C54.1637 46.5727 54.3151 46.4621 54.4508 46.3264C55.183 45.5941 55.183 44.4069 54.4508 43.6747C54.315 43.5389 54.1636 43.4283 54.0023 43.3429C54.0561 43.1682 54.085 42.9826 54.085 42.7903C54.085 41.7548 53.2456 40.9153 52.21 40.9153C52.0178 40.9153 51.8323 40.9442 51.6577 40.998C51.5723 40.8368 51.4617 40.6854 51.326 40.5497C50.5937 39.8174 49.4065 39.8174 48.6743 40.5497C48.5384 40.6855 48.4277 40.8371 48.3423 40.9985C48.1678 40.9448 47.9824 40.9159 47.7903 40.9159C46.7548 40.9159 45.9153 41.7554 45.9153 42.791C45.9153 42.983 45.9442 43.1683 45.9978 43.3428C45.8365 43.4282 45.685 43.5389 45.5492 43.6747C44.8169 44.4069 44.8169 45.5941 45.5492 46.3264Z" fill="#D8DAE9"/>
<path fill-rule="evenodd" clip-rule="evenodd" d="M63.5492 46.3264C63.685 46.4623 63.8366 46.5729 63.998 46.6584C63.9443 46.8328 63.9154 47.0181 63.9154 47.2102C63.9154 48.2457 64.7549 49.0852 65.7905 49.0852C65.9826 49.0852 66.168 49.0563 66.3426 49.0026C66.428 49.1639 66.5386 49.3153 66.6744 49.4511C67.4066 50.1833 68.5938 50.1833 69.3261 49.4511C69.4619 49.3152 69.5725 49.1637 69.658 49.0024C69.8325 49.0561 70.0179 49.085 70.21 49.085C71.2456 49.085 72.085 48.2455 72.085 47.21C72.085 47.0179 72.0562 46.8326 72.0025 46.6581C72.1637 46.5727 72.3151 46.4621 72.4508 46.3264C73.183 45.5941 73.183 44.4069 72.4508 43.6747C72.315 43.5389 72.1636 43.4283 72.0023 43.3429C72.0561 43.1682 72.085 42.9826 72.085 42.7903C72.085 41.7548 71.2456 40.9153 70.21 40.9153C70.0178 40.9153 69.8324 40.9442 69.6578 40.9979C69.5724 40.8367 69.4618 40.6854 69.3261 40.5497C68.5938 39.8174 67.4066 39.8174 66.6744 40.5497C66.5385 40.6855 66.4278 40.8371 66.3424 40.9985C66.1679 40.9448 65.9826 40.9159 65.7905 40.9159C64.7549 40.9159 63.9154 41.7554 63.9154 42.791C63.9154 42.983 63.9443 43.1683 63.9979 43.3427C63.8366 43.4282 63.685 43.5388 63.5492 43.6747C62.8169 44.4069 62.8169 45.5941 63.5492 46.3264Z" fill="#D8DAE9"/>
<path fill-rule="evenodd" clip-rule="evenodd" d="M27.5492 46.3264C27.685 46.4623 27.8366 46.5729 27.998 46.6584C27.9443 46.8328 27.9154 47.0181 27.9154 47.2102C27.9154 48.2457 28.7549 49.0852 29.7905 49.0852C29.9826 49.0852 30.168 49.0563 30.3425 49.0026C30.4279 49.1639 30.5385 49.3153 30.6743 49.4511C31.4065 50.1833 32.5937 50.1833 33.326 49.4511C33.4618 49.3152 33.5724 49.1637 33.6579 49.0024C33.8324 49.0561 34.0178 49.085 34.2099 49.085C35.2455 49.085 36.0849 48.2455 36.0849 47.21C36.0849 47.0179 36.0561 46.8326 36.0024 46.6581C36.1636 46.5727 36.315 46.4621 36.4508 46.3264C37.183 45.5941 37.183 44.4069 36.4508 43.6747C36.315 43.5389 36.1635 43.4283 36.0022 43.3428C36.056 43.1682 36.0849 42.9826 36.0849 42.7903C36.0849 41.7548 35.2455 40.9153 34.2099 40.9153C34.0177 40.9153 33.8322 40.9442 33.6577 40.9979C33.5722 40.8367 33.4617 40.6854 33.326 40.5497C32.5937 39.8174 31.4065 39.8174 30.6743 40.5497C30.5384 40.6855 30.4277 40.8371 30.3423 40.9985C30.1678 40.9448 29.9825 40.9159 29.7905 40.9159C28.7549 40.9159 27.9154 41.7554 27.9154 42.791C27.9154 42.983 27.9443 43.1683 27.9979 43.3427C27.8366 43.4282 27.685 43.5388 27.5492 43.6747C26.8169 44.4069 26.8169 45.5941 27.5492 46.3264Z" fill="#D8DAE9"/>
</svg>
