<svg width="100" height="100" viewBox="0 0 100 100" fill="none" xmlns="http://www.w3.org/2000/svg">
<g filter="url(#filter0_b_434_17898)">
<mask id="path-1-inside-1_434_17898" fill="white">
<path fill-rule="evenodd" clip-rule="evenodd" d="M44.398 48.3041C53.8708 48.3041 61.55 40.6249 61.55 31.1521C61.55 21.6793 53.8708 14.0001 44.398 14.0001C34.9252 14.0001 27.246 21.6793 27.246 31.1521C27.246 40.6249 34.9252 48.3041 44.398 48.3041ZM12 78.7341C12 84.7509 17.3997 84.7509 17.3997 84.7509H71.3966C71.3966 84.7509 76.7963 84.7509 76.7963 78.7341C76.7963 72.7173 71.3966 52.3528 44.3982 52.3528C17.3997 52.3528 12 72.7173 12 78.7341Z"/>
</mask>
<path fill-rule="evenodd" clip-rule="evenodd" d="M44.398 48.3041C53.8708 48.3041 61.55 40.6249 61.55 31.1521C61.55 21.6793 53.8708 14.0001 44.398 14.0001C34.9252 14.0001 27.246 21.6793 27.246 31.1521C27.246 40.6249 34.9252 48.3041 44.398 48.3041ZM12 78.7341C12 84.7509 17.3997 84.7509 17.3997 84.7509H71.3966C71.3966 84.7509 76.7963 84.7509 76.7963 78.7341C76.7963 72.7173 71.3966 52.3528 44.3982 52.3528C17.3997 52.3528 12 72.7173 12 78.7341Z" fill="#EEEEF5"/>
<path d="M17.3997 84.7509L17.3997 85.2509H17.3997V84.7509ZM71.3966 84.7509V85.2509V84.7509ZM62.05 31.1521C62.05 30.894 62.0444 30.6372 62.0335 30.3818L61.0344 30.4247C61.0447 30.6658 61.05 30.9083 61.05 31.1521H62.05ZM61.9008 28.8472C61.8339 28.3344 61.745 27.8285 61.635 27.3304L60.6585 27.5459C60.7622 28.0156 60.8461 28.4928 60.9092 28.9766L61.9008 28.8472ZM61.2373 25.8426C61.0823 25.3504 60.9063 24.8675 60.7103 24.395L59.7866 24.7781C59.9714 25.2237 60.1374 25.679 60.2836 26.1431L61.2373 25.8426ZM60.0584 22.9993C59.8203 22.5429 59.5629 22.0982 59.2872 21.6663L58.4443 22.2044C58.7044 22.6118 58.9472 23.0313 59.1718 23.4618L60.0584 22.9993ZM58.4028 20.4056C58.0897 19.9981 57.7592 19.6047 57.4124 19.2265L56.6753 19.9023C57.0026 20.2592 57.3144 20.6305 57.6099 21.0149L58.4028 20.4056ZM56.3236 18.1377C55.9454 17.7909 55.552 17.4604 55.1445 17.1473L54.5352 17.9402C54.9197 18.2357 55.2909 18.5475 55.6478 18.8748L56.3236 18.1377ZM53.8838 16.263C53.4519 15.9872 53.0072 15.7298 52.5508 15.4917L52.0883 16.3783C52.5188 16.6029 52.9383 16.8457 53.3457 17.1059L53.8838 16.263ZM51.1551 14.8398C50.6826 14.6438 50.1997 14.4678 49.7075 14.3128L49.407 15.2666C49.8711 15.4128 50.3265 15.5787 50.772 15.7635L51.1551 14.8398ZM48.2198 13.9151C47.7217 13.8051 47.2157 13.7162 46.7029 13.6493L46.5735 14.6409C47.0573 14.704 47.5345 14.7879 48.0042 14.8916L48.2198 13.9151ZM45.1684 13.5167C44.9129 13.5057 44.6561 13.5001 44.398 13.5001V14.5001C44.6418 14.5001 44.8843 14.5054 45.1254 14.5157L45.1684 13.5167ZM44.398 13.5001C44.1399 13.5001 43.8831 13.5057 43.6276 13.5167L43.6705 14.5157C43.9117 14.5054 44.1542 14.5001 44.398 14.5001V13.5001ZM42.0931 13.6493C41.5803 13.7162 41.0743 13.8051 40.5762 13.9151L40.7918 14.8916C41.2615 14.7879 41.7387 14.704 42.2225 14.6409L42.0931 13.6493ZM39.0885 14.3128C38.5963 14.4678 38.1134 14.6438 37.6409 14.8398L38.024 15.7635C38.4695 15.5787 38.9249 15.4128 39.389 15.2666L39.0885 14.3128ZM36.2452 15.4917C35.7888 15.7298 35.344 15.9872 34.9122 16.263L35.4502 17.1059C35.8577 16.8457 36.2772 16.6029 36.7077 16.3783L36.2452 15.4917ZM33.6515 17.1473C33.244 17.4604 32.8506 17.7909 32.4724 18.1377L33.1482 18.8748C33.5051 18.5475 33.8763 18.2357 34.2608 17.9402L33.6515 17.1473ZM31.3835 19.2265C31.0368 19.6047 30.7063 19.9981 30.3932 20.4056L31.1861 21.0149C31.4815 20.6305 31.7934 20.2592 32.1206 19.9023L31.3835 19.2265ZM29.5088 21.6663C29.2331 22.0982 28.9757 22.5429 28.7376 22.9993L29.6242 23.4618C29.8488 23.0313 30.0916 22.6118 30.3517 22.2044L29.5088 21.6663ZM28.0857 24.395C27.8897 24.8675 27.7137 25.3504 27.5586 25.8426L28.5124 26.1431C28.6586 25.679 28.8246 25.2237 29.0094 24.7781L28.0857 24.395ZM27.161 27.3304C27.051 27.8285 26.9621 28.3344 26.8952 28.8472L27.8868 28.9766C27.9499 28.4928 28.0338 28.0156 28.1374 27.5459L27.161 27.3304ZM26.7625 30.3817C26.7516 30.6372 26.746 30.894 26.746 31.1521H27.746C27.746 30.9083 27.7513 30.6658 27.7616 30.4247L26.7625 30.3817ZM26.746 31.1521C26.746 31.4102 26.7516 31.667 26.7625 31.9225L27.7616 31.8796C27.7513 31.6384 27.746 31.3959 27.746 31.1521H26.746ZM26.8952 33.457C26.9621 33.9698 27.051 34.4758 27.161 34.9739L28.1374 34.7583C28.0338 34.2886 27.9499 33.8114 27.8868 33.3277L26.8952 33.457ZM27.5586 36.4616C27.7137 36.9538 27.8897 37.4367 28.0857 37.9092L29.0094 37.5262C28.8246 37.0806 28.6586 36.6253 28.5124 36.1612L27.5586 36.4616ZM28.7376 39.3049C28.9757 39.7613 29.2331 40.2061 29.5088 40.638L30.3517 40.0999C30.0916 39.6924 29.8488 39.2729 29.6242 38.8424L28.7376 39.3049ZM30.3932 41.8986C30.7063 42.3061 31.0368 42.6995 31.3835 43.0777L32.1206 42.4019C31.7934 42.045 31.4815 41.6738 31.1861 41.2893L30.3932 41.8986ZM32.4724 44.1666C32.8506 44.5133 33.244 44.8438 33.6515 45.1569L34.2608 44.364C33.8763 44.0686 33.5051 43.7567 33.1482 43.4295L32.4724 44.1666ZM34.9122 46.0413C35.344 46.317 35.7888 46.5744 36.2452 46.8125L36.7077 45.9259C36.2772 45.7014 35.8577 45.4585 35.4502 45.1984L34.9122 46.0413ZM37.6409 47.4645C38.1134 47.6604 38.5963 47.8364 39.0885 47.9915L39.389 47.0377C38.9249 46.8915 38.4695 46.7255 38.024 46.5407L37.6409 47.4645ZM40.5762 48.3892C41.0743 48.4991 41.5803 48.588 42.0931 48.6549L42.2225 47.6633C41.7387 47.6002 41.2615 47.5164 40.7918 47.4127L40.5762 48.3892ZM43.6276 48.7876C43.8831 48.7986 44.1399 48.8041 44.398 48.8041V47.8041C44.1542 47.8041 43.9117 47.7989 43.6706 47.7885L43.6276 48.7876ZM44.398 48.8041C44.6561 48.8041 44.9129 48.7986 45.1684 48.7876L45.1254 47.7885C44.8843 47.7989 44.6418 47.8041 44.398 47.8041V48.8041ZM46.7029 48.6549C47.2157 48.588 47.7217 48.4991 48.2198 48.3892L48.0042 47.4127C47.5345 47.5164 47.0573 47.6002 46.5735 47.6633L46.7029 48.6549ZM49.7075 47.9915C50.1997 47.8364 50.6826 47.6604 51.1551 47.4645L50.772 46.5407C50.3265 46.7255 49.8711 46.8915 49.407 47.0377L49.7075 47.9915ZM52.5508 46.8125C53.0072 46.5744 53.4519 46.317 53.8838 46.0413L53.3457 45.1984C52.9383 45.4585 52.5188 45.7014 52.0883 45.9259L52.5508 46.8125ZM55.1445 45.1569C55.552 44.8438 55.9454 44.5133 56.3236 44.1666L55.6478 43.4295C55.2909 43.7567 54.9197 44.0686 54.5352 44.364L55.1445 45.1569ZM57.4124 43.0777C57.7592 42.6995 58.0897 42.3061 58.4028 41.8986L57.6099 41.2893C57.3144 41.6738 57.0026 42.045 56.6753 42.4019L57.4124 43.0777ZM59.2872 40.638C59.5629 40.2061 59.8203 39.7613 60.0584 39.3049L59.1718 38.8424C58.9472 39.2729 58.7044 39.6924 58.4443 40.0999L59.2872 40.638ZM60.7103 37.9092C60.9063 37.4367 61.0823 36.9538 61.2373 36.4616L60.2836 36.1612C60.1374 36.6253 59.9714 37.0806 59.7866 37.5262L60.7103 37.9092ZM61.635 34.9739C61.745 34.4758 61.8339 33.9698 61.9008 33.457L60.9092 33.3277C60.8461 33.8114 60.7622 34.2886 60.6586 34.7583L61.635 34.9739ZM62.0335 31.9225C62.0444 31.667 62.05 31.4102 62.05 31.1521H61.05C61.05 31.3959 61.0447 31.6384 61.0344 31.8796L62.0335 31.9225ZM17.3997 84.7509C17.3997 84.2509 17.3998 84.2509 17.3998 84.2509C17.3998 84.2509 17.3999 84.2509 17.3999 84.2509C17.4 84.2509 17.4001 84.2509 17.4001 84.2509C17.4003 84.2509 17.4004 84.2509 17.4005 84.2509C17.4007 84.2509 17.4008 84.2509 17.4009 84.2509C17.401 84.2509 17.4008 84.2509 17.4004 84.2509C17.3995 84.2509 17.3975 84.2509 17.3945 84.2509C17.3884 84.2507 17.3781 84.2505 17.3638 84.25C17.3351 84.249 17.2906 84.247 17.2323 84.2427C17.1155 84.2341 16.9444 84.2165 16.7357 84.1811L16.568 85.1669C16.8118 85.2084 17.0146 85.2293 17.1587 85.24C17.2308 85.2453 17.2883 85.248 17.3292 85.2494C17.3496 85.2501 17.3659 85.2505 17.3777 85.2507C17.3836 85.2508 17.3885 85.2509 17.3921 85.2509C17.394 85.2509 17.3955 85.2509 17.3968 85.2509C17.3974 85.2509 17.398 85.2509 17.3984 85.2509C17.3987 85.2509 17.3989 85.2509 17.3991 85.2509C17.3992 85.2509 17.3993 85.2509 17.3994 85.2509C17.3995 85.2509 17.3995 85.2509 17.3996 85.2509C17.3996 85.2509 17.3997 85.2509 17.3997 84.7509ZM15.4039 83.789C15.0139 83.6202 14.6127 83.3915 14.2384 83.0819L13.601 83.8524C14.0593 84.2315 14.5447 84.5067 15.0066 84.7067L15.4039 83.789ZM13.345 82.0725C13.1207 81.7224 12.9266 81.3117 12.7811 80.8287L11.8236 81.117C11.9952 81.6867 12.2276 82.1821 12.5029 82.6118L13.345 82.0725ZM12.5286 79.4508C12.5099 79.2237 12.5 78.985 12.5 78.7341H11.5C11.5 79.0112 11.5109 79.2773 11.5319 79.5329L12.5286 79.4508ZM12.5 78.7341C12.5 78.5115 12.5078 78.2662 12.5245 78L11.5265 77.9374C11.5086 78.2222 11.5 78.4885 11.5 78.7341H12.5ZM12.6876 76.5068C12.7577 76.0407 12.8491 75.5415 12.9647 75.0149L11.988 74.8005C11.8677 75.3483 11.7722 75.8695 11.6987 76.358L12.6876 76.5068ZM13.333 73.5472C13.4656 73.0767 13.6162 72.5915 13.7864 72.0948L12.8404 71.7707C12.6642 72.2851 12.508 72.7879 12.3705 73.2759L13.333 73.5472ZM14.3165 70.6741C14.5019 70.2149 14.704 69.7491 14.9239 69.279L14.018 68.8554C13.7905 69.342 13.5812 69.8242 13.3892 70.2996L14.3165 70.6741ZM15.6051 67.9187C15.8394 67.4807 16.0895 67.041 16.3563 66.6014L15.5015 66.0826C15.2251 66.538 14.966 66.9934 14.7234 67.447L15.6051 67.9187ZM17.1791 65.3261C17.4609 64.9147 17.7581 64.5049 18.0715 64.0981L17.2793 63.4878C16.9543 63.9096 16.6462 64.3345 16.354 64.761L17.1791 65.3261ZM19.0315 62.9223C19.358 62.5447 19.6995 62.1712 20.0566 61.803L19.3388 61.1068C18.9682 61.4889 18.6138 61.8765 18.2751 62.2682L19.0315 62.9223ZM21.1439 60.7445C21.5112 60.4068 21.8931 60.075 22.2899 59.75L21.6564 58.9763C21.2446 59.3135 20.8484 59.6578 20.4672 60.0083L21.1439 60.7445ZM23.4906 58.8226C23.8936 58.5291 24.3105 58.2427 24.7417 57.9642L24.1992 57.1242C23.7522 57.4128 23.32 57.7098 22.902 58.0142L23.4906 58.8226ZM26.0387 57.1763C26.4716 56.9292 26.9177 56.6899 27.3772 56.4591L26.9285 55.5655C26.4531 55.8042 25.9914 56.0519 25.543 56.3078L26.0387 57.1763ZM28.753 55.8125C29.2104 55.6117 29.68 55.4191 30.1623 55.2353L29.8063 54.3008C29.3086 54.4905 28.8236 54.6894 28.351 54.8969L28.753 55.8125ZM31.6021 54.726C32.0754 54.5711 32.5599 54.4244 33.056 54.2865L32.7882 53.323C32.2777 53.4649 31.7787 53.616 31.291 53.7756L31.6021 54.726ZM34.5288 53.9112C35.0161 53.7981 35.5138 53.6931 36.022 53.5967L35.8358 52.6142C35.3143 52.7131 34.8033 52.8209 34.3026 52.9371L34.5288 53.9112ZM37.5356 53.3404C38.0285 53.2667 38.5309 53.2008 39.0428 53.1431L38.9308 52.1494C38.407 52.2084 37.8927 52.2759 37.3876 52.3514L37.5356 53.3404ZM40.5615 52.9985C41.0651 52.9592 41.5775 52.9276 42.0987 52.904L42.0535 51.905C41.5215 51.9291 40.9983 51.9614 40.4837 52.0015L40.5615 52.9985ZM43.6193 52.8585C43.8768 52.8547 44.1365 52.8528 44.3982 52.8528V51.8528C44.1315 51.8528 43.867 51.8547 43.6044 51.8586L43.6193 52.8585ZM44.3982 52.8528C44.6599 52.8528 44.9195 52.8547 45.177 52.8585L45.1919 51.8586C44.9294 51.8547 44.6648 51.8528 44.3982 51.8528V52.8528ZM46.6976 52.904C47.2189 52.9276 47.7312 52.9592 48.2348 52.9985L48.3126 52.0015C47.798 51.9614 47.2748 51.9291 46.7428 51.905L46.6976 52.904ZM49.7536 53.1431C50.2655 53.2008 50.7678 53.2667 51.2607 53.3404L51.4087 52.3514C50.9037 52.2759 50.3893 52.2084 49.8655 52.1494L49.7536 53.1431ZM52.7743 53.5967C53.2826 53.6931 53.7802 53.7981 54.2675 53.9112L54.4937 52.9371C53.9931 52.8209 53.4821 52.7131 52.9605 52.6142L52.7743 53.5967ZM55.7403 54.2865C56.2364 54.4244 56.721 54.5711 57.1943 54.726L57.5054 53.7756C57.0176 53.616 56.5186 53.4649 56.0081 53.323L55.7403 54.2865ZM58.634 55.2353C59.1163 55.4191 59.586 55.6117 60.0433 55.8125L60.4454 54.8969C59.9728 54.6894 59.4878 54.4905 58.9901 54.3008L58.634 55.2353ZM61.4191 56.4591C61.8786 56.6899 62.3247 56.9292 62.7576 57.1763L63.2533 56.3078C62.805 56.0519 62.3433 55.8042 61.8678 55.5655L61.4191 56.4591ZM64.0546 57.9642C64.4858 58.2427 64.9027 58.5291 65.3057 58.8226L65.8944 58.0142C65.4764 57.7098 65.0441 57.4128 64.5971 57.1242L64.0546 57.9642ZM66.5064 59.75C66.9033 60.075 67.2851 60.4068 67.6524 60.7445L68.3291 60.0082C67.948 59.6578 67.5517 59.3135 67.14 58.9763L66.5064 59.75ZM68.7397 61.803C69.0968 62.1712 69.4383 62.5447 69.7649 62.9223L70.5212 62.2682C70.1825 61.8765 69.8281 61.4889 69.4575 61.1068L68.7397 61.803ZM70.7249 64.0981C71.0382 64.5049 71.3355 64.9147 71.6173 65.3261L72.4423 64.761C72.1502 64.3345 71.842 63.9096 71.517 63.4878L70.7249 64.0981ZM72.44 66.6014C72.7068 67.041 72.9569 67.4807 73.1912 67.9187L74.073 67.447C73.8303 66.9934 73.5713 66.538 73.2949 66.0826L72.44 66.6014ZM73.8725 69.279C74.0923 69.7491 74.2944 70.2149 74.4799 70.6741L75.4071 70.2996C75.2151 69.8242 75.0059 69.342 74.7783 68.8554L73.8725 69.279ZM75.0099 72.0948C75.1801 72.5915 75.3307 73.0767 75.4633 73.5472L76.4258 73.2759C76.2883 72.7879 76.1322 72.2851 75.9559 71.7707L75.0099 72.0948ZM75.8316 75.0149C75.9472 75.5415 76.0387 76.0407 76.1088 76.5068L77.0976 76.358C77.0242 75.8695 76.9286 75.3483 76.8084 74.8005L75.8316 75.0149ZM76.2719 78C76.2886 78.2662 76.2963 78.5115 76.2963 78.7341H77.2963C77.2963 78.4885 77.2878 78.2222 77.2699 77.9374L76.2719 78ZM76.2963 78.7341C76.2963 78.985 76.2865 79.2237 76.2678 79.4508L77.2644 79.5329C77.2854 79.2773 77.2963 79.0112 77.2963 78.7341H76.2963ZM76.0152 80.8287C75.8697 81.3117 75.6756 81.7224 75.4514 82.0725L76.2935 82.6118C76.5687 82.1821 76.8011 81.6867 76.9727 81.117L76.0152 80.8287ZM74.5579 83.0819C74.1837 83.3915 73.7824 83.6202 73.3924 83.789L73.7897 84.7067C74.2516 84.5067 74.737 84.2315 75.1953 83.8524L74.5579 83.0819ZM72.0606 84.1811C71.8519 84.2165 71.6808 84.2341 71.5641 84.2427C71.5058 84.247 71.4612 84.249 71.4326 84.25C71.4183 84.2505 71.4079 84.2507 71.4018 84.2509C71.3988 84.2509 71.3968 84.2509 71.3959 84.2509C71.3955 84.2509 71.3953 84.2509 71.3955 84.2509C71.3955 84.2509 71.3956 84.2509 71.3958 84.2509C71.3959 84.2509 71.3961 84.2509 71.3962 84.2509C71.3963 84.2509 71.3963 84.2509 71.3964 84.2509C71.3964 84.2509 71.3965 84.2509 71.3965 84.2509C71.3966 84.2509 71.3966 84.2509 71.3966 84.7509C71.3966 85.2509 71.3967 85.2509 71.3968 85.2509C71.3968 85.2509 71.3969 85.2509 71.3969 85.2509C71.397 85.2509 71.3971 85.2509 71.3972 85.2509C71.3974 85.2509 71.3976 85.2509 71.3979 85.2509C71.3984 85.2509 71.3989 85.2509 71.3996 85.2509C71.4008 85.2509 71.4024 85.2509 71.4042 85.2509C71.4079 85.2509 71.4127 85.2508 71.4186 85.2507C71.4304 85.2505 71.4467 85.2501 71.4672 85.2494C71.508 85.248 71.5656 85.2453 71.6377 85.24C71.7817 85.2293 71.9845 85.2084 72.2283 85.1669L72.0606 84.1811ZM71.3966 84.2509H70.6026V85.2509H71.3966V84.2509ZM69.0144 84.2509H67.4263V85.2509H69.0144V84.2509ZM65.8381 84.2509H64.25V85.2509H65.8381V84.2509ZM62.6618 84.2509H61.0737V85.2509H62.6618V84.2509ZM59.4856 84.2509H57.8974V85.2509H59.4856V84.2509ZM56.3093 84.2509H54.7211V85.2509H56.3093V84.2509ZM53.133 84.2509H51.5448V85.2509H53.133V84.2509ZM49.9567 84.2509H48.3685V85.2509H49.9567V84.2509ZM46.7804 84.2509H45.1922V85.2509H46.7804V84.2509ZM43.6041 84.2509H42.0159V85.2509H43.6041V84.2509ZM40.4278 84.2509H38.8397V85.2509H40.4278V84.2509ZM37.2515 84.2509H35.6634V85.2509H37.2515V84.2509ZM34.0752 84.2509H32.4871V85.2509H34.0752V84.2509ZM30.8989 84.2509H29.3108V85.2509H30.8989V84.2509ZM27.7226 84.2509H26.1345V85.2509H27.7226V84.2509ZM24.5463 84.2509H22.9582V85.2509H24.5463V84.2509ZM21.37 84.2509H19.7819V85.2509H21.37V84.2509ZM18.1938 84.2509H17.3997V85.2509H18.1938V84.2509ZM17.3997 84.7509L17.3997 85.7509H17.3997V84.7509ZM71.3966 84.7509V85.7509V84.7509ZM62.55 31.1521C62.55 30.8869 62.5443 30.6229 62.533 30.3603L60.5348 30.4461C60.5449 30.6801 60.55 30.9155 60.55 31.1521H62.55ZM62.3966 28.7826C62.3278 28.2552 62.2364 27.7349 62.1233 27.2226L60.1703 27.6537C60.2709 28.1092 60.3522 28.572 60.4134 29.0413L62.3966 28.7826ZM61.7142 25.6924C61.5548 25.1861 61.3737 24.6895 61.1722 24.2035L59.3247 24.9696C59.5039 25.4017 59.6649 25.8433 59.8067 26.2933L61.7142 25.6924ZM60.5017 22.7681C60.2569 22.2987 59.9921 21.8414 59.7086 21.3972L58.0228 22.4734C58.2751 22.8686 58.5107 23.2755 58.7285 23.6931L60.5017 22.7681ZM58.7993 20.1009C58.4773 19.682 58.1375 19.2775 57.781 18.8886L56.3068 20.2402C56.6243 20.5865 56.9268 20.9466 57.2134 21.3196L58.7993 20.1009ZM56.6615 17.7691C56.2726 17.4126 55.8681 17.0728 55.4492 16.7508L54.2305 18.3367C54.6035 18.6233 54.9636 18.9258 55.3099 19.2433L56.6615 17.7691ZM54.1529 15.8415C53.7088 15.558 53.2514 15.2932 52.782 15.0484L51.857 16.8216C52.2746 17.0394 52.6815 17.275 53.0767 17.5273L54.1529 15.8415ZM51.3466 14.3779C50.8606 14.1764 50.364 13.9953 49.8577 13.8359L49.2568 15.7435C49.7069 15.8852 50.1484 16.0462 50.5805 16.2254L51.3466 14.3779ZM48.3275 13.4268C47.8152 13.3137 47.2949 13.2223 46.7676 13.1535L46.5089 15.1367C46.9781 15.1979 47.4409 15.2793 47.8964 15.3798L48.3275 13.4268ZM45.1898 13.0171C44.9272 13.0058 44.6632 13.0001 44.398 13.0001V15.0001C44.6346 15.0001 44.87 15.0052 45.104 15.0153L45.1898 13.0171ZM44.398 13.0001C44.1327 13.0001 43.8688 13.0058 43.6062 13.0171L43.692 15.0153C43.926 15.0052 44.1614 15.0001 44.398 15.0001V13.0001ZM42.0284 13.1535C41.5011 13.2223 40.9808 13.3137 40.4685 13.4268L40.8996 15.3798C41.3551 15.2793 41.8179 15.1979 42.2871 15.1367L42.0284 13.1535ZM38.9383 13.8359C38.432 13.9953 37.9354 14.1764 37.4494 14.3779L38.2155 16.2254C38.6476 16.0462 39.0891 15.8852 39.5392 15.7435L38.9383 13.8359ZM36.014 15.0484C35.5446 15.2932 35.0872 15.558 34.6431 15.8415L35.7193 17.5273C36.1145 17.275 36.5214 17.0394 36.939 16.8216L36.014 15.0484ZM33.3468 16.7508C32.9279 17.0728 32.5234 17.4126 32.1345 17.7691L33.4861 19.2433C33.8323 18.9258 34.1925 18.6233 34.5655 18.3367L33.3468 16.7508ZM31.015 18.8886C30.6585 19.2775 30.3187 19.682 29.9967 20.1009L31.5825 21.3196C31.8692 20.9466 32.1717 20.5865 32.4892 20.2402L31.015 18.8886ZM29.0874 21.3972C28.8039 21.8414 28.5391 22.2987 28.2943 22.7681L30.0675 23.6931C30.2853 23.2755 30.5209 22.8686 30.7732 22.4734L29.0874 21.3972ZM27.6238 24.2035C27.4223 24.6895 27.2412 25.1861 27.0817 25.6924L28.9893 26.2933C29.1311 25.8433 29.2921 25.4017 29.4712 24.9696L27.6238 24.2035ZM26.6727 27.2226C26.5596 27.7349 26.4682 28.2552 26.3994 28.7826L28.3826 29.0413C28.4438 28.572 28.5251 28.1092 28.6257 27.6537L26.6727 27.2226ZM26.263 30.3603C26.2517 30.6229 26.246 30.8869 26.246 31.1521H28.246C28.246 30.9155 28.2511 30.6801 28.2612 30.4461L26.263 30.3603ZM26.246 31.1521C26.246 31.4174 26.2517 31.6814 26.263 31.9439L28.2612 31.8581C28.2511 31.6241 28.246 31.3887 28.246 31.1521H26.246ZM26.3994 33.5217C26.4682 34.049 26.5596 34.5694 26.6727 35.0817L28.6257 34.6505C28.5251 34.195 28.4438 33.7322 28.3826 33.263L26.3994 33.5217ZM27.0817 36.6118C27.2412 37.1181 27.4223 37.6148 27.6238 38.1007L29.4712 37.3346C29.2921 36.9025 29.1311 36.461 28.9893 36.0109L27.0817 36.6118ZM28.2943 39.5361C28.5391 40.0056 28.8039 40.4629 29.0874 40.907L30.7732 39.8308C30.5209 39.4356 30.2853 39.0287 30.0675 38.6112L28.2943 39.5361ZM29.9967 42.2033C30.3187 42.6223 30.6585 43.0267 31.015 43.4156L32.4892 42.064C32.1717 41.7178 31.8692 41.3576 31.5825 40.9846L29.9967 42.2033ZM32.1345 44.5351C32.5234 44.8916 32.9279 45.2315 33.3468 45.5534L34.5655 43.9676C34.1925 43.6809 33.8323 43.3784 33.4861 43.0609L32.1345 44.5351ZM34.6431 46.4627C35.0872 46.7462 35.5446 47.011 36.014 47.2559L36.939 45.4826C36.5214 45.2648 36.1145 45.0293 35.7193 44.7769L34.6431 46.4627ZM37.4494 47.9263C37.9354 48.1279 38.432 48.3089 38.9383 48.4684L39.5392 46.5608C39.0891 46.419 38.6476 46.2581 38.2155 46.0789L37.4494 47.9263ZM40.4685 48.8774C40.9808 48.9905 41.5011 49.0819 42.0284 49.1507L42.2871 47.1675C41.8179 47.1063 41.3551 47.025 40.8996 46.9244L40.4685 48.8774ZM43.6062 49.2871C43.8688 49.2984 44.1327 49.3041 44.398 49.3041V47.3041C44.1614 47.3041 43.926 47.299 43.692 47.289L43.6062 49.2871ZM44.398 49.3041C44.6632 49.3041 44.9272 49.2984 45.1898 49.2871L45.104 47.289C44.87 47.299 44.6346 47.3041 44.398 47.3041V49.3041ZM46.7675 49.1507C47.2949 49.0819 47.8152 48.9905 48.3275 48.8774L47.8964 46.9244C47.4409 47.025 46.9781 47.1063 46.5089 47.1675L46.7675 49.1507ZM49.8577 48.4684C50.364 48.3089 50.8606 48.1279 51.3466 47.9263L50.5805 46.0789C50.1484 46.2581 49.7069 46.419 49.2568 46.5608L49.8577 48.4684ZM52.782 47.2559C53.2514 47.011 53.7088 46.7462 54.1529 46.4627L53.0767 44.7769C52.6815 45.0293 52.2746 45.2648 51.857 45.4826L52.782 47.2559ZM55.4492 45.5534C55.8681 45.2315 56.2726 44.8916 56.6615 44.5351L55.3099 43.0609C54.9636 43.3784 54.6035 43.6809 54.2305 43.9676L55.4492 45.5534ZM57.781 43.4156C58.1375 43.0267 58.4773 42.6223 58.7993 42.2033L57.2134 40.9846C56.9268 41.3576 56.6243 41.7178 56.3068 42.064L57.781 43.4156ZM59.7086 40.907C59.9921 40.4629 60.2569 40.0056 60.5017 39.5361L58.7285 38.6112C58.5107 39.0287 58.2751 39.4356 58.0228 39.8308L59.7086 40.907ZM61.1722 38.1007C61.3737 37.6148 61.5548 37.1181 61.7142 36.6118L59.8067 36.0109C59.6649 36.461 59.5039 36.9025 59.3247 37.3346L61.1722 38.1007ZM62.1233 35.0817C62.2364 34.5694 62.3278 34.049 62.3966 33.5217L60.4134 33.263C60.3522 33.7322 60.2709 34.195 60.1703 34.6505L62.1233 35.0817ZM62.533 31.9439C62.5443 31.6813 62.55 31.4174 62.55 31.1521H60.55C60.55 31.3887 60.5449 31.6241 60.5348 31.8581L62.533 31.9439ZM17.3997 84.7509C17.3997 83.7509 17.3998 83.7509 17.3999 83.7509C17.4 83.7509 17.4001 83.7509 17.4002 83.7509C17.4003 83.7509 17.4005 83.7509 17.4007 83.7509C17.401 83.7509 17.4012 83.7509 17.4015 83.7509C17.4021 83.7509 17.4025 83.7509 17.4029 83.7509C17.4037 83.7509 17.4043 83.7509 17.4045 83.7509C17.405 83.751 17.4045 83.7509 17.4029 83.7509C17.3997 83.7509 17.3923 83.7507 17.3811 83.7503C17.3585 83.7495 17.3205 83.7478 17.269 83.744C17.1659 83.7364 17.0107 83.7206 16.8195 83.6881L16.4842 85.6598C16.7455 85.7043 16.9642 85.727 17.1219 85.7386C17.2009 85.7444 17.2649 85.7475 17.3119 85.7491C17.3354 85.7499 17.3546 85.7504 17.3693 85.7506C17.3767 85.7508 17.3829 85.7508 17.388 85.7509C17.3905 85.7509 17.3928 85.7509 17.3947 85.7509C17.3957 85.7509 17.3966 85.7509 17.3974 85.7509C17.3978 85.7509 17.3982 85.7509 17.3986 85.7509C17.3988 85.7509 17.399 85.7509 17.3992 85.7509C17.3993 85.7509 17.3994 85.7509 17.3994 85.7509C17.3996 85.7509 17.3997 85.7509 17.3997 84.7509ZM15.6026 83.3302C15.2486 83.1769 14.8894 82.9714 14.5571 82.6966L13.2823 84.2376C13.7826 84.6515 14.3101 84.95 14.808 85.1656L15.6026 83.3302ZM13.766 81.8028C13.5673 81.4925 13.3923 81.1242 13.2599 80.6845L11.3449 81.2612C11.5295 81.8742 11.7811 82.412 12.0818 82.8815L13.766 81.8028ZM13.0269 79.4097C13.0094 79.1968 13 78.9719 13 78.7341H11C11 79.0243 11.0114 79.3042 11.0336 79.5739L13.0269 79.4097ZM13 78.7341C13 78.523 13.0074 78.2882 13.0235 78.0314L11.0274 77.906C11.009 78.2002 11 78.4771 11 78.7341H13ZM13.182 76.5811C13.2504 76.1263 13.3398 75.638 13.4531 75.1221L11.4996 74.6933C11.377 75.2518 11.2794 75.7839 11.2042 76.2836L13.182 76.5811ZM13.8142 73.6828C13.9444 73.2211 14.0923 72.7447 14.2594 72.2569L12.3674 71.6086C12.1881 72.1319 12.0292 72.6435 11.8892 73.1402L13.8142 73.6828ZM14.7801 70.8613C14.9623 70.4102 15.1608 69.9526 15.3768 69.4908L13.5651 68.6436C13.3337 69.1385 13.1209 69.6289 12.9256 70.1123L14.7801 70.8613ZM16.046 68.1545C16.2761 67.7243 16.5218 67.2925 16.7838 66.8608L15.074 65.8232C14.7928 66.2865 14.5293 66.7498 14.2825 67.2111L16.046 68.1545ZM17.5916 65.6087C17.8682 65.2048 18.16 64.8025 18.4675 64.4033L16.8832 63.1827C16.5524 63.612 16.2388 64.0445 15.9415 64.4785L17.5916 65.6087ZM19.4097 63.2494C19.7301 62.8789 20.0652 62.5124 20.4155 62.1512L18.9799 60.7587C18.6026 61.1477 18.2418 61.5423 17.8969 61.9411L19.4097 63.2494ZM21.4823 61.1126C21.8427 60.7813 22.2173 60.4557 22.6067 60.1369L21.3396 58.5895C20.9204 58.9328 20.5169 59.2834 20.1288 59.6401L21.4823 61.1126ZM23.7849 59.2268C24.1804 58.9388 24.5896 58.6577 25.013 58.3843L23.9279 56.7042C23.4731 56.9979 23.0331 57.3002 22.6076 57.61L23.7849 59.2268ZM26.2866 57.6105C26.7118 57.3678 27.15 57.1327 27.6016 56.906L26.7041 55.1186C26.2208 55.3613 25.7512 55.6132 25.2952 55.8735L26.2866 57.6105ZM28.954 56.2703C29.4038 56.0728 29.8658 55.8834 30.3403 55.7025L29.6282 53.8336C29.1228 54.0262 28.6302 54.2282 28.1499 54.4391L28.954 56.2703ZM31.7576 55.2012C32.2237 55.0486 32.701 54.9041 33.1899 54.7682L32.6543 52.8413C32.1366 52.9852 31.6304 53.1384 31.1354 53.3004L31.7576 55.2012ZM34.6419 54.3983C35.1225 54.2867 35.6135 54.1831 36.1152 54.088L35.7427 52.123C35.2145 52.2231 34.6969 52.3323 34.1895 52.4501L34.6419 54.3983ZM37.6096 53.8349C38.0965 53.7621 38.5928 53.697 39.0988 53.6399L38.8748 51.6525C38.3451 51.7122 37.8247 51.7805 37.3136 51.8569L37.6096 53.8349ZM40.6005 53.497C41.0985 53.4581 41.6054 53.4268 42.1213 53.4035L42.0309 51.4055C41.4935 51.4299 40.9649 51.4625 40.4448 51.5031L40.6005 53.497ZM43.6267 53.3585C43.8818 53.3547 44.1389 53.3528 44.3982 53.3528V51.3528C44.1291 51.3528 43.862 51.3547 43.597 51.3587L43.6267 53.3585ZM44.3982 53.3528C44.6574 53.3528 44.9145 53.3547 45.1696 53.3585L45.1993 51.3587C44.9343 51.3547 44.6672 51.3528 44.3982 51.3528V53.3528ZM46.675 53.4035C47.1909 53.4268 47.6978 53.4581 48.1959 53.497L48.3515 51.5031C47.8314 51.4625 47.3028 51.4299 46.7654 51.4055L46.675 53.4035ZM49.6976 53.6399C50.2035 53.697 50.6999 53.7621 51.1868 53.8349L51.4827 51.8569C50.9716 51.7805 50.4513 51.7122 49.9215 51.6525L49.6976 53.6399ZM52.6812 54.088C53.1828 54.1831 53.6738 54.2866 54.1544 54.3983L54.6068 52.4501C54.0995 52.3323 53.5818 52.2231 53.0537 52.123L52.6812 54.088ZM55.6064 54.7682C56.0953 54.9041 56.5726 55.0486 57.0387 55.2012L57.6609 53.3004C57.166 53.1384 56.6597 52.9852 56.1421 52.8413L55.6064 54.7682ZM58.456 55.7025C58.9306 55.8834 59.3926 56.0728 59.8423 56.2703L60.6464 54.4391C60.1662 54.2282 59.6735 54.0262 59.1681 53.8336L58.456 55.7025ZM61.1947 56.906C61.6463 57.1327 62.0846 57.3678 62.5098 57.6105L63.5012 55.8735C63.0451 55.6132 62.5756 55.3613 62.0922 55.1186L61.1947 56.906ZM63.7834 58.3843C64.2067 58.6577 64.6159 58.9388 65.0114 59.2268L66.1887 57.61C65.7632 57.3002 65.3232 56.9979 64.8684 56.7042L63.7834 58.3843ZM66.1896 60.1369C66.579 60.4557 66.9536 60.7813 67.314 61.1126L68.6675 59.6401C68.2794 59.2834 67.876 58.9328 67.4567 58.5895L66.1896 60.1369ZM68.3808 62.1512C68.7312 62.5124 69.0663 62.8789 69.3867 63.2494L70.8994 61.9411C70.5546 61.5423 70.1938 61.1477 69.8164 60.7587L68.3808 62.1512ZM70.3288 64.4033C70.6363 64.8025 70.9281 65.2048 71.2048 65.6087L72.8548 64.4785C72.5575 64.0445 72.2439 63.612 71.9131 63.1827L70.3288 64.4033ZM72.0126 66.8608C72.2745 67.2925 72.5202 67.7243 72.7503 68.1545L74.5139 67.2111C74.2671 66.7498 74.0035 66.2865 73.7223 65.8232L72.0126 66.8608ZM73.4196 69.4908C73.6355 69.9526 73.8341 70.4102 74.0163 70.8613L75.8707 70.1123C75.6754 69.6289 75.4627 69.1385 75.2312 68.6436L73.4196 69.4908ZM74.5369 72.2569C74.7041 72.7447 74.852 73.2211 74.9821 73.6828L76.9071 73.1402C76.7671 72.6435 76.6082 72.1319 76.4289 71.6086L74.5369 72.2569ZM75.3433 75.1221C75.4565 75.638 75.5459 76.1263 75.6143 76.5811L77.5921 76.2836C77.5169 75.7839 77.4193 75.2518 77.2967 74.6933L75.3433 75.1221ZM75.7728 78.0314C75.789 78.2882 75.7963 78.523 75.7963 78.7341H77.7963C77.7963 78.4771 77.7874 78.2002 77.7689 77.906L75.7728 78.0314ZM75.7963 78.7341C75.7963 78.9719 75.787 79.1968 75.7694 79.4097L77.7627 79.5739C77.7849 79.3042 77.7963 79.0243 77.7963 78.7341H75.7963ZM75.5364 80.6845C75.404 81.1242 75.2291 81.4925 75.0303 81.8028L76.7145 82.8815C77.0152 82.412 77.2669 81.8742 77.4515 81.2612L75.5364 80.6845ZM74.2392 82.6966C73.907 82.9714 73.5478 83.1769 73.1938 83.3302L73.9884 85.1656C74.4863 84.95 75.0137 84.6515 75.514 84.2376L74.2392 82.6966ZM71.9768 83.6881C71.7857 83.7206 71.6304 83.7364 71.5273 83.744C71.4759 83.7478 71.4379 83.7495 71.4153 83.7503C71.404 83.7507 71.3966 83.7509 71.3934 83.7509C71.3918 83.7509 71.3913 83.751 71.3918 83.7509C71.3921 83.7509 71.3926 83.7509 71.3934 83.7509C71.3938 83.7509 71.3943 83.7509 71.3948 83.7509C71.3951 83.7509 71.3954 83.7509 71.3957 83.7509C71.3958 83.7509 71.396 83.7509 71.3962 83.7509C71.3962 83.7509 71.3964 83.7509 71.3964 83.7509C71.3965 83.7509 71.3966 83.7509 71.3966 84.7509C71.3966 85.7509 71.3968 85.7509 71.3969 85.7509C71.397 85.7509 71.3971 85.7509 71.3972 85.7509C71.3974 85.7509 71.3975 85.7509 71.3977 85.7509C71.3981 85.7509 71.3985 85.7509 71.3989 85.7509C71.3997 85.7509 71.4006 85.7509 71.4016 85.7509C71.4036 85.7509 71.4058 85.7509 71.4083 85.7509C71.4134 85.7508 71.4196 85.7508 71.427 85.7506C71.4417 85.7504 71.461 85.7499 71.4844 85.7491C71.5314 85.7475 71.5955 85.7444 71.6744 85.7386C71.8321 85.727 72.0508 85.7043 72.3121 85.6598L71.9768 83.6881ZM71.3966 83.7509H70.6026V85.7509H71.3966V83.7509ZM69.0144 83.7509H67.4263V85.7509H69.0144V83.7509ZM65.8381 83.7509H64.25V85.7509H65.8381V83.7509ZM62.6618 83.7509H61.0737V85.7509H62.6618V83.7509ZM59.4856 83.7509H57.8974V85.7509H59.4856V83.7509ZM56.3093 83.7509H54.7211V85.7509H56.3093V83.7509ZM53.133 83.7509H51.5448V85.7509H53.133V83.7509ZM49.9567 83.7509H48.3685V85.7509H49.9567V83.7509ZM46.7804 83.7509H45.1922V85.7509H46.7804V83.7509ZM43.6041 83.7509H42.0159V85.7509H43.6041V83.7509ZM40.4278 83.7509H38.8397V85.7509H40.4278V83.7509ZM37.2515 83.7509H35.6634V85.7509H37.2515V83.7509ZM34.0752 83.7509H32.4871V85.7509H34.0752V83.7509ZM30.8989 83.7509H29.3108V85.7509H30.8989V83.7509ZM27.7226 83.7509H26.1345V85.7509H27.7226V83.7509ZM24.5463 83.7509H22.9582V85.7509H24.5463V83.7509ZM21.37 83.7509H19.7819V85.7509H21.37V83.7509ZM18.1938 83.7509H17.3997V85.7509H18.1938V83.7509Z" fill="#AAAEC9" mask="url(#path-1-inside-1_434_17898)"/>
</g>
<path fill-rule="evenodd" clip-rule="evenodd" d="M62.0977 80.1635C62.3947 80.4605 62.7113 80.726 63.0434 80.9599C63.4715 81.2615 63.6915 81.7926 63.602 82.3085C63.5327 82.7087 63.4965 83.1203 63.4965 83.5403C63.4965 87.4958 66.703 90.7023 70.6585 90.7023C71.0783 90.7023 71.4897 90.6662 71.8897 90.5969C72.4056 90.5075 72.9367 90.7275 73.2382 91.1556C73.4722 91.4877 73.7378 91.8044 74.0349 92.1015C76.8318 94.8985 81.3665 94.8985 84.1634 92.1015C84.4606 91.8043 84.7263 91.4875 84.9603 91.1552C85.2618 90.7271 85.7929 90.5071 86.3089 90.5964C86.7088 90.6657 87.1201 90.7018 87.5398 90.7018C91.4952 90.7018 94.7018 87.4953 94.7018 83.5398C94.7018 83.1197 94.6656 82.7079 94.5962 82.3076C94.5067 81.7918 94.7266 81.2607 95.1545 80.9591C95.4862 80.7253 95.8024 80.4601 96.099 80.1635C98.896 77.3666 98.896 72.8318 96.099 70.0349C95.8024 69.7383 95.4862 69.4731 95.1546 69.2393C94.7267 68.9378 94.5068 68.4067 94.5962 67.8909C94.6656 67.4907 94.7017 67.0791 94.7017 66.659C94.7017 62.7036 91.4952 59.4971 87.5398 59.4971C87.12 59.4971 86.7086 59.5332 86.3087 59.6025C85.7928 59.6918 85.2617 59.4718 84.9601 59.0438C84.7261 58.7116 84.4606 58.3948 84.1634 58.0977C81.3665 55.3008 76.8318 55.3008 74.0349 58.0977C73.7375 58.395 73.4718 58.712 73.2377 59.0445C72.9362 59.4726 72.4051 59.6927 71.8891 59.6033C71.4893 59.5341 71.0781 59.498 70.6584 59.498C66.703 59.498 63.4965 62.7045 63.4965 66.66C63.4965 67.0795 63.5326 67.4906 63.6018 67.8904C63.6911 68.4062 63.4711 68.9371 63.0432 69.2386C62.7112 69.4725 62.3946 69.738 62.0977 70.0349C59.3008 72.8318 59.3008 77.3666 62.0977 80.1635Z" fill="#D8DAE9"/>
<path d="M88.4553 75.9995C88.7561 75.9995 89 75.7758 89 75.4998C89 75.2238 88.7561 75 88.4553 75L79 75C78.992 75 78.984 75.0002 78.9761 75.0005L69.5447 75.0005C69.2439 75.0005 69 75.2242 69 75.5002C69 75.7762 69.2439 76 69.5447 76H79C79.008 76 79.016 75.9998 79.0239 75.9995L88.4553 75.9995Z" fill="white" stroke="white" stroke-width="1.5428" stroke-linecap="round" stroke-linejoin="round"/>
<defs>
<filter id="filter0_b_434_17898" x="5.04341" y="7.04341" width="78.7095" height="84.6642" filterUnits="userSpaceOnUse" color-interpolation-filters="sRGB">
<feFlood flood-opacity="0" result="BackgroundImageFix"/>
<feGaussianBlur in="BackgroundImageFix" stdDeviation="3.4783"/>
<feComposite in2="SourceAlpha" operator="in" result="effect1_backgroundBlur_434_17898"/>
<feBlend mode="normal" in="SourceGraphic" in2="effect1_backgroundBlur_434_17898" result="shape"/>
</filter>
</defs>
</svg>
