<svg width="100" height="100" viewBox="0 0 100 100" fill="none" xmlns="http://www.w3.org/2000/svg">
<mask id="path-1-inside-1_380_15554" fill="white">
<path fill-rule="evenodd" clip-rule="evenodd" d="M14.2878 60.6386C14.9118 61.2626 15.5771 61.8204 16.2748 62.3119C17.1739 62.9453 17.6361 64.0608 17.4483 65.1445C17.3028 65.9847 17.2269 66.8487 17.2269 67.7305C17.2269 76.0393 23.9626 82.775 32.2715 82.775C33.1532 82.775 34.0171 82.6992 34.8572 82.5537C35.9409 82.3659 37.0566 82.8282 37.6899 83.7274C38.1815 84.4252 38.7394 85.0907 39.3636 85.7149C45.2389 91.5901 54.7646 91.5901 60.6398 85.7149C61.264 85.0907 61.8219 84.4254 62.3134 83.7275C62.9468 82.8284 64.0624 82.3662 65.1461 82.5539C65.9862 82.6994 66.8502 82.7753 67.7319 82.7753C76.0408 82.7753 82.7765 76.0396 82.7765 67.7307C82.7765 66.8483 82.7005 65.9836 82.5548 65.1429C82.3669 64.0593 82.8289 62.9437 83.7278 62.3102C84.4246 61.8191 85.0891 61.2619 85.7124 60.6386C91.5877 54.7633 91.5877 45.2376 85.7124 39.3624C85.0891 38.739 84.4246 38.1817 83.7277 37.6906C82.8288 37.0571 82.3668 35.9415 82.5547 34.8578C82.7005 34.017 82.7765 33.1521 82.7765 32.2695C82.7765 23.9607 76.0408 17.225 67.7319 17.225C66.85 17.225 65.9859 17.3009 65.1456 17.4464C64.0619 17.6342 62.9463 17.172 62.3129 16.273C61.8215 15.5754 61.2638 14.9103 60.6398 14.2863C54.7646 8.41107 45.2389 8.41107 39.3636 14.2863C38.739 14.911 38.1807 15.5769 37.6889 16.2753C37.0556 17.1746 35.94 17.637 34.8562 17.4493C34.0164 17.3039 33.1528 17.2281 32.2715 17.2281C23.9626 17.2281 17.2269 23.9638 17.2269 32.2727C17.2269 33.1539 17.3027 34.0174 17.448 34.857C17.6356 35.9405 17.1735 37.0559 16.2745 37.6892C15.5769 38.1807 14.9118 38.7384 14.2878 39.3624C8.41253 45.2376 8.41253 54.7633 14.2878 60.6386Z"/>
</mask>
<path fill-rule="evenodd" clip-rule="evenodd" d="M14.2878 60.6386C14.9118 61.2626 15.5771 61.8204 16.2748 62.3119C17.1739 62.9453 17.6361 64.0608 17.4483 65.1445C17.3028 65.9847 17.2269 66.8487 17.2269 67.7305C17.2269 76.0393 23.9626 82.775 32.2715 82.775C33.1532 82.775 34.0171 82.6992 34.8572 82.5537C35.9409 82.3659 37.0566 82.8282 37.6899 83.7274C38.1815 84.4252 38.7394 85.0907 39.3636 85.7149C45.2389 91.5901 54.7646 91.5901 60.6398 85.7149C61.264 85.0907 61.8219 84.4254 62.3134 83.7275C62.9468 82.8284 64.0624 82.3662 65.1461 82.5539C65.9862 82.6994 66.8502 82.7753 67.7319 82.7753C76.0408 82.7753 82.7765 76.0396 82.7765 67.7307C82.7765 66.8483 82.7005 65.9836 82.5548 65.1429C82.3669 64.0593 82.8289 62.9437 83.7278 62.3102C84.4246 61.8191 85.0891 61.2619 85.7124 60.6386C91.5877 54.7633 91.5877 45.2376 85.7124 39.3624C85.0891 38.739 84.4246 38.1817 83.7277 37.6906C82.8288 37.0571 82.3668 35.9415 82.5547 34.8578C82.7005 34.017 82.7765 33.1521 82.7765 32.2695C82.7765 23.9607 76.0408 17.225 67.7319 17.225C66.85 17.225 65.9859 17.3009 65.1456 17.4464C64.0619 17.6342 62.9463 17.172 62.3129 16.273C61.8215 15.5754 61.2638 14.9103 60.6398 14.2863C54.7646 8.41107 45.2389 8.41107 39.3636 14.2863C38.739 14.911 38.1807 15.5769 37.6889 16.2753C37.0556 17.1746 35.94 17.637 34.8562 17.4493C34.0164 17.3039 33.1528 17.2281 32.2715 17.2281C23.9626 17.2281 17.2269 23.9638 17.2269 32.2727C17.2269 33.1539 17.3027 34.0174 17.448 34.857C17.6356 35.9405 17.1735 37.0559 16.2745 37.6892C15.5769 38.1807 14.9118 38.7384 14.2878 39.3624C8.41253 45.2376 8.41253 54.7633 14.2878 60.6386Z" fill="#EEEEF5"/>
<path d="M14.2878 60.6386L14.6413 60.285H14.6413L14.2878 60.6386ZM17.2269 67.7305H17.7269H17.2269ZM39.3636 85.7149L39.7172 85.3613L39.3636 85.7149ZM60.6398 85.7149L60.9934 86.0684L60.6398 85.7149ZM85.7124 60.6386L86.066 60.9921L85.7124 60.6386ZM85.7124 39.3624L85.3589 39.7159L85.7124 39.3624ZM67.7319 17.225V16.725V17.225ZM60.6398 14.2863L60.9934 13.9328L60.6398 14.2863ZM39.3636 14.2863L39.0101 13.9328H39.0101L39.3636 14.2863ZM17.2269 32.2727H16.7269H17.2269ZM14.2878 39.3624L14.6413 39.7159H14.6413L14.2878 39.3624ZM37.6889 16.2753L38.0977 16.5632L37.6889 16.2753ZM34.8562 17.4493L34.9415 16.9567L34.8562 17.4493ZM65.1456 17.4464L65.0602 16.9538L65.1456 17.4464ZM62.3129 16.273L61.9042 16.5609L62.3129 16.273ZM83.7277 37.6906L83.4397 38.0993L83.7277 37.6906ZM82.5547 34.8578L82.062 34.7724L82.5547 34.8578ZM62.3134 83.7275L61.9047 83.4396L62.3134 83.7275ZM65.1461 82.5539L65.2314 82.0612L65.1461 82.5539ZM34.8572 82.5537L34.9426 83.0463L34.8572 82.5537ZM37.6899 83.7274L38.0987 83.4394L37.6899 83.7274ZM82.5548 65.1429L82.0621 65.2283L82.5548 65.1429ZM83.7278 62.3102L83.4398 61.9015L83.7278 62.3102ZM17.448 34.857L17.9407 34.7717L17.448 34.857ZM16.2745 37.6892L16.5625 38.098L16.2745 37.6892ZM16.2748 62.3119L16.5627 61.9031L16.2748 62.3119ZM17.4483 65.1445L16.9557 65.0592L17.4483 65.1445ZM14.6413 60.285C14.472 60.1156 14.3076 59.9431 14.1484 59.7677L13.408 60.4398C13.578 60.6272 13.7535 60.8113 13.9342 60.9921L14.6413 60.285ZM13.2413 58.6649C12.9551 58.2799 12.6904 57.8841 12.4471 57.479L11.5898 57.9937C11.8499 58.4269 12.1329 58.8501 12.4388 59.2616L13.2413 58.6649ZM11.774 56.2206C11.5696 55.7885 11.3878 55.3483 11.2284 54.9019L10.2866 55.2382C10.457 55.7154 10.6515 56.1861 10.87 56.6482L11.774 56.2206ZM10.8152 53.5357C10.6997 53.0729 10.6073 52.6055 10.5379 52.1353L9.54864 52.2813C9.62276 52.7837 9.72152 53.2831 9.84493 53.7778L10.8152 53.5357ZM10.3988 50.7144C10.3755 50.2387 10.3755 49.7622 10.3988 49.2865L9.39996 49.2378C9.37514 49.7459 9.37514 50.255 9.39996 50.7631L10.3988 50.7144ZM10.5379 47.8656C10.6073 47.3954 10.6997 46.928 10.8152 46.4652L9.84493 46.2231C9.72152 46.7178 9.62276 47.2172 9.54864 47.7196L10.5379 47.8656ZM11.2284 45.099C11.3878 44.6526 11.5696 44.2124 11.774 43.7803L10.87 43.3528C10.6515 43.8149 10.457 44.2855 10.2866 44.7627L11.2284 45.099ZM12.4471 42.5219C12.6904 42.1168 12.9551 41.721 13.2413 41.336L12.4388 40.7393C12.1329 41.1508 11.8499 41.574 11.5898 42.0072L12.4471 42.5219ZM14.1484 40.2332C14.3076 40.0578 14.472 39.8853 14.6413 39.7159L13.9342 39.0088C13.7535 39.1896 13.578 39.3737 13.408 39.5611L14.1484 40.2332ZM14.6413 39.7159C14.7903 39.5669 14.9417 39.4219 15.0953 39.2808L14.4189 38.5443C14.2548 38.695 14.0932 38.8498 13.9342 39.0088L14.6413 39.7159ZM16.0567 38.471C16.2232 38.3425 16.3918 38.2182 16.5625 38.098L15.9865 37.2805C15.8041 37.409 15.6239 37.5419 15.4459 37.6791L16.0567 38.471ZM16.5625 38.098C16.8255 37.9127 17.0563 37.6927 17.2514 37.4474L16.4688 36.8249C16.3316 36.9974 16.17 37.1513 15.9865 37.2805L16.5625 38.098ZM17.9676 35.7189C18.0032 35.4076 17.9956 35.0887 17.9407 34.7717L16.9554 34.9423C16.9936 35.1634 16.9991 35.3865 16.9741 35.6054L17.9676 35.7189ZM17.9407 34.7717C17.9052 34.5663 17.8739 34.3594 17.8471 34.1512L16.8553 34.279C16.884 34.5016 16.9174 34.7227 16.9554 34.9423L17.9407 34.7717ZM17.7402 32.9005C17.7314 32.6924 17.7269 32.4831 17.7269 32.2727H16.7269C16.7269 32.4972 16.7317 32.7207 16.7411 32.9429L17.7402 32.9005ZM17.7269 32.2727C17.7269 32.0331 17.7327 31.795 17.7442 31.5583L16.7453 31.5101C16.7331 31.7628 16.7269 32.017 16.7269 32.2727H17.7269ZM17.8825 30.1371C17.9523 29.6625 18.0451 29.1954 18.1596 28.737L17.1893 28.4947C17.0669 28.9849 16.9678 29.4843 16.8932 29.9916L17.8825 30.1371ZM18.5733 27.3712C18.7344 26.9212 18.917 26.4813 19.12 26.0529L18.2163 25.6248C17.9993 26.0827 17.804 26.553 17.6318 27.0343L18.5733 27.3712ZM19.7939 24.7947C20.0395 24.3858 20.3047 23.99 20.5881 23.6084L19.7853 23.0121C19.4825 23.4198 19.1992 23.8428 18.9367 24.2798L19.7939 24.7947ZM21.4944 22.5053C21.8143 22.1525 22.1513 21.8156 22.5041 21.4957L21.8323 20.7549C21.4554 21.0967 21.0954 21.4567 20.7537 21.8335L21.4944 22.5053ZM23.6072 20.5893C23.9887 20.3059 24.3846 20.0407 24.7935 19.7951L24.2786 18.9379C23.8416 19.2004 23.4186 19.4837 23.0109 19.7865L23.6072 20.5893ZM26.0517 19.1212C26.4801 18.9183 26.9199 18.7356 27.37 18.5746L27.0331 17.633C26.5518 17.8053 26.0815 18.0005 25.6236 18.2175L26.0517 19.1212ZM28.7358 18.1608C29.1942 18.0463 29.6613 17.9536 30.1359 17.8838L29.9904 16.8944C29.4831 16.969 28.9837 17.0682 28.4935 17.1906L28.7358 18.1608ZM31.5571 17.7454C31.7938 17.7339 32.0319 17.7281 32.2715 17.7281V16.7281C32.0158 16.7281 31.7616 16.7343 31.5088 16.7465L31.5571 17.7454ZM32.2715 17.7281C32.4819 17.7281 32.6912 17.7326 32.8994 17.7415L32.9418 16.7424C32.7195 16.7329 32.496 16.7281 32.2715 16.7281V17.7281ZM34.1503 17.8483C34.3586 17.8752 34.5655 17.9064 34.7709 17.942L34.9415 16.9567C34.7219 16.9186 34.5007 16.8852 34.2781 16.8565L34.1503 17.8483ZM34.7709 17.942C35.088 17.9969 35.4069 18.0045 35.7183 17.9689L35.6048 16.9754C35.3858 17.0004 35.1626 16.995 34.9415 16.9567L34.7709 17.942ZM37.4471 17.2524C37.6924 17.0573 37.9124 16.8263 38.0977 16.5632L37.2801 15.9874C37.1509 16.1709 36.997 16.3327 36.8245 16.4699L37.4471 17.2524ZM38.0977 16.5632C38.218 16.3924 38.3425 16.2235 38.471 16.0568L37.6791 15.4462C37.5417 15.6243 37.4087 15.8048 37.2801 15.9874L38.0977 16.5632ZM39.2816 15.0944C39.4229 14.9406 39.5681 14.789 39.7172 14.6399L39.0101 13.9328C38.8509 14.0919 38.6959 14.2537 38.5451 14.418L39.2816 15.0944ZM39.7172 14.6399C39.8866 14.4705 40.0591 14.3062 40.2345 14.1469L39.5624 13.4065C39.375 13.5766 39.1909 13.752 39.0101 13.9328L39.7172 14.6399ZM41.3373 13.2398C41.7222 12.9536 42.1181 12.6889 42.5232 12.4457L42.0085 11.5883C41.5753 11.8484 41.1521 12.1314 40.7406 12.4374L41.3373 13.2398ZM43.7816 11.7725C44.2137 11.5682 44.6539 11.3863 45.1003 11.2269L44.764 10.2851C44.2868 10.4555 43.8161 10.65 43.354 10.8685L43.7816 11.7725ZM46.4665 10.8137C46.9293 10.6983 47.3967 10.6058 47.8669 10.5365L47.7209 9.54717C47.2185 9.6213 46.719 9.72006 46.2244 9.84347L46.4665 10.8137ZM49.2878 10.3973C49.7635 10.3741 50.24 10.3741 50.7157 10.3973L50.7644 9.39849C50.2563 9.37368 49.7472 9.37368 49.2391 9.39849L49.2878 10.3973ZM52.1366 10.5365C52.6068 10.6058 53.0742 10.6983 53.537 10.8137L53.7791 9.84347C53.2844 9.72006 52.785 9.6213 52.2826 9.54717L52.1366 10.5365ZM54.9032 11.2269C55.3496 11.3863 55.7898 11.5682 56.2219 11.7725L56.6494 10.8685C56.1873 10.65 55.7167 10.4555 55.2395 10.2851L54.9032 11.2269ZM57.4803 12.4457C57.8854 12.6889 58.2812 12.9536 58.6662 13.2399L59.2629 12.4374C58.8514 12.1314 58.4282 11.8484 57.995 11.5883L57.4803 12.4457ZM59.769 14.1469C59.9444 14.3062 60.1169 14.4705 60.2863 14.6399L60.9934 13.9328C60.8126 13.752 60.6285 13.5766 60.4411 13.4065L59.769 14.1469ZM60.2863 14.6399C60.4353 14.7889 60.5803 14.9402 60.7214 15.0939L61.4579 14.4174C61.3072 14.2534 61.1524 14.0918 60.9934 13.9328L60.2863 14.6399ZM61.5312 16.0551C61.6596 16.2216 61.784 16.3903 61.9042 16.5609L62.7217 15.985C62.5932 15.8026 62.4603 15.6223 62.323 15.4444L61.5312 16.0551ZM61.9042 16.5609C62.0895 16.824 62.3095 17.0549 62.5548 17.2499L63.1773 16.4673C63.0048 16.3301 62.8509 16.1684 62.7217 15.985L61.9042 16.5609ZM64.2836 17.9661C64.595 18.0017 64.9139 17.994 65.2309 17.9391L65.0602 16.9538C64.8391 16.9921 64.6159 16.9976 64.397 16.9726L64.2836 17.9661ZM65.2309 17.9391C65.4365 17.9035 65.6435 17.8722 65.852 17.8453L65.724 16.8535C65.5013 16.8823 65.28 16.9157 65.0602 16.9538L65.2309 17.9391ZM67.1036 17.7383C67.3119 17.7294 67.5214 17.725 67.7319 17.725V16.725C67.5072 16.725 67.2836 16.7297 67.0612 16.7392L67.1036 17.7383ZM67.7319 17.725C67.9715 17.725 68.2097 17.7308 68.4463 17.7422L68.4946 16.7434C68.2419 16.7312 67.9876 16.725 67.7319 16.725V17.725ZM69.8675 17.8806C70.3421 17.9504 70.8092 18.0431 71.2676 18.1576L71.5099 17.1874C71.0197 17.065 70.5203 16.9659 70.013 16.8912L69.8675 17.8806ZM72.6334 18.5714C73.0835 18.7325 73.5233 18.9151 73.9517 19.118L74.3799 18.2144C73.9219 17.9974 73.4516 17.8021 72.9703 17.6299L72.6334 18.5714ZM75.2099 19.792C75.6188 20.0376 76.0147 20.3027 76.3962 20.5861L76.9925 19.7834C76.5849 19.4805 76.1618 19.1972 75.7248 18.9347L75.2099 19.792ZM77.4994 21.4925C77.8521 21.8124 78.1891 22.1494 78.509 22.5021L79.2497 21.8303C78.908 21.4535 78.548 21.0935 78.1711 20.7517L77.4994 21.4925ZM79.4154 23.6053C79.6988 23.9868 79.9639 24.3827 80.2095 24.7915L81.0668 24.2766C80.8043 23.8396 80.5209 23.4166 80.2181 23.009L79.4154 23.6053ZM80.8834 26.0498C81.0864 26.4781 81.269 26.918 81.4301 27.3681L82.3716 27.0311C82.1994 26.5499 82.0041 26.0796 81.7871 25.6216L80.8834 26.0498ZM81.8439 28.7338C81.9583 29.1923 82.0511 29.6594 82.1209 30.134L83.1102 29.9885C83.0356 29.4812 82.9365 28.9818 82.8141 28.4916L81.8439 28.7338ZM82.2593 31.5552C82.2707 31.7918 82.2765 32.03 82.2765 32.2695H83.2765C83.2765 32.0139 83.2703 31.7596 83.2581 31.5069L82.2593 31.5552ZM82.2765 32.2695C82.2765 32.4802 82.272 32.6899 82.2631 32.8984L83.2622 32.9408C83.2717 32.7182 83.2765 32.4944 83.2765 32.2695H82.2765ZM82.156 34.1509C82.129 34.3595 82.0977 34.5667 82.062 34.7724L83.0473 34.9433C83.0855 34.7234 83.119 34.5019 83.1477 34.279L82.156 34.1509ZM82.062 34.7724C82.0071 35.0894 81.9994 35.4083 82.0349 35.7197L83.0284 35.6065C83.0035 35.3876 83.009 35.1644 83.0473 34.9433L82.062 34.7724ZM82.7508 37.4486C82.9458 37.6939 83.1767 37.914 83.4397 38.0993L84.0158 37.2819C83.8323 37.1527 83.6707 36.9987 83.5336 36.8263L82.7508 37.4486ZM83.4397 38.0993C83.6102 38.2195 83.7786 38.3437 83.945 38.472L84.5558 37.6803C84.3781 37.5431 84.198 37.4103 84.0158 37.2819L83.4397 38.0993ZM84.9053 39.2812C85.0588 39.4222 85.2101 39.5671 85.3589 39.7159L86.066 39.0088C85.9072 38.85 85.7457 38.6953 85.5818 38.5447L84.9053 39.2812ZM85.3589 39.7159C85.5283 39.8853 85.6926 40.0578 85.8518 40.2332L86.5923 39.5611C86.4222 39.3737 86.2468 39.1896 86.066 39.0088L85.3589 39.7159ZM86.7589 41.336C87.0452 41.721 87.3099 42.1168 87.5531 42.5219L88.4104 42.0072C88.1504 41.574 87.8674 41.1508 87.5614 40.7393L86.7589 41.336ZM88.2262 43.7803C88.4306 44.2124 88.6125 44.6526 88.7719 45.099L89.7136 44.7627C89.5432 44.2855 89.3488 43.8149 89.1302 43.3528L88.2262 43.7803ZM89.1851 46.4652C89.3005 46.928 89.3929 47.3954 89.4623 47.8656L90.4516 47.7196C90.3775 47.2172 90.2787 46.7178 90.1553 46.2231L89.1851 46.4652ZM89.6015 49.2865C89.6247 49.7622 89.6247 50.2387 89.6015 50.7144L90.6003 50.7631C90.6251 50.255 90.6251 49.7459 90.6003 49.2378L89.6015 49.2865ZM89.4623 52.1353C89.3929 52.6055 89.3005 53.0729 89.1851 53.5357L90.1553 53.7778C90.2787 53.2831 90.3775 52.7837 90.4516 52.2813L89.4623 52.1353ZM88.7719 54.9019C88.6125 55.3483 88.4306 55.7885 88.2262 56.2206L89.1303 56.6482C89.3488 56.1861 89.5432 55.7154 89.7136 55.2382L88.7719 54.9019ZM87.5531 57.479C87.3099 57.8841 87.0452 58.2799 86.7589 58.6649L87.5614 59.2616C87.8674 58.8501 88.1504 58.4269 88.4104 57.9937L87.5531 57.479ZM85.8518 59.7677C85.6926 59.9431 85.5283 60.1156 85.3589 60.285L86.066 60.9921C86.2468 60.8113 86.4222 60.6272 86.5923 60.4398L85.8518 59.7677ZM85.3589 60.285C85.2101 60.4338 85.0588 60.5787 84.9053 60.7197L85.5818 61.4562C85.7457 61.3056 85.9072 61.1509 86.066 60.9921L85.3589 60.285ZM83.945 61.5288C83.7787 61.6572 83.6102 61.7814 83.4398 61.9015L84.0158 62.7189C84.1981 62.5905 84.3781 62.4577 84.5559 62.3206L83.945 61.5288ZM83.4398 61.9015C83.1768 62.0869 82.9459 62.307 82.7509 62.5522L83.5337 63.1746C83.6708 63.0021 83.8324 62.8482 84.0158 62.7189L83.4398 61.9015ZM82.035 64.2811C81.9995 64.5924 82.0071 64.9113 82.0621 65.2283L83.0474 65.0575C83.0091 64.8364 83.0036 64.6132 83.0285 64.3943L82.035 64.2811ZM82.0621 65.2283C82.0978 65.434 82.1291 65.6411 82.156 65.8497L83.1478 65.7216C83.119 65.4988 83.0855 65.2773 83.0474 65.0575L82.0621 65.2283ZM82.2632 67.102C82.272 67.3104 82.2765 67.52 82.2765 67.7307H83.2765C83.2765 67.5059 83.2717 67.2821 83.2623 67.0595L82.2632 67.102ZM82.2765 67.7307C82.2765 67.9703 82.2707 68.2084 82.2593 68.4451L83.2581 68.4934C83.2703 68.2406 83.2765 67.9864 83.2765 67.7307H82.2765ZM82.1209 69.8663C82.0511 70.3409 81.9583 70.808 81.8439 71.2664L82.8141 71.5087C82.9365 71.0185 83.0356 70.5191 83.1102 70.0118L82.1209 69.8663ZM81.4301 72.6322C81.269 73.0823 81.0864 73.5221 80.8834 73.9505L81.7871 74.3786C82.0041 73.9207 82.1994 73.4504 82.3716 72.9691L81.4301 72.6322ZM80.2095 75.2087C79.9639 75.6176 79.6988 76.0135 79.4153 76.395L80.2181 76.9913C80.5209 76.5836 80.8043 76.1606 81.0668 75.7236L80.2095 75.2087ZM78.509 77.4981C78.1891 77.8509 77.8521 78.1879 77.4994 78.5078L78.1711 79.2485C78.548 78.9068 78.908 78.5468 79.2497 78.1699L78.509 77.4981ZM76.3962 79.4141C76.0147 79.6975 75.6188 79.9627 75.2099 80.2083L75.7248 81.0655C76.1618 80.803 76.5849 80.5197 76.9925 80.2169L76.3962 79.4141ZM73.9517 80.8822C73.5233 81.0852 73.0835 81.2678 72.6334 81.4288L72.9703 82.3704C73.4516 82.1982 73.9219 82.0029 74.3799 81.7859L73.9517 80.8822ZM71.2676 81.8426C70.8092 81.9571 70.3421 82.0499 69.8675 82.1197L70.013 83.109C70.5203 83.0344 71.0197 82.9353 71.5099 82.8129L71.2676 81.8426ZM68.4463 82.258C68.2097 82.2695 67.9715 82.2753 67.7319 82.2753V83.2753C67.9876 83.2753 68.2419 83.2691 68.4946 83.2569L68.4463 82.258ZM67.7319 82.2753C67.5214 82.2753 67.312 82.2708 67.1037 82.262L67.0613 83.2611C67.2837 83.2705 67.5073 83.2753 67.7319 83.2753V82.2753ZM65.8523 82.155C65.644 82.1281 65.437 82.0968 65.2314 82.0612L65.0608 83.0466C65.2804 83.0846 65.5017 83.118 65.7244 83.1468L65.8523 82.155ZM65.2314 82.0612C64.9144 82.0063 64.5955 81.9987 64.2841 82.0342L64.3975 83.0278C64.6165 83.0028 64.8396 83.0082 65.0608 83.0466L65.2314 82.0612ZM62.5553 82.7505C62.31 82.9456 62.09 83.1765 61.9047 83.4396L62.7222 84.0155C62.8514 83.832 63.0053 83.6703 63.1778 83.5331L62.5553 82.7505ZM61.9047 83.4396C61.7844 83.6103 61.6601 83.779 61.5316 83.9456L62.3234 84.5563C62.4607 84.3783 62.5936 84.198 62.7222 84.0155L61.9047 83.4396ZM60.7216 84.9072C60.5804 85.0609 60.4353 85.2123 60.2863 85.3613L60.9934 86.0684C61.1524 85.9094 61.3073 85.7478 61.4581 85.5836L60.7216 84.9072ZM60.2863 85.3613C60.1169 85.5307 59.9444 85.695 59.769 85.8543L60.4411 86.5947C60.6285 86.4247 60.8126 86.2492 60.9934 86.0684L60.2863 85.3613ZM58.6662 86.7614C58.2812 87.0476 57.8854 87.3123 57.4803 87.5555L57.995 88.4129C58.4282 88.1528 58.8514 87.8698 59.2629 87.5639L58.6662 86.7614ZM56.2219 88.2287C55.7898 88.4331 55.3496 88.6149 54.9032 88.7743L55.2395 89.7161C55.7167 89.5457 56.1873 89.3512 56.6494 89.1327L56.2219 88.2287ZM53.537 89.1875C53.0742 89.303 52.6068 89.3954 52.1366 89.4648L52.2826 90.454C52.785 90.3799 53.2844 90.2812 53.7791 90.1578L53.537 89.1875ZM50.7157 89.6039C50.24 89.6271 49.7635 89.6271 49.2878 89.6039L49.2391 90.6027C49.7472 90.6275 50.2563 90.6275 50.7644 90.6027L50.7157 89.6039ZM47.8669 89.4648C47.3967 89.3954 46.9293 89.303 46.4665 89.1875L46.2244 90.1578C46.719 90.2812 47.2185 90.3799 47.7209 90.454L47.8669 89.4648ZM45.1003 88.7743C44.6539 88.6149 44.2137 88.4331 43.7816 88.2287L43.354 89.1327C43.8161 89.3512 44.2868 89.5457 44.764 89.7161L45.1003 88.7743ZM42.5232 87.5555C42.1181 87.3123 41.7222 87.0476 41.3373 86.7614L40.7406 87.5639C41.1521 87.8698 41.5753 88.1528 42.0085 88.4129L42.5232 87.5555ZM40.2345 85.8543C40.0591 85.695 39.8866 85.5307 39.7172 85.3613L39.0101 86.0684C39.1909 86.2492 39.375 86.4247 39.5624 86.5947L40.2345 85.8543ZM39.7172 85.3613C39.5682 85.2123 39.4231 85.0609 39.2819 84.9072L38.5454 85.5836C38.6961 85.7477 38.851 85.9094 39.0101 86.0684L39.7172 85.3613ZM38.4718 83.9454C38.3433 83.7789 38.2189 83.6101 38.0987 83.4394L37.2812 84.0153C37.4097 84.1978 37.5426 84.3781 37.6799 84.5562L38.4718 83.9454ZM38.0987 83.4394C37.9134 83.1764 37.6933 82.9454 37.4481 82.7503L36.8256 83.533C36.998 83.6701 37.1519 83.8318 37.2812 84.0153L38.0987 83.4394ZM35.7192 82.034C35.4079 81.9985 35.0889 82.0061 34.7719 82.061L34.9426 83.0463C35.1637 83.008 35.3869 83.0026 35.6058 83.0276L35.7192 82.034ZM34.7719 82.061C34.5664 82.0966 34.3594 82.1279 34.151 82.1548L34.2789 83.1465C34.5016 83.1178 34.7229 83.0844 34.9426 83.0463L34.7719 82.061ZM32.8997 82.2617C32.6914 82.2706 32.482 82.275 32.2715 82.275V83.275C32.4961 83.275 32.7197 83.2703 32.9421 83.2608L32.8997 82.2617ZM32.2715 82.275C32.0319 82.275 31.7938 82.2692 31.5571 82.2578L31.5088 83.2566C31.7616 83.2689 32.0158 83.275 32.2715 83.275V82.275ZM30.1359 82.1194C29.6613 82.0496 29.1942 81.9569 28.7358 81.8424L28.4935 82.8126C28.9837 82.935 29.4831 83.0341 29.9904 83.1088L30.1359 82.1194ZM27.37 81.4286C26.9199 81.2675 26.4801 81.0849 26.0517 80.882L25.6236 81.7857C26.0815 82.0026 26.5518 82.1979 27.0331 82.3701L27.37 81.4286ZM24.7935 80.208C24.3846 79.9624 23.9887 79.6973 23.6072 79.4139L23.0109 80.2166C23.4186 80.5195 23.8416 80.8028 24.2786 81.0653L24.7935 80.208ZM22.5041 78.5075C22.1513 78.1876 21.8143 77.8506 21.4944 77.4979L20.7537 78.1697C21.0954 78.5465 21.4554 78.9065 21.8323 79.2483L22.5041 78.5075ZM20.5881 76.3947C20.3047 76.0132 20.0395 75.6173 19.7939 75.2085L18.9367 75.7234C19.1991 76.1604 19.4825 76.5834 19.7853 76.991L20.5881 76.3947ZM19.12 73.9502C18.917 73.5219 18.7344 73.082 18.5733 72.6319L17.6318 72.9689C17.804 73.4501 17.9993 73.9204 18.2163 74.3784L19.12 73.9502ZM18.1596 71.2662C18.0451 70.8077 17.9523 70.3406 17.8825 69.866L16.8932 70.0116C16.9678 70.5188 17.0669 71.0182 17.1893 71.5084L18.1596 71.2662ZM17.7442 68.4448C17.7327 68.2082 17.7269 67.97 17.7269 67.7305H16.7269C16.7269 67.9861 16.7331 68.2404 16.7453 68.4931L17.7442 68.4448ZM17.7269 67.7305C17.7269 67.5199 17.7314 67.3105 17.7402 67.1022L16.7411 67.0598C16.7317 67.2822 16.7269 67.5058 16.7269 67.7305H17.7269ZM17.8472 65.8508C17.8741 65.6424 17.9054 65.4354 17.941 65.2299L16.9557 65.0592C16.9176 65.2789 16.8842 65.5001 16.8554 65.7229L17.8472 65.8508ZM17.941 65.2299C17.9959 64.9128 18.0035 64.5939 17.968 64.2826L16.9745 64.396C16.9994 64.6149 16.994 64.8381 16.9557 65.0592L17.941 65.2299ZM17.2518 62.5538C17.0567 62.3085 16.8258 62.0884 16.5627 61.9031L15.9868 62.7206C16.1703 62.8499 16.332 63.0038 16.4691 63.1762L17.2518 62.5538ZM16.5627 61.9031C16.3921 61.7829 16.2234 61.6586 16.0568 61.5301L15.4461 62.3219C15.6241 62.4592 15.8044 62.5921 15.9868 62.7206L16.5627 61.9031ZM15.0954 60.7202C14.9417 60.5791 14.7903 60.434 14.6413 60.285L13.9342 60.9921C14.0933 61.1511 14.2549 61.306 14.419 61.4567L15.0954 60.7202ZM14.2878 60.6386L14.9949 59.9315L14.9949 59.9315L14.2878 60.6386ZM17.2269 67.7305H18.2269H17.2269ZM39.3636 85.7149L40.0707 85.0078L39.3636 85.7149ZM60.6398 85.7149L61.347 86.422L60.6398 85.7149ZM85.7124 60.6386L86.4196 61.3457L85.7124 60.6386ZM85.7124 39.3624L85.0053 40.0695L85.7124 39.3624ZM67.7319 17.225V16.225V17.225ZM60.6398 14.2863L61.347 13.5792H61.347L60.6398 14.2863ZM39.3636 14.2863L38.6565 13.5792L39.3636 14.2863ZM17.2269 32.2727H16.2269H17.2269ZM14.2878 39.3624L14.9949 40.0695L14.2878 39.3624ZM37.6889 16.2753L38.5065 16.8511L37.6889 16.2753ZM34.8562 17.4493L35.0268 16.464L34.8562 17.4493ZM65.1456 17.4464L64.9749 16.4611L65.1456 17.4464ZM62.3129 16.273L61.4954 16.8489L62.3129 16.273ZM83.7277 37.6906L83.1517 38.508L83.7277 37.6906ZM82.5547 34.8578L81.5694 34.687L82.5547 34.8578ZM62.3134 83.7275L61.4959 83.1517L62.3134 83.7275ZM65.1461 82.5539L65.3168 81.5686L65.1461 82.5539ZM34.8572 82.5537L35.0279 83.539L34.8572 82.5537ZM37.6899 83.7274L38.5075 83.1515L37.6899 83.7274ZM82.5548 65.1429L81.5695 65.3137L82.5548 65.1429ZM83.7278 62.3102L83.1517 61.4928L83.7278 62.3102ZM17.448 34.857L18.4334 34.6864L17.448 34.857ZM16.2745 37.6892L16.8504 38.5067L16.2745 37.6892ZM16.2748 62.3119L16.8507 61.4944L16.2748 62.3119ZM17.4483 65.1445L16.463 64.9738L17.4483 65.1445ZM14.9949 59.9315C14.8312 59.7678 14.6724 59.6011 14.5186 59.4316L13.0378 60.7759C13.2132 60.9692 13.3942 61.1592 13.5807 61.3457L14.9949 59.9315ZM13.6426 58.3666C13.3662 57.9949 13.1106 57.6127 12.8758 57.2216L11.1611 58.2511C11.4296 58.6983 11.7218 59.1352 12.0376 59.5599L13.6426 58.3666ZM12.226 56.0069C12.0287 55.5897 11.8531 55.1648 11.6993 54.7338L9.81571 55.4063C9.99162 55.899 10.1924 56.3848 10.418 56.8619L12.226 56.0069ZM11.3003 53.4147C11.1888 52.9678 11.0996 52.5164 11.0326 52.0623L9.05399 52.3543C9.13049 52.8728 9.23242 53.3883 9.3598 53.8988L11.3003 53.4147ZM10.8982 50.69C10.8757 50.2306 10.8757 49.7703 10.8982 49.3109L8.90055 49.2134C8.87495 49.7378 8.87495 50.2631 8.90055 50.7875L10.8982 50.69ZM11.0326 47.9386C11.0996 47.4845 11.1888 47.0331 11.3003 46.5862L9.3598 46.1021C9.23243 46.6126 9.13049 47.1282 9.05399 47.6466L11.0326 47.9386ZM11.6993 45.2671C11.8531 44.8361 12.0287 44.4112 12.226 43.994L10.418 43.139C10.1924 43.6161 9.99162 44.1019 9.81571 44.5946L11.6993 45.2671ZM12.8758 42.7793C13.1106 42.3882 13.3662 42.006 13.6426 41.6343L12.0376 40.441C11.7218 40.8657 11.4296 41.3026 11.1611 41.7498L12.8758 42.7793ZM14.5186 40.5693C14.6724 40.3998 14.8312 40.2332 14.9949 40.0695L13.5807 38.6552C13.3942 38.8417 13.2132 39.0317 13.0378 39.225L14.5186 40.5693ZM14.9949 40.0695C15.1389 39.9255 15.2851 39.7853 15.4336 39.649L14.0807 38.176C13.9114 38.3315 13.7447 38.4912 13.5807 38.6552L14.9949 40.0695ZM16.362 38.8669C16.5228 38.7428 16.6857 38.6228 16.8504 38.5067L15.6986 36.8717C15.5103 37.0044 15.3242 37.1416 15.1405 37.2832L16.362 38.8669ZM16.8504 38.5067C17.1532 38.2934 17.4187 38.0403 17.6427 37.7587L16.0774 36.5137C15.9693 36.6497 15.8422 36.7705 15.6986 36.8717L16.8504 38.5067ZM18.4644 35.7756C18.5052 35.4181 18.4966 35.0514 18.4334 34.6864L16.4627 35.0276C16.4927 35.2007 16.497 35.376 16.4773 35.5487L18.4644 35.7756ZM18.4334 34.6864C18.3991 34.4881 18.3689 34.2884 18.343 34.0872L16.3594 34.3429C16.389 34.5727 16.4235 34.8009 16.4627 35.0276L18.4334 34.6864ZM18.2398 32.8793C18.2312 32.6783 18.2269 32.476 18.2269 32.2727H16.2269C16.2269 32.5043 16.2318 32.7348 16.2416 32.9642L18.2398 32.8793ZM18.2269 32.2727C18.2269 32.0412 18.2325 31.8111 18.2436 31.5825L16.2459 31.4859C16.2333 31.7467 16.2269 32.009 16.2269 32.2727H18.2269ZM18.3772 30.2099C18.4446 29.7517 18.5341 29.3007 18.6447 28.8581L16.7042 28.3736C16.5779 28.8797 16.4755 29.3952 16.3985 29.9189L18.3772 30.2099ZM19.0441 27.5397C19.1996 27.1052 19.3759 26.6806 19.5719 26.267L17.7645 25.4107C17.5405 25.8835 17.3389 26.369 17.1611 26.8658L19.0441 27.5397ZM20.2225 25.0522C20.4597 24.6573 20.7157 24.2751 20.9894 23.9066L19.3839 22.714C19.0714 23.1347 18.779 23.5713 18.508 24.0224L20.2225 25.0522ZM21.8648 22.8412C22.1738 22.5005 22.4993 22.175 22.84 21.866L21.4964 20.3845C21.1075 20.7372 20.736 21.1087 20.3833 21.4976L21.8648 22.8412ZM23.9054 20.9907C24.2738 20.717 24.6561 20.4609 25.051 20.2237L24.0211 18.5093C23.5701 18.7802 23.1335 19.0726 22.7127 19.3852L23.9054 20.9907ZM26.2658 19.5731C26.6794 19.3771 27.104 19.2008 27.5385 19.0453L26.8646 17.1623C26.3677 17.3401 25.8822 17.5417 25.4095 17.7657L26.2658 19.5731ZM28.8569 18.6459C29.2995 18.5354 29.7504 18.4458 30.2087 18.3784L29.9176 16.3997C29.394 16.4768 28.8785 16.5791 28.3724 16.7055L28.8569 18.6459ZM31.5813 18.2448C31.8099 18.2337 32.04 18.2281 32.2715 18.2281V16.2281C32.0078 16.2281 31.7455 16.2345 31.4847 16.2471L31.5813 18.2448ZM32.2715 18.2281C32.4748 18.2281 32.6771 18.2325 32.8782 18.241L32.963 16.2428C32.7337 16.2331 32.5031 16.2281 32.2715 16.2281V18.2281ZM34.0863 18.3442C34.2875 18.3701 34.4872 18.4003 34.6856 18.4347L35.0268 16.464C34.8001 16.4247 34.5718 16.3903 34.3421 16.3606L34.0863 18.3442ZM34.6856 18.4347C35.0506 18.4979 35.4174 18.5065 35.775 18.4657L35.548 16.4786C35.3753 16.4983 35.2 16.494 35.0268 16.464L34.6856 18.4347ZM37.7584 17.6437C38.0401 17.4196 38.2932 17.154 38.5065 16.8511L36.8713 15.6995C36.7701 15.8432 36.6493 15.9704 36.5132 16.0786L37.7584 17.6437ZM38.5065 16.8511C38.6227 16.6861 38.7428 16.5231 38.867 16.3621L37.2832 15.1408C37.1413 15.3247 37.0041 15.511 36.8713 15.6995L38.5065 16.8511ZM39.6499 15.4326C39.7863 15.284 39.9266 15.1376 40.0707 14.9934L38.6565 13.5792C38.4924 13.7434 38.3324 13.9103 38.1768 14.0798L39.6499 15.4326ZM40.0707 14.9934C40.2344 14.8297 40.4011 14.671 40.5706 14.5171L39.2263 13.0363C39.033 13.2118 38.843 13.3927 38.6565 13.5792L40.0707 14.9934ZM41.6356 13.6411C42.0073 13.3647 42.3895 13.1091 42.7806 12.8744L41.7511 11.1596C41.3039 11.4281 40.867 11.7203 40.4423 12.0361L41.6356 13.6411ZM43.9953 12.2245C44.4125 12.0273 44.8374 11.8517 45.2684 11.6978L44.5959 9.81424C44.1032 9.99015 43.6174 10.1909 43.1403 10.4165L43.9953 12.2245ZM46.5875 11.2989C47.0344 11.1874 47.4858 11.0981 47.9399 11.0311L47.6479 9.05253C47.1294 9.12903 46.6139 9.23096 46.1034 9.35834L46.5875 11.2989ZM49.3122 10.8967C49.7716 10.8743 50.2319 10.8743 50.6913 10.8967L50.7888 8.89909C50.2644 8.87348 49.739 8.87348 49.2147 8.89909L49.3122 10.8967ZM52.0636 11.0311C52.5177 11.0981 52.9691 11.1874 53.416 11.2989L53.9001 9.35834C53.3896 9.23096 52.874 9.12903 52.3556 9.05253L52.0636 11.0311ZM54.7351 11.6978C55.1661 11.8517 55.591 12.0273 56.0082 12.2245L56.8632 10.4165C56.3861 10.1909 55.9003 9.99015 55.4076 9.81425L54.7351 11.6978ZM57.2229 12.8744C57.614 13.1092 57.9962 13.3647 58.3679 13.6411L59.5612 12.0361C59.1365 11.7203 58.6996 11.4282 58.2524 11.1597L57.2229 12.8744ZM59.4329 14.5171C59.6024 14.671 59.769 14.8297 59.9327 14.9934L61.347 13.5792C61.1605 13.3927 60.9705 13.2118 60.7772 13.0363L59.4329 14.5171ZM59.9327 14.9934C60.0767 15.1374 60.2168 15.2837 60.3532 15.4321L61.8262 14.0792C61.6707 13.9099 61.5109 13.7432 61.347 13.5792L59.9327 14.9934ZM61.1353 16.3605C61.2593 16.5213 61.3793 16.6841 61.4954 16.8489L63.1304 15.697C62.9978 15.5087 62.8606 15.3227 62.7189 15.139L61.1353 16.3605ZM61.4954 16.8489C61.7088 17.1517 61.9619 17.4172 62.2436 17.6413L63.4885 16.076C63.3525 15.9678 63.2316 15.8407 63.1304 15.697L61.4954 16.8489ZM64.2269 18.4629C64.5845 18.5037 64.9513 18.495 65.3163 18.4318L64.9749 16.4611C64.8017 16.4911 64.6264 16.4955 64.4537 16.4758L64.2269 18.4629ZM65.3163 18.4318C65.5148 18.3974 65.7147 18.3672 65.9159 18.3412L65.66 16.3576C65.4301 16.3873 65.2017 16.4218 64.9749 16.4611L65.3163 18.4318ZM67.1248 18.2378C67.3261 18.2293 67.5285 18.225 67.7319 18.225V16.225C67.5001 16.225 67.2694 16.2299 67.0399 16.2396L67.1248 18.2378ZM67.7319 18.225C67.9634 18.225 68.1936 18.2306 68.4222 18.2416L68.5187 16.244C68.258 16.2313 67.9957 16.225 67.7319 16.225V18.225ZM69.7947 18.3753C70.253 18.4427 70.7039 18.5322 71.1465 18.6427L71.631 16.7023C71.125 16.5759 70.6094 16.4736 70.0858 16.3966L69.7947 18.3753ZM72.4649 19.0422C72.8994 19.1976 73.324 19.374 73.7376 19.5699L74.5939 17.7625C74.1212 17.5385 73.6357 17.3369 73.1388 17.1591L72.4649 19.0422ZM74.9525 20.2206C75.3473 20.4577 75.7296 20.7138 76.098 20.9875L77.2907 19.382C76.87 19.0695 76.4333 18.777 75.9823 18.5061L74.9525 20.2206ZM77.1635 21.8629C77.5042 22.1718 77.8296 22.4973 78.1386 22.838L79.6201 21.4944C79.2674 21.1055 78.8959 20.734 78.507 20.3814L77.1635 21.8629ZM79.014 23.9034C79.2877 24.2719 79.5437 24.6542 79.7809 25.049L81.4954 24.0192C81.2244 23.5681 80.932 23.1315 80.6195 22.7108L79.014 23.9034ZM80.4316 26.2639C80.6275 26.6774 80.8038 27.1021 80.9593 27.5365L82.8424 26.8627C82.6646 26.3658 82.463 25.8803 82.239 25.4075L80.4316 26.2639ZM81.3588 28.855C81.4693 29.2975 81.5588 29.7485 81.6262 30.2067L83.6049 29.9157C83.5279 29.392 83.4256 28.8765 83.2992 28.3704L81.3588 28.855ZM81.7598 31.5793C81.7709 31.8079 81.7765 32.038 81.7765 32.2695H83.7765C83.7765 32.0058 83.7701 31.7435 83.7575 31.4827L81.7598 31.5793ZM81.7765 32.2695C81.7765 32.4732 81.7722 32.6757 81.7636 32.8771L83.7618 32.9621C83.7716 32.7324 83.7765 32.5015 83.7765 32.2695H81.7765ZM81.6601 34.0869C81.6341 34.2883 81.6038 34.4884 81.5694 34.687L83.54 35.0287C83.5793 34.8017 83.6139 34.5731 83.6436 34.343L81.6601 34.0869ZM81.5694 34.687C81.5061 35.052 81.4973 35.4187 81.5381 35.7763L83.5252 35.5498C83.5055 35.3772 83.51 35.2018 83.54 35.0287L81.5694 34.687ZM82.3594 37.7597C82.5834 38.0415 82.8489 38.2947 83.1517 38.508L84.3038 36.8732C84.1602 36.772 84.0331 36.6511 83.9249 36.5151L82.3594 37.7597ZM83.1517 38.508C83.3163 38.624 83.4789 38.744 83.6395 38.8679L84.8613 37.2844C84.6778 37.1429 84.4919 37.0058 84.3038 36.8732L83.1517 38.508ZM84.5671 39.6494C84.7154 39.7856 84.8615 39.9256 85.0053 40.0695L86.4196 38.6552C86.2557 38.4914 86.0892 38.3318 85.92 38.1765L84.5671 39.6494ZM85.0053 40.0695C85.169 40.2332 85.3278 40.3998 85.4816 40.5693L86.9625 39.225C86.787 39.0317 86.606 38.8417 86.4196 38.6552L85.0053 40.0695ZM86.3577 41.6343C86.6341 42.006 86.8896 42.3882 87.1244 42.7793L88.8391 41.7498C88.5706 41.3026 88.2785 40.8657 87.9627 40.441L86.3577 41.6343ZM87.7742 43.994C87.9715 44.4112 88.1471 44.8361 88.301 45.2671L90.1845 44.5946C90.0086 44.1019 89.8079 43.6161 89.5823 43.139L87.7742 43.994ZM88.6999 46.5862C88.8114 47.0331 88.9007 47.4845 88.9677 47.9386L90.9463 47.6466C90.8697 47.1282 90.7678 46.6126 90.6404 46.1021L88.6999 46.5862ZM89.1021 49.3109C89.1245 49.7703 89.1245 50.2306 89.1021 50.69L91.0997 50.7875C91.1253 50.2631 91.1253 49.7378 91.0997 49.2134L89.1021 49.3109ZM88.9677 52.0623C88.9007 52.5164 88.8114 52.9678 88.6999 53.4147L90.6404 53.8988C90.7678 53.3883 90.8698 52.8728 90.9463 52.3543L88.9677 52.0623ZM88.301 54.7338C88.1471 55.1648 87.9715 55.5897 87.7742 56.0069L89.5823 56.8619C89.8079 56.3848 90.0086 55.899 90.1845 55.4063L88.301 54.7338ZM87.1244 57.2216C86.8896 57.6127 86.6341 57.9949 86.3577 58.3666L87.9627 59.5599C88.2785 59.1352 88.5706 58.6983 88.8391 58.2511L87.1244 57.2216ZM85.4816 59.4316C85.3278 59.6011 85.169 59.7678 85.0053 59.9315L86.4196 61.3457C86.606 61.1592 86.787 60.9692 86.9625 60.7759L85.4816 59.4316ZM85.0053 59.9315C84.8615 60.0753 84.7154 60.2153 84.5671 60.3515L85.9201 61.8244C86.0892 61.6691 86.2557 61.5095 86.4196 61.3457L85.0053 59.9315ZM83.6396 61.133C83.479 61.2569 83.3163 61.3768 83.1517 61.4928L84.3039 63.1276C84.492 62.9951 84.6778 62.858 84.8613 62.7164L83.6396 61.133ZM83.1517 61.4928C82.849 61.7062 82.5835 61.9594 82.3595 62.2411L83.925 63.4858C84.0332 63.3497 84.1602 63.2288 84.3039 63.1276L83.1517 61.4928ZM81.5382 64.2244C81.4974 64.582 81.5062 64.9487 81.5695 65.3137L83.5401 64.9721C83.51 64.7989 83.5056 64.6236 83.5253 64.451L81.5382 64.2244ZM81.5695 65.3137C81.6039 65.5123 81.6341 65.7123 81.6601 65.9137L83.6437 65.6576C83.614 65.4276 83.5794 65.199 83.5401 64.9721L81.5695 65.3137ZM81.7636 67.1232C81.7722 67.3246 81.7765 67.5271 81.7765 67.7307H83.7765C83.7765 67.4988 83.7716 67.268 83.7618 67.0383L81.7636 67.1232ZM81.7765 67.7307C81.7765 67.9622 81.7709 68.1923 81.7598 68.4209L83.7575 68.5175C83.7701 68.2567 83.7765 67.9944 83.7765 67.7307H81.7765ZM81.6262 69.7935C81.5588 70.2518 81.4693 70.7027 81.3588 71.1453L83.2992 71.6298C83.4256 71.1237 83.5279 70.6082 83.6049 70.0846L81.6262 69.7935ZM80.9593 72.4637C80.8038 72.8982 80.6275 73.3228 80.4316 73.7364L82.239 74.5927C82.463 74.12 82.6646 73.6345 82.8424 73.1376L80.9593 72.4637ZM79.7809 74.9512C79.5437 75.3461 79.2877 75.7284 79.014 76.0968L80.6195 77.2895C80.932 76.8687 81.2244 76.4321 81.4954 75.9811L79.7809 74.9512ZM78.1386 77.1622C77.8296 77.5029 77.5042 77.8284 77.1635 78.1374L78.507 79.6189C78.8959 79.2662 79.2674 78.8947 79.6201 78.5058L78.1386 77.1622ZM76.098 79.0128C75.7296 79.2865 75.3473 79.5425 74.9525 79.7797L75.9823 81.4942C76.4333 81.2232 76.8699 80.9308 77.2907 80.6182L76.098 79.0128ZM73.7376 80.4303C73.324 80.6263 72.8994 80.8026 72.4649 80.9581L73.1388 82.8411C73.6357 82.6633 74.1212 82.4617 74.5939 82.2377L73.7376 80.4303ZM71.1465 81.3575C70.7039 81.468 70.253 81.5576 69.7947 81.625L70.0858 83.6037C70.6094 83.5267 71.1249 83.4243 71.631 83.298L71.1465 81.3575ZM68.4222 81.7586C68.1936 81.7697 67.9634 81.7753 67.7319 81.7753V83.7753C67.9957 83.7753 68.258 83.7689 68.5187 83.7563L68.4222 81.7586ZM67.7319 81.7753C67.5285 81.7753 67.3261 81.771 67.1249 81.7624L67.0401 83.7606C67.2695 83.7703 67.5002 83.7753 67.7319 83.7753V81.7753ZM65.9163 81.6591C65.7151 81.6331 65.5152 81.6029 65.3168 81.5686L64.9754 83.5392C65.2022 83.5785 65.4306 83.613 65.6605 83.6427L65.9163 81.6591ZM65.3168 81.5686C64.9518 81.5053 64.585 81.4966 64.2274 81.5375L64.4543 83.5246C64.6269 83.5048 64.8023 83.5092 64.9754 83.5392L65.3168 81.5686ZM62.244 82.3592C61.9624 82.5833 61.7092 82.8488 61.4959 83.1517L63.131 84.3034C63.2321 84.1598 63.353 84.0327 63.489 83.9245L62.244 82.3592ZM61.4959 83.1517C61.3798 83.3165 61.2597 83.4794 61.1357 83.6402L62.7193 84.8617C62.8611 84.6779 62.9983 84.4918 63.131 84.3034L61.4959 83.1517ZM60.3533 84.569C60.2169 84.7175 60.0767 84.8638 59.9327 85.0078L61.347 86.422C61.511 86.2579 61.6708 86.0912 61.8263 85.9218L60.3533 84.569ZM59.9327 85.0078C59.769 85.1715 59.6024 85.3302 59.4329 85.4841L60.7772 86.9649C60.9705 86.7895 61.1605 86.6085 61.347 86.422L59.9327 85.0078ZM58.3679 86.3601C57.9962 86.6365 57.614 86.8921 57.2229 87.1269L58.2524 88.8416C58.6996 88.5731 59.1365 88.2809 59.5612 87.9651L58.3679 86.3601ZM56.0082 87.7767C55.591 87.974 55.1661 88.1495 54.7351 88.3034L55.4076 90.187C55.9003 90.0111 56.3861 89.8103 56.8632 89.5847L56.0082 87.7767ZM53.416 88.7024C52.9691 88.8139 52.5177 88.9031 52.0636 88.9701L52.3556 90.9487C52.874 90.8722 53.3896 90.7703 53.9001 90.6429L53.416 88.7024ZM50.6913 89.1045C50.2319 89.1269 49.7716 89.1269 49.3122 89.1045L49.2147 91.1021C49.739 91.1277 50.2644 91.1277 50.7888 91.1021L50.6913 89.1045ZM47.9399 88.9701C47.4858 88.9031 47.0344 88.8139 46.5875 88.7024L46.1034 90.6429C46.6139 90.7703 47.1294 90.8722 47.6479 90.9487L47.9399 88.9701ZM45.2684 88.3034C44.8374 88.1495 44.4125 87.974 43.9953 87.7767L43.1403 89.5847C43.6174 89.8103 44.1032 90.0111 44.5959 90.187L45.2684 88.3034ZM42.7806 87.1269C42.3895 86.8921 42.0073 86.6365 41.6356 86.3601L40.4423 87.9651C40.867 88.2809 41.3039 88.5731 41.7511 88.8416L42.7806 87.1269ZM40.5706 85.4841C40.4011 85.3302 40.2344 85.1715 40.0707 85.0078L38.6565 86.422C38.843 86.6085 39.033 86.7895 39.2263 86.9649L40.5706 85.4841ZM40.0707 85.0078C39.9267 84.8638 39.7865 84.7174 39.6501 84.5689L38.1771 85.9218C38.3327 86.0912 38.4925 86.2579 38.6565 86.422L40.0707 85.0078ZM38.8677 83.6401C38.7436 83.4792 38.6236 83.3163 38.5075 83.1515L36.8724 84.3032C37.0051 84.4916 37.1423 84.6778 37.284 84.8615L38.8677 83.6401ZM38.5075 83.1515C38.2941 82.8486 38.041 82.5831 37.7593 82.359L36.5143 83.9243C36.6503 84.0325 36.7712 84.1596 36.8724 84.3032L38.5075 83.1515ZM35.7759 81.5372C35.4183 81.4964 35.0516 81.5051 34.6866 81.5683L35.0279 83.539C35.2011 83.509 35.3764 83.5046 35.5491 83.5243L35.7759 81.5372ZM34.6866 81.5683C34.4881 81.6027 34.2883 81.6329 34.087 81.6589L34.3429 83.6424C34.5728 83.6128 34.8011 83.5783 35.0279 83.539L34.6866 81.5683ZM32.8785 81.7622C32.6773 81.7707 32.4749 81.775 32.2715 81.775V83.775C32.5032 83.775 32.7339 83.7701 32.9633 83.7604L32.8785 81.7622ZM32.2715 81.775C32.04 81.775 31.8099 81.7694 31.5813 81.7584L31.4847 83.7561C31.7454 83.7687 32.0078 83.775 32.2715 83.775V81.775ZM30.2087 81.6247C29.7504 81.5573 29.2995 81.4678 28.8569 81.3573L28.3724 83.2977C28.8785 83.4241 29.394 83.5264 29.9176 83.6034L30.2087 81.6247ZM27.5385 80.9578C27.104 80.8024 26.6794 80.6261 26.2658 80.4301L25.4095 82.2375C25.8822 82.4615 26.3677 82.6631 26.8646 82.8409L27.5385 80.9578ZM25.051 79.7794C24.6561 79.5423 24.2738 79.2862 23.9054 79.0125L22.7127 80.618C23.1335 80.9305 23.5701 81.223 24.0211 81.4939L25.051 79.7794ZM22.8399 78.1371C22.4993 77.8282 22.1738 77.5027 21.8648 77.162L20.3833 78.5056C20.736 78.8945 21.1075 79.266 21.4964 79.6186L22.8399 78.1371ZM20.9894 76.0966C20.7157 75.7281 20.4597 75.3458 20.2225 74.951L18.508 75.9808C18.779 76.4319 19.0714 76.8685 19.3839 77.2892L20.9894 76.0966ZM19.5718 73.7361C19.3759 73.3226 19.1996 72.8979 19.0441 72.4635L17.1611 73.1373C17.3389 73.6342 17.5405 74.1197 17.7645 74.5925L19.5718 73.7361ZM18.6447 71.145C18.5341 70.7025 18.4446 70.2515 18.3772 69.7933L16.3985 70.0843C16.4755 70.608 16.5779 71.1235 16.7042 71.6296L18.6447 71.145ZM18.2436 68.4207C18.2325 68.1921 18.2269 67.962 18.2269 67.7305H16.2269C16.2269 67.9942 16.2333 68.2565 16.2459 68.5173L18.2436 68.4207ZM18.2269 67.7305C18.2269 67.527 18.2312 67.3247 18.2398 67.1234L16.2416 67.0386C16.2319 67.268 16.2269 67.4987 16.2269 67.7305H18.2269ZM18.3431 65.9148C18.3691 65.7135 18.3993 65.5136 18.4337 65.3152L16.463 64.9738C16.4237 65.2006 16.3892 65.429 16.3595 65.6589L18.3431 65.9148ZM18.4337 65.3152C18.4969 64.9502 18.5056 64.5835 18.4648 64.2258L16.4777 64.4527C16.4974 64.6253 16.493 64.8007 16.463 64.9738L18.4337 65.3152ZM17.6431 62.2425C17.419 61.9608 17.1535 61.7077 16.8507 61.4944L15.6989 63.1294C15.8425 63.2306 15.9696 63.3514 16.0778 63.4875L17.6431 62.2425ZM16.8507 61.4944C16.6859 61.3783 16.523 61.2582 16.3622 61.1342L15.1407 62.7178C15.3244 62.8595 15.5105 62.9967 15.6989 63.1294L16.8507 61.4944ZM15.4336 60.352C15.2852 60.2156 15.1389 60.0754 14.9949 59.9315L13.5807 61.3457C13.7447 61.5097 13.9114 61.6694 14.0808 61.825L15.4336 60.352Z" fill="#AAAEC9" mask="url(#path-1-inside-1_380_15554)"/>
<path d="M62.3808 47.4344C64.1394 48.7393 64.1394 51.2614 62.3808 52.5664C60.3576 54.0676 57.5486 56.0296 54.3764 57.8967C51.2388 59.7433 48.0664 61.2811 45.652 62.3673C43.5439 63.3156 41.2114 61.9384 41.0373 59.6549C40.8457 57.1424 40.6628 53.7598 40.6628 50.0004C40.6628 46.2409 40.8457 42.8583 41.0373 40.3459C41.2114 38.0623 43.5439 36.6851 45.652 37.6334C48.0664 38.7196 51.2388 40.2574 54.3764 42.1041C57.5486 43.9711 60.3576 45.9331 62.3808 47.4344Z" fill="#D8DAE9"/>
</svg>
