<svg width="100" height="100" viewBox="0 0 100 100" fill="none" xmlns="http://www.w3.org/2000/svg">
<mask id="path-1-inside-1_637_27345" fill="white">
<path fill-rule="evenodd" clip-rule="evenodd" d="M14.2877 60.6395C14.9117 61.2636 15.577 61.8214 16.2746 62.3128C17.1738 62.9462 17.6359 64.0618 17.4482 65.1455C17.3027 65.9856 17.2268 66.8497 17.2268 67.7314C17.2268 76.0403 23.9625 82.776 32.2714 82.776C33.153 82.776 34.017 82.7002 34.8571 82.5546C35.9408 82.3669 37.0564 82.8292 37.6898 83.7283C38.1814 84.4262 38.7393 85.0916 39.3635 85.7159C45.2388 91.5911 54.7645 91.5911 60.6397 85.7159C61.2639 85.0917 61.8218 84.4263 62.3133 83.7285C62.9467 82.8294 64.0623 82.3671 65.146 82.5549C65.9861 82.7004 66.8501 82.7762 67.7318 82.7762C76.0407 82.7762 82.7764 76.0406 82.7764 67.7317C82.7764 66.8493 82.7004 65.9846 82.5546 65.1439C82.3668 64.0603 82.8288 62.9447 83.7277 62.3112C84.4245 61.8201 85.089 61.2629 85.7123 60.6395C91.5876 54.7643 91.5876 45.2386 85.7123 39.3633C85.0889 38.7399 84.4245 38.1827 83.7276 37.6916C82.8286 37.0581 82.3667 35.9424 82.5546 34.8588C82.7004 34.0179 82.7764 33.1531 82.7764 32.2705C82.7764 23.9616 76.0407 17.226 67.7318 17.226C66.8499 17.226 65.9857 17.3018 65.1455 17.4474C64.0618 17.6352 62.9462 17.173 62.3128 16.2739C61.8214 15.5764 61.2637 14.9113 60.6397 14.2873C54.7645 8.41204 45.2388 8.41204 39.3635 14.2873C38.7389 14.912 38.1806 15.5779 37.6888 16.2763C37.0555 17.1756 35.9398 17.638 34.8561 17.4503C34.0163 17.3049 33.1527 17.2291 32.2714 17.2291C23.9625 17.2291 17.2268 23.9648 17.2268 32.2737C17.2268 33.1549 17.3026 34.0183 17.4479 34.858C17.6355 35.9415 17.1733 37.0569 16.2744 37.6902C15.5768 38.1816 14.9116 38.7394 14.2877 39.3633C8.41241 45.2386 8.41241 54.7643 14.2877 60.6395Z"/>
</mask>
<path fill-rule="evenodd" clip-rule="evenodd" d="M14.2877 60.6395C14.9117 61.2636 15.577 61.8214 16.2746 62.3128C17.1738 62.9462 17.6359 64.0618 17.4482 65.1455C17.3027 65.9856 17.2268 66.8497 17.2268 67.7314C17.2268 76.0403 23.9625 82.776 32.2714 82.776C33.153 82.776 34.017 82.7002 34.8571 82.5546C35.9408 82.3669 37.0564 82.8292 37.6898 83.7283C38.1814 84.4262 38.7393 85.0916 39.3635 85.7159C45.2388 91.5911 54.7645 91.5911 60.6397 85.7159C61.2639 85.0917 61.8218 84.4263 62.3133 83.7285C62.9467 82.8294 64.0623 82.3671 65.146 82.5549C65.9861 82.7004 66.8501 82.7762 67.7318 82.7762C76.0407 82.7762 82.7764 76.0406 82.7764 67.7317C82.7764 66.8493 82.7004 65.9846 82.5546 65.1439C82.3668 64.0603 82.8288 62.9447 83.7277 62.3112C84.4245 61.8201 85.089 61.2629 85.7123 60.6395C91.5876 54.7643 91.5876 45.2386 85.7123 39.3633C85.0889 38.7399 84.4245 38.1827 83.7276 37.6916C82.8286 37.0581 82.3667 35.9424 82.5546 34.8588C82.7004 34.0179 82.7764 33.1531 82.7764 32.2705C82.7764 23.9616 76.0407 17.226 67.7318 17.226C66.8499 17.226 65.9857 17.3018 65.1455 17.4474C64.0618 17.6352 62.9462 17.173 62.3128 16.2739C61.8214 15.5764 61.2637 14.9113 60.6397 14.2873C54.7645 8.41204 45.2388 8.41204 39.3635 14.2873C38.7389 14.912 38.1806 15.5779 37.6888 16.2763C37.0555 17.1756 35.9398 17.638 34.8561 17.4503C34.0163 17.3049 33.1527 17.2291 32.2714 17.2291C23.9625 17.2291 17.2268 23.9648 17.2268 32.2737C17.2268 33.1549 17.3026 34.0183 17.4479 34.858C17.6355 35.9415 17.1733 37.0569 16.2744 37.6902C15.5768 38.1816 14.9116 38.7394 14.2877 39.3633C8.41241 45.2386 8.41241 54.7643 14.2877 60.6395Z" fill="#EEEEF5"/>
<path d="M14.2877 60.6395L14.6412 60.286H14.6412L14.2877 60.6395ZM17.2268 67.7314H17.7268H17.2268ZM39.3635 85.7159L39.7171 85.3623H39.7171L39.3635 85.7159ZM60.6397 85.7159L60.9933 86.0694L60.6397 85.7159ZM85.7123 60.6395L86.0659 60.9931L85.7123 60.6395ZM85.7123 39.3633L85.3588 39.7169V39.7169L85.7123 39.3633ZM67.7318 17.226V16.726V17.226ZM60.6397 14.2873L60.2862 14.6409L60.6397 14.2873ZM39.3635 14.2873L39.01 13.9338L39.3635 14.2873ZM17.2268 32.2737H16.7268H17.2268ZM14.2877 39.3633L14.6412 39.7169H14.6412L14.2877 39.3633ZM37.6888 16.2763L38.0976 16.5642L37.6888 16.2763ZM65.1455 17.4474L65.2308 17.9401L65.1455 17.4474ZM62.3128 16.2739L61.904 16.5619L62.3128 16.2739ZM83.7276 37.6916L83.4396 38.1003L83.7276 37.6916ZM82.5546 34.8588L82.0619 34.7734L82.5546 34.8588ZM62.3133 83.7285L61.9045 83.4406L62.3133 83.7285ZM65.146 82.5549L65.2313 82.0622L65.146 82.5549ZM34.8571 82.5546L34.9424 83.0473L34.8571 82.5546ZM37.6898 83.7283L38.0986 83.4404L37.6898 83.7283ZM82.5546 65.1439L82.062 65.2293L82.5546 65.1439ZM83.7277 62.3112L83.4397 61.9025L83.7277 62.3112ZM17.4479 34.858L16.9553 34.9433L17.4479 34.858ZM16.2744 37.6902L16.5623 38.099L16.2744 37.6902ZM16.2746 62.3128L16.5626 61.9041L16.2746 62.3128ZM14.6412 60.286C14.4718 60.1166 14.3075 59.9441 14.1483 59.7687L13.4079 60.4408C13.5779 60.6281 13.7533 60.8123 13.9341 60.9931L14.6412 60.286ZM13.2412 58.6659C12.955 58.2809 12.6902 57.8851 12.447 57.48L11.5897 57.9947C11.8497 58.4279 12.1328 58.8511 12.4387 59.2626L13.2412 58.6659ZM11.7739 56.2216C11.5695 55.7895 11.3876 55.3493 11.2282 54.9029L10.2865 55.2392C10.4569 55.7164 10.6513 56.187 10.8699 56.6491L11.7739 56.2216ZM10.8151 53.5367C10.6996 53.0739 10.6072 52.6065 10.5378 52.1363L9.54851 52.2823C9.62264 52.7846 9.7214 53.2841 9.84481 53.7788L10.8151 53.5367ZM10.3986 50.7153C10.3754 50.2397 10.3754 49.7631 10.3986 49.2875L9.39984 49.2387C9.37502 49.7469 9.37502 50.256 9.39983 50.7641L10.3986 50.7153ZM10.5378 47.8666C10.6072 47.3964 10.6996 46.929 10.8151 46.4662L9.84481 46.2241C9.7214 46.7187 9.62264 47.2182 9.54851 47.7206L10.5378 47.8666ZM11.2282 45.1C11.3876 44.6535 11.5695 44.2134 11.7739 43.7812L10.8699 43.3537C10.6513 43.8158 10.4569 44.2864 10.2865 44.7637L11.2282 45.1ZM12.447 42.5229C12.6902 42.1178 12.955 41.7219 13.2412 41.337L12.4387 40.7403C12.1328 41.1518 11.8497 41.575 11.5897 42.0082L12.447 42.5229ZM14.1483 40.2342C14.3075 40.0588 14.4718 39.8863 14.6412 39.7169L13.9341 39.0098C13.7533 39.1906 13.5779 39.3747 13.4079 39.5621L14.1483 40.2342ZM14.6412 39.7169C14.7902 39.5679 14.9416 39.4229 15.0952 39.2817L14.4188 38.5452C14.2547 38.6959 14.0931 38.8508 13.9341 39.0098L14.6412 39.7169ZM16.0565 38.4719C16.2231 38.3435 16.3917 38.2192 16.5623 38.099L15.9864 37.2815C15.804 37.41 15.6237 37.5429 15.4458 37.6801L16.0565 38.4719ZM16.5623 38.099C16.8253 37.9137 17.0562 37.6936 17.2513 37.4484L16.4686 36.8259C16.3315 36.9983 16.1698 37.1522 15.9864 37.2815L16.5623 38.099ZM17.9675 35.7199C18.0031 35.4085 17.9955 35.0897 17.9406 34.7727L16.9553 34.9433C16.9935 35.1644 16.999 35.3875 16.974 35.6064L17.9675 35.7199ZM17.9406 34.7727C17.905 34.5673 17.8738 34.3604 17.8469 34.1521L16.8551 34.28C16.8838 34.5026 16.9172 34.7237 16.9553 34.9433L17.9406 34.7727ZM17.7401 32.9015C17.7313 32.6934 17.7268 32.4841 17.7268 32.2737H16.7268C16.7268 32.4982 16.7316 32.7217 16.741 32.9439L17.7401 32.9015ZM17.7268 32.2737C17.7268 32.0341 17.7326 31.796 17.744 31.5593L16.7452 31.511C16.733 31.7637 16.7268 32.018 16.7268 32.2737H17.7268ZM17.8824 30.1381C17.9522 29.6635 18.045 29.1964 18.1594 28.738L17.1892 28.4957C17.0668 28.9859 16.9677 29.4853 16.8931 29.9926L17.8824 30.1381ZM18.5732 27.3722C18.7343 26.9221 18.9169 26.4823 19.1199 26.0539L18.2162 25.6258C17.9992 26.0837 17.8039 26.554 17.6317 27.0353L18.5732 27.3722ZM19.7938 24.7957C20.0394 24.3868 20.3045 23.9909 20.5879 23.6094L19.7852 23.0131C19.4824 23.4208 19.199 23.8438 18.9365 24.2808L19.7938 24.7957ZM21.4943 22.5063C21.8142 22.1535 22.1512 21.8165 22.5039 21.4966L21.8322 20.7559C21.4553 21.0976 21.0953 21.4576 20.7536 21.8345L21.4943 22.5063ZM23.6071 20.5903C23.9886 20.3069 24.3845 20.0417 24.7934 19.7961L24.2785 18.9389C23.8415 19.2013 23.4184 19.4847 23.0108 19.7875L23.6071 20.5903ZM26.0516 19.1222C26.48 18.9192 26.9198 18.7366 27.3699 18.5755L27.033 17.634C26.5517 17.8062 26.0814 18.0015 25.6234 18.2185L26.0516 19.1222ZM28.7357 18.1618C29.1941 18.0473 29.6612 17.9545 30.1358 17.8847L29.9903 16.8954C29.483 16.97 28.9836 17.0691 28.4934 17.1915L28.7357 18.1618ZM31.557 17.7464C31.7936 17.7349 32.0318 17.7291 32.2714 17.7291V16.7291C32.0157 16.7291 31.7614 16.7353 31.5087 16.7475L31.557 17.7464ZM32.2714 17.7291C32.4818 17.7291 32.6911 17.7336 32.8993 17.7424L32.9417 16.7433C32.7194 16.7339 32.4959 16.7291 32.2714 16.7291V17.7291ZM34.1501 17.8493C34.3584 17.8762 34.5653 17.9074 34.7708 17.943L34.9414 16.9576C34.7218 16.9196 34.5006 16.8862 34.278 16.8575L34.1501 17.8493ZM34.7708 17.943C35.0878 17.9979 35.4068 18.0055 35.7181 17.9699L35.6046 16.9764C35.3857 17.0014 35.1625 16.9959 34.9414 16.9576L34.7708 17.943ZM37.447 17.2534C37.6923 17.0583 37.9123 16.8273 38.0976 16.5642L37.28 15.9884C37.1508 16.1719 36.9968 16.3336 36.8244 16.4708L37.447 17.2534ZM38.0976 16.5642C38.2179 16.3933 38.3423 16.2245 38.4709 16.0578L37.679 15.4471C37.5416 15.6253 37.4086 15.8058 37.28 15.9884L38.0976 16.5642ZM39.2815 15.0954C39.4227 14.9415 39.5679 14.79 39.7171 14.6409L39.01 13.9338C38.8508 14.0929 38.6958 14.2547 38.5449 14.419L39.2815 15.0954ZM39.7171 14.6409C39.8865 14.4715 40.059 14.3071 40.2344 14.1479L39.5622 13.4075C39.3749 13.5775 39.1907 13.753 39.01 13.9338L39.7171 14.6409ZM41.3372 13.2408C41.7221 12.9546 42.118 12.6899 42.5231 12.4467L42.0084 11.5893C41.5752 11.8494 41.152 12.1324 40.7405 12.4383L41.3372 13.2408ZM43.7814 11.7735C44.2136 11.5691 44.6537 11.3873 45.1001 11.2279L44.7639 10.2861C44.2866 10.4565 43.816 10.651 43.3539 10.8695L43.7814 11.7735ZM46.4664 10.8147C46.9292 10.6992 47.3966 10.6068 47.8668 10.5374L47.7208 9.54815C47.2184 9.62227 46.7189 9.72104 46.2243 9.84444L46.4664 10.8147ZM49.2877 10.3983C49.7633 10.3751 50.2399 10.3751 50.7155 10.3983L50.7643 9.39947C50.2562 9.37466 49.7471 9.37466 49.2389 9.39947L49.2877 10.3983ZM52.1365 10.5374C52.6067 10.6068 53.0741 10.6992 53.5369 10.8147L53.7789 9.84444C53.2843 9.72104 52.7848 9.62227 52.2825 9.54815L52.1365 10.5374ZM54.9031 11.2279C55.3495 11.3873 55.7897 11.5691 56.2218 11.7735L56.6493 10.8695C56.1872 10.651 55.7166 10.4565 55.2393 10.2861L54.9031 11.2279ZM57.4801 12.4467C57.8853 12.6899 58.2811 12.9546 58.6661 13.2408L59.2628 12.4383C58.8513 12.1324 58.4281 11.8494 57.9949 11.5893L57.4801 12.4467ZM59.7689 14.1479C59.9443 14.3072 60.1168 14.4715 60.2862 14.6409L60.9933 13.9338C60.8125 13.753 60.6283 13.5775 60.441 13.4075L59.7689 14.1479ZM60.2862 14.6409C60.4351 14.7898 60.5802 14.9412 60.7213 15.0948L61.4578 14.4184C61.3071 14.2543 61.1523 14.0927 60.9933 13.9338L60.2862 14.6409ZM61.5311 16.0561C61.6595 16.2226 61.7838 16.3913 61.904 16.5619L62.7215 15.986C62.593 15.8036 62.4601 15.6233 62.3229 15.4454L61.5311 16.0561ZM61.904 16.5619C62.0894 16.8249 62.3094 17.0558 62.5547 17.2509L63.1772 16.4683C63.0047 16.3311 62.8508 16.1694 62.7215 15.986L61.904 16.5619ZM64.2835 17.9671C64.5949 18.0026 64.9138 17.995 65.2308 17.9401L65.0601 16.9548C64.839 16.9931 64.6158 16.9985 64.3969 16.9736L64.2835 17.9671ZM65.2308 17.9401C65.4364 17.9045 65.6434 17.8732 65.8518 17.8463L65.7239 16.8545C65.5011 16.8832 65.2798 16.9167 65.0601 16.9548L65.2308 17.9401ZM67.1035 17.7393C67.3118 17.7304 67.5213 17.726 67.7318 17.726V16.726C67.5071 16.726 67.2835 16.7307 67.061 16.7402L67.1035 17.7393ZM67.7318 17.726C67.9714 17.726 68.2095 17.7317 68.4462 17.7432L68.4945 16.7443C68.2417 16.7321 67.9875 16.726 67.7318 16.726V17.726ZM69.8674 17.8816C70.342 17.9514 70.8091 18.0441 71.2675 18.1586L71.5098 17.1884C71.0196 17.066 70.5202 16.9668 70.0129 16.8922L69.8674 17.8816ZM72.6333 18.5724C73.0834 18.7334 73.5232 18.9161 73.9516 19.119L74.3797 18.2153C73.9218 17.9983 73.4515 17.8031 72.9702 17.6308L72.6333 18.5724ZM75.2098 19.7929C75.6187 20.0385 76.0145 20.3037 76.3961 20.5871L76.9924 19.7843C76.5847 19.4815 76.1617 19.1982 75.7247 18.9357L75.2098 19.7929ZM77.4992 21.4935C77.852 21.8134 78.189 22.1503 78.5089 22.5031L79.2496 21.8313C78.9079 21.4545 78.5479 21.0945 78.171 20.7527L77.4992 21.4935ZM79.4152 23.6062C79.6986 23.9878 79.9638 24.3836 80.2094 24.7925L81.0666 24.2776C80.8041 23.8406 80.5208 23.4176 80.218 23.0099L79.4152 23.6062ZM80.8833 26.0508C81.0863 26.4791 81.2689 26.919 81.4299 27.369L82.3715 27.0321C82.1992 26.5508 82.004 26.0806 81.787 25.6226L80.8833 26.0508ZM81.8437 28.7348C81.9582 29.1933 82.0509 29.6604 82.1208 30.135L83.1101 29.9894C83.0355 29.4821 82.9364 28.9827 82.8139 28.4925L81.8437 28.7348ZM82.2591 31.5561C82.2706 31.7928 82.2764 32.031 82.2764 32.2705H83.2764C83.2764 32.0148 83.2702 31.7606 83.258 31.5079L82.2591 31.5561ZM82.2764 32.2705C82.2764 32.4812 82.2719 32.6909 82.263 32.8993L83.2621 32.9418C83.2716 32.7192 83.2764 32.4954 83.2764 32.2705H82.2764ZM82.1559 34.1519C82.1289 34.3605 82.0976 34.5677 82.0619 34.7734L83.0472 34.9443C83.0853 34.7244 83.1188 34.5029 83.1476 34.28L82.1559 34.1519ZM82.0619 34.7734C82.0069 35.0904 81.9993 35.4093 82.0348 35.7207L83.0283 35.6074C83.0034 35.3885 83.0089 35.1653 83.0472 34.9443L82.0619 34.7734ZM82.7507 37.4496C82.9457 37.6949 83.1766 37.915 83.4396 38.1003L84.0156 37.2829C83.8322 37.1536 83.6705 36.9997 83.5334 36.8272L82.7507 37.4496ZM83.4396 38.1003C83.61 38.2204 83.7785 38.3447 83.9449 38.473L84.5557 37.6813C84.3779 37.5441 84.1979 37.4113 84.0156 37.2829L83.4396 38.1003ZM84.9052 39.2821C85.0587 39.4231 85.2099 39.568 85.3588 39.7169L86.0659 39.0098C85.907 38.8509 85.7456 38.6962 85.5817 38.5457L84.9052 39.2821ZM85.3588 39.7169C85.5282 39.8863 85.6925 40.0588 85.8517 40.2342L86.5921 39.5621C86.4221 39.3747 86.2467 39.1906 86.0659 39.0098L85.3588 39.7169ZM86.7588 41.337C87.045 41.7219 87.3098 42.1178 87.553 42.5229L88.4103 42.0082C88.1503 41.575 87.8672 41.1518 87.5613 40.7403L86.7588 41.337ZM88.2261 43.7812C88.4305 44.2134 88.6124 44.6535 88.7718 45.1L89.7135 44.7637C89.5431 44.2865 89.3487 43.8158 89.1301 43.3537L88.2261 43.7812ZM89.1849 46.4662C89.3004 46.929 89.3928 47.3964 89.4622 47.8666L90.4515 47.7206C90.3774 47.2182 90.2786 46.7187 90.1552 46.2241L89.1849 46.4662ZM89.6013 49.2875C89.6246 49.7632 89.6246 50.2397 89.6013 50.7153L90.6002 50.7641C90.625 50.256 90.625 49.7469 90.6002 49.2387L89.6013 49.2875ZM89.4622 52.1363C89.3928 52.6065 89.3004 53.0739 89.1849 53.5367L90.1552 53.7788C90.2786 53.2841 90.3774 52.7846 90.4515 52.2823L89.4622 52.1363ZM88.7718 54.9029C88.6124 55.3493 88.4305 55.7895 88.2261 56.2216L89.1301 56.6491C89.3487 56.187 89.5431 55.7164 89.7135 55.2391L88.7718 54.9029ZM87.553 57.48C87.3098 57.8851 87.045 58.2809 86.7588 58.6659L87.5613 59.2626C87.8672 58.8511 88.1503 58.4279 88.4103 57.9947L87.553 57.48ZM85.8517 59.7687C85.6925 59.9441 85.5282 60.1166 85.3588 60.286L86.0659 60.9931C86.2467 60.8123 86.4221 60.6281 86.5921 60.4408L85.8517 59.7687ZM85.3588 60.286C85.2099 60.4348 85.0587 60.5797 84.9052 60.7207L85.5817 61.4572C85.7456 61.3066 85.907 61.1519 86.0659 60.9931L85.3588 60.286ZM83.9449 61.5298C83.7786 61.6581 83.6101 61.7824 83.4397 61.9025L84.0157 62.7199C84.1979 62.5915 84.378 62.4587 84.5558 62.3215L83.9449 61.5298ZM83.4397 61.9025C83.1767 62.0878 82.9458 62.3079 82.7508 62.5532L83.5335 63.1756C83.6706 63.0031 83.8323 62.8492 84.0157 62.7199L83.4397 61.9025ZM82.0349 64.282C81.9994 64.5934 82.007 64.9123 82.062 65.2293L83.0473 65.0584C83.009 64.8374 83.0035 64.6142 83.0284 64.3953L82.0349 64.282ZM82.062 65.2293C82.0976 65.4349 82.129 65.6421 82.1559 65.8506L83.1477 65.7226C83.1189 65.4997 83.0854 65.2783 83.0473 65.0584L82.062 65.2293ZM82.263 67.103C82.2719 67.3114 82.2764 67.521 82.2764 67.7317H83.2764C83.2764 67.5068 83.2716 67.2831 83.2621 67.0605L82.263 67.103ZM82.2764 67.7317C82.2764 67.9712 82.2706 68.2094 82.2591 68.4461L83.258 68.4943C83.2702 68.2416 83.2764 67.9874 83.2764 67.7317H82.2764ZM82.1208 69.8672C82.0509 70.3419 81.9582 70.8089 81.8437 71.2674L82.8139 71.5097C82.9364 71.0195 83.0355 70.5201 83.1101 70.0128L82.1208 69.8672ZM81.4299 72.6332C81.2689 73.0832 81.0863 73.5231 80.8833 73.9514L81.787 74.3796C82.004 73.9216 82.1992 73.4514 82.3715 72.9701L81.4299 72.6332ZM80.2094 75.2097C79.9638 75.6186 79.6986 76.0144 79.4152 76.396L80.218 76.9923C80.5208 76.5846 80.8041 76.1616 81.0666 75.7246L80.2094 75.2097ZM78.5089 77.4991C78.189 77.8519 77.852 78.1888 77.4992 78.5087L78.171 79.2495C78.5479 78.9077 78.9079 78.5477 79.2496 78.1709L78.5089 77.4991ZM76.3961 79.4151C76.0145 79.6985 75.6187 79.9637 75.2098 80.2093L75.7247 81.0665C76.1617 80.804 76.5847 80.5207 76.9924 80.2178L76.3961 79.4151ZM73.9516 80.8832C73.5232 81.0861 73.0834 81.2688 72.6333 81.4298L72.9702 82.3714C73.4515 82.1991 73.9218 82.0039 74.3797 81.7869L73.9516 80.8832ZM71.2675 81.8436C70.8091 81.9581 70.342 82.0508 69.8674 82.1206L70.0129 83.11C70.5202 83.0354 71.0196 82.9362 71.5098 82.8138L71.2675 81.8436ZM68.4462 82.259C68.2095 82.2705 67.9714 82.2762 67.7318 82.2762V83.2762C67.9875 83.2762 68.2417 83.2701 68.4945 83.2579L68.4462 82.259ZM67.7318 82.2762C67.5213 82.2762 67.3119 82.2718 67.1036 82.2629L67.0612 83.262C67.2836 83.2715 67.5071 83.2762 67.7318 83.2762V82.2762ZM65.8522 82.156C65.6438 82.1291 65.4368 82.0978 65.2313 82.0622L65.0606 83.0475C65.2803 83.0856 65.5016 83.119 65.7243 83.1478L65.8522 82.156ZM65.2313 82.0622C64.9143 82.0073 64.5954 81.9997 64.284 82.0352L64.3974 83.0288C64.6163 83.0038 64.8395 83.0092 65.0606 83.0475L65.2313 82.0622ZM62.5552 82.7515C62.3099 82.9466 62.0898 83.1775 61.9045 83.4406L62.7221 84.0165C62.8513 83.833 63.0052 83.6713 63.1777 83.5341L62.5552 82.7515ZM61.9045 83.4406C61.7843 83.6113 61.6599 83.78 61.5315 83.9465L62.3233 84.5573C62.4606 84.3793 62.5935 84.1989 62.7221 84.0165L61.9045 83.4406ZM60.7214 84.9082C60.5803 85.0619 60.4352 85.2133 60.2862 85.3623L60.9933 86.0694C61.1523 85.9104 61.3072 85.7487 61.4579 85.5846L60.7214 84.9082ZM60.2862 85.3623C60.1168 85.5317 59.9443 85.696 59.7689 85.8553L60.441 86.5957C60.6283 86.4256 60.8125 86.2502 60.9933 86.0694L60.2862 85.3623ZM58.6661 86.7623C58.2811 87.0486 57.8853 87.3133 57.4801 87.5565L57.9949 88.4139C58.4281 88.1538 58.8513 87.8708 59.2627 87.5648L58.6661 86.7623ZM56.2218 88.2297C55.7897 88.434 55.3495 88.6159 54.9031 88.7753L55.2393 89.7171C55.7166 89.5467 56.1872 89.3522 56.6493 89.1337L56.2218 88.2297ZM53.5369 89.1885C53.0741 89.3039 52.6067 89.3964 52.1365 89.4657L52.2825 90.455C52.7848 90.3809 53.2843 90.2821 53.7789 90.1587L53.5369 89.1885ZM50.7155 89.6049C50.2399 89.6281 49.7633 89.6281 49.2877 89.6049L49.2389 90.6037C49.7471 90.6285 50.2562 90.6285 50.7643 90.6037L50.7155 89.6049ZM47.8668 89.4657C47.3966 89.3964 46.9292 89.3039 46.4664 89.1885L46.2243 90.1587C46.7189 90.2821 47.2184 90.3809 47.7208 90.455L47.8668 89.4657ZM45.1002 88.7753C44.6537 88.6159 44.2136 88.434 43.7814 88.2297L43.3539 89.1337C43.816 89.3522 44.2866 89.5467 44.7639 89.7171L45.1002 88.7753ZM42.5231 87.5565C42.118 87.3133 41.7221 87.0486 41.3372 86.7623L40.7405 87.5648C41.152 87.8708 41.5752 88.1538 42.0084 88.4139L42.5231 87.5565ZM40.2344 85.8553C40.059 85.696 39.8865 85.5317 39.7171 85.3623L39.01 86.0694C39.1907 86.2502 39.3749 86.4256 39.5622 86.5957L40.2344 85.8553ZM39.7171 85.3623C39.568 85.2133 39.4229 85.0618 39.2818 84.9081L38.5452 85.5846C38.696 85.7487 38.8509 85.9104 39.01 86.0694L39.7171 85.3623ZM38.4717 83.9464C38.3432 83.7798 38.2188 83.6111 38.0986 83.4404L37.281 84.0163C37.4096 84.1988 37.5425 84.3791 37.6798 84.5571L38.4717 83.9464ZM38.0986 83.4404C37.9133 83.1773 37.6932 82.9464 37.4479 82.7513L36.8254 83.5339C36.9979 83.6711 37.1518 83.8328 37.281 84.0163L38.0986 83.4404ZM35.7191 82.035C35.4077 81.9994 35.0888 82.007 34.7718 82.062L34.9424 83.0473C35.1636 83.009 35.3868 83.0035 35.6057 83.0285L35.7191 82.035ZM34.7718 82.062C34.5663 82.0976 34.3593 82.1289 34.1509 82.1557L34.2788 83.1475C34.5015 83.1188 34.7228 83.0854 34.9424 83.0473L34.7718 82.062ZM32.8996 82.2627C32.6913 82.2715 32.4819 82.276 32.2714 82.276V83.276C32.496 83.276 32.7196 83.2712 32.942 83.2618L32.8996 82.2627ZM32.2714 82.276C32.0318 82.276 31.7936 82.2702 31.557 82.2588L31.5087 83.2576C31.7614 83.2698 32.0157 83.276 32.2714 83.276V82.276ZM30.1358 82.1204C29.6612 82.0506 29.1941 81.9579 28.7357 81.8434L28.4934 82.8136C28.9836 82.936 29.483 83.0351 29.9903 83.1097L30.1358 82.1204ZM27.3699 81.4296C26.9198 81.2685 26.48 81.0859 26.0516 80.8829L25.6234 81.7866C26.0814 82.0036 26.5517 82.1989 27.033 82.3711L27.3699 81.4296ZM24.7934 80.209C24.3845 79.9634 23.9886 79.6983 23.6071 79.4149L23.0108 80.2176C23.4184 80.5204 23.8415 80.8038 24.2785 81.0663L24.7934 80.209ZM22.5039 78.5085C22.1512 78.1886 21.8142 77.8516 21.4943 77.4989L20.7536 78.1706C21.0953 78.5475 21.4553 78.9075 21.8322 79.2492L22.5039 78.5085ZM20.5879 76.3957C20.3045 76.0142 20.0394 75.6183 19.7938 75.2094L18.9365 75.7243C19.199 76.1613 19.4824 76.5844 19.7852 76.992L20.5879 76.3957ZM19.1199 73.9512C18.9169 73.5228 18.7343 73.083 18.5732 72.6329L17.6317 72.9698C17.8039 73.4511 17.9992 73.9214 18.2162 74.3794L19.1199 73.9512ZM18.1594 71.2671C18.045 70.8087 17.9522 70.3416 17.8824 69.867L16.8931 70.0125C16.9677 70.5198 17.0668 71.0192 17.1892 71.5094L18.1594 71.2671ZM17.744 68.4458C17.7326 68.2092 17.7268 67.971 17.7268 67.7314H16.7268C16.7268 67.9871 16.733 68.2414 16.7452 68.4941L17.744 68.4458ZM17.7268 67.7314C17.7268 67.5209 17.7313 67.3115 17.7401 67.1032L16.741 67.0608C16.7316 67.2832 16.7268 67.5068 16.7268 67.7314H17.7268ZM17.8471 65.8518C17.874 65.6434 17.9053 65.4363 17.9409 65.2308L16.9555 65.0601C16.9175 65.2798 16.884 65.5011 16.8553 65.7238L17.8471 65.8518ZM17.9409 65.2308C17.9958 64.9138 18.0034 64.5949 17.9679 64.2835L16.9743 64.3969C16.9993 64.6158 16.9939 64.839 16.9555 65.0601L17.9409 65.2308ZM17.2516 62.5547C17.0566 62.3095 16.8256 62.0894 16.5626 61.9041L15.9867 62.7216C16.1701 62.8508 16.3318 63.0048 16.469 63.1772L17.2516 62.5547ZM16.5626 61.9041C16.3919 61.7839 16.2233 61.6595 16.0567 61.5311L15.446 62.3229C15.624 62.4602 15.8042 62.5931 15.9867 62.7216L16.5626 61.9041ZM15.0953 60.7212C14.9416 60.58 14.7902 60.435 14.6412 60.286L13.9341 60.9931C14.0931 61.1521 14.2547 61.307 14.4188 61.4577L15.0953 60.7212ZM14.2877 60.6395L14.9948 59.9324H14.9948L14.2877 60.6395ZM17.2268 67.7314H18.2268H17.2268ZM39.3635 85.7159L40.0706 85.0088L39.3635 85.7159ZM60.6397 85.7159L61.3468 86.423L60.6397 85.7159ZM85.7123 60.6395L86.4194 61.3466L85.7123 60.6395ZM85.7123 39.3633L85.0052 40.0704L85.7123 39.3633ZM67.7318 17.226V16.226V17.226ZM60.6397 14.2873L59.9326 14.9944V14.9944L60.6397 14.2873ZM39.3635 14.2873L38.6564 13.5802L39.3635 14.2873ZM17.2268 32.2737H16.2268H17.2268ZM14.2877 39.3633L14.9948 40.0704L14.2877 39.3633ZM37.6888 16.2763L38.5064 16.8521L37.6888 16.2763ZM65.1455 17.4474L65.3162 18.4327L65.1455 17.4474ZM62.3128 16.2739L61.4953 16.8499L62.3128 16.2739ZM83.7276 37.6916L83.1516 38.509L83.7276 37.6916ZM82.5546 34.8588L81.5693 34.688L82.5546 34.8588ZM62.3133 83.7285L61.4958 83.1526L62.3133 83.7285ZM65.146 82.5549L65.3167 81.5695L65.146 82.5549ZM34.8571 82.5546L35.0278 83.54L34.8571 82.5546ZM37.6898 83.7283L38.5073 83.1525L37.6898 83.7283ZM82.5546 65.1439L81.5693 65.3147L82.5546 65.1439ZM83.7277 62.3112L83.1516 61.4938L83.7277 62.3112ZM17.4479 34.858L16.4626 35.0286L17.4479 34.858ZM16.2744 37.6902L16.8503 38.5077L16.2744 37.6902ZM16.2746 62.3128L16.8505 61.4953L16.2746 62.3128ZM14.9948 59.9324C14.8311 59.7687 14.6723 59.6021 14.5185 59.4326L13.0376 60.7769C13.2131 60.9702 13.3941 61.1602 13.5806 61.3466L14.9948 59.9324ZM13.6424 58.3675C13.3661 57.9958 13.1105 57.6137 12.8757 57.2226L11.161 58.252C11.4295 58.6993 11.7217 59.1362 12.0375 59.5609L13.6424 58.3675ZM12.2259 56.0079C12.0286 55.5907 11.853 55.1658 11.6991 54.7348L9.81559 55.4073C9.9915 55.9 10.1923 56.3858 10.4179 56.8629L12.2259 56.0079ZM11.3002 53.4156C11.1887 52.9688 11.0994 52.5174 11.0324 52.0633L9.05387 52.3552C9.13037 52.8737 9.2323 53.3892 9.35968 53.8998L11.3002 53.4156ZM10.898 50.691C10.8756 50.2316 10.8756 49.7713 10.898 49.3119L8.90043 49.2144C8.87482 49.7387 8.87482 50.2641 8.90043 50.7885L10.898 50.691ZM11.0324 47.9395C11.0994 47.4855 11.1887 47.0341 11.3002 46.5872L9.35968 46.1031C9.2323 46.6136 9.13037 47.1291 9.05387 47.6476L11.0324 47.9395ZM11.6991 45.2681C11.853 44.8371 12.0286 44.4122 12.2259 43.995L10.4179 43.14C10.1923 43.6171 9.9915 44.1029 9.81559 44.5956L11.6991 45.2681ZM12.8757 42.7803C13.1105 42.3892 13.3661 42.007 13.6424 41.6353L12.0375 40.442C11.7217 40.8667 11.4295 41.3036 11.161 41.7508L12.8757 42.7803ZM14.5185 40.5703C14.6723 40.4008 14.8311 40.2341 14.9948 40.0704L13.5806 38.6562C13.3941 38.8427 13.2131 39.0327 13.0376 39.226L14.5185 40.5703ZM14.9948 40.0704C15.1387 39.9265 15.285 39.7863 15.4334 39.65L14.0806 38.177C13.9113 38.3325 13.7446 38.4922 13.5806 38.6562L14.9948 40.0704ZM16.3619 38.8678C16.5227 38.7438 16.6855 38.6238 16.8503 38.5077L15.6984 36.8727C15.5101 37.0054 15.3241 37.1425 15.1404 37.2842L16.3619 38.8678ZM16.8503 38.5077C17.1531 38.2944 17.4186 38.0413 17.6426 37.7596L16.0773 36.5147C15.9692 36.6507 15.8421 36.7715 15.6984 36.8727L16.8503 38.5077ZM18.4643 35.7766C18.5051 35.4191 18.4964 35.0524 18.4333 34.6874L16.4626 35.0286C16.4926 35.2017 16.4969 35.377 16.4772 35.5496L18.4643 35.7766ZM18.4333 34.6874C18.3989 34.4891 18.3688 34.2893 18.3428 34.0882L16.3592 34.3439C16.3889 34.5737 16.4233 34.8019 16.4626 35.0286L18.4333 34.6874ZM18.2397 32.8803C18.2311 32.6792 18.2268 32.477 18.2268 32.2737H16.2268C16.2268 32.5053 16.2317 32.7358 16.2415 32.9651L18.2397 32.8803ZM18.2268 32.2737C18.2268 32.0422 18.2324 31.8121 18.2435 31.5835L16.2458 31.4869C16.2332 31.7476 16.2268 32.01 16.2268 32.2737H18.2268ZM18.3771 30.2109C18.4445 29.7526 18.534 29.3017 18.6445 28.8591L16.7041 28.3746C16.5777 28.8807 16.4754 29.3962 16.3984 29.9198L18.3771 30.2109ZM19.044 27.5407C19.1995 27.1062 19.3758 26.6816 19.5717 26.268L17.7643 25.4117C17.5403 25.8844 17.3387 26.3699 17.1609 26.8668L19.044 27.5407ZM20.2224 25.0531C20.4596 24.6583 20.7156 24.276 20.9893 23.9076L19.3838 22.7149C19.0713 23.1357 18.7789 23.5723 18.5079 24.0233L20.2224 25.0531ZM21.8647 22.8421C22.1737 22.5014 22.4991 22.176 22.8398 21.867L21.4963 20.3855C21.1074 20.7382 20.7359 21.1097 20.3832 21.4986L21.8647 22.8421ZM23.9053 20.9916C24.2737 20.7179 24.656 20.4619 25.0508 20.2247L24.021 18.5102C23.5699 18.7812 23.1333 19.0736 22.7126 19.3861L23.9053 20.9916ZM26.2657 19.574C26.6793 19.3781 27.1039 19.2018 27.5384 19.0463L26.8645 17.1633C26.3676 17.3411 25.8821 17.5427 25.4094 17.7666L26.2657 19.574ZM28.8568 18.6469C29.2994 18.5363 29.7503 18.4468 30.2086 18.3794L29.9175 16.4007C29.3939 16.4777 28.8783 16.5801 28.3723 16.7064L28.8568 18.6469ZM31.5811 18.2458C31.8097 18.2347 32.0399 18.2291 32.2714 18.2291V16.2291C32.0076 16.2291 31.7453 16.2355 31.4846 16.2481L31.5811 18.2458ZM32.2714 18.2291C32.4747 18.2291 32.677 18.2334 32.8781 18.242L32.9629 16.2438C32.7336 16.234 32.503 16.2291 32.2714 16.2291V18.2291ZM34.0862 18.3452C34.2873 18.3711 34.4871 18.4013 34.6855 18.4357L35.0267 16.465C34.8 16.4257 34.5717 16.3912 34.3419 16.3616L34.0862 18.3452ZM34.6855 18.4357C35.0505 18.4989 35.4173 18.5075 35.7749 18.4667L35.5479 16.4796C35.3752 16.4993 35.1998 16.495 35.0267 16.465L34.6855 18.4357ZM37.7583 17.6447C38.04 17.4206 38.2931 17.155 38.5064 16.8521L36.8712 15.7005C36.77 15.8442 36.6491 15.9713 36.5131 16.0796L37.7583 17.6447ZM38.5064 16.8521C38.6226 16.6871 38.7427 16.5241 38.8668 16.3631L37.283 15.1418C37.1412 15.3257 37.0039 15.512 36.8712 15.7005L38.5064 16.8521ZM39.6497 15.4336C39.7862 15.285 39.9265 15.1385 40.0706 14.9944L38.6564 13.5802C38.4922 13.7444 38.3323 13.9113 38.1767 14.0807L39.6497 15.4336ZM40.0706 14.9944C40.2343 14.8307 40.401 14.672 40.5705 14.5181L39.2262 13.0373C39.0329 13.2127 38.8429 13.3937 38.6564 13.5802L40.0706 14.9944ZM41.6355 13.6421C42.0072 13.3657 42.3894 13.1101 42.7805 12.8753L41.751 11.1606C41.3038 11.4291 40.8669 11.7213 40.4422 12.0371L41.6355 13.6421ZM43.9952 12.2255C44.4124 12.0282 44.8373 11.8526 45.2683 11.6988L44.5958 9.81522C44.1031 9.99113 43.6172 10.1919 43.1402 10.4175L43.9952 12.2255ZM46.5874 11.2998C47.0343 11.1883 47.4857 11.0991 47.9397 11.0321L47.6478 9.0535C47.1293 9.13 46.6138 9.23194 46.1033 9.35931L46.5874 11.2998ZM49.3121 10.8977C49.7715 10.8753 50.2318 10.8753 50.6911 10.8977L50.7887 8.90006C50.2643 8.87446 49.7389 8.87446 49.2146 8.90006L49.3121 10.8977ZM52.0635 11.0321C52.5176 11.0991 52.9689 11.1883 53.4158 11.2998L53.9 9.35931C53.3894 9.23194 52.8739 9.13 52.3554 9.0535L52.0635 11.0321ZM54.735 11.6988C55.166 11.8526 55.5909 12.0282 56.0081 12.2255L56.8631 10.4175C56.386 10.1919 55.9002 9.99113 55.4075 9.81522L54.735 11.6988ZM57.2228 12.8753C57.6139 13.1101 57.996 13.3657 58.3677 13.6421L59.5611 12.0371C59.1364 11.7213 58.6995 11.4291 58.2522 11.1606L57.2228 12.8753ZM59.4328 14.5181C59.6022 14.672 59.7689 14.8307 59.9326 14.9944L61.3468 13.5802C61.1604 13.3937 60.9704 13.2127 60.7771 13.0373L59.4328 14.5181ZM59.9326 14.9944C60.0766 15.1384 60.2167 15.2846 60.353 15.4331L61.826 14.0802C61.6706 13.9109 61.5108 13.7442 61.3468 13.5802L59.9326 14.9944ZM61.1352 16.3615C61.2592 16.5223 61.3792 16.6851 61.4953 16.8499L63.1303 15.698C62.9976 15.5097 62.8605 15.3236 62.7188 15.14L61.1352 16.3615ZM61.4953 16.8499C61.7086 17.1527 61.9618 17.4182 62.2435 17.6422L63.4884 16.0769C63.3524 15.9687 63.2315 15.8417 63.1303 15.698L61.4953 16.8499ZM64.2268 18.4639C64.5844 18.5047 64.9512 18.496 65.3162 18.4327L64.9747 16.4621C64.8016 16.4921 64.6263 16.4965 64.4536 16.4768L64.2268 18.4639ZM65.3162 18.4327C65.5146 18.3984 65.7145 18.3681 65.9158 18.3422L65.6599 16.3586C65.43 16.3883 65.2016 16.4228 64.9747 16.4621L65.3162 18.4327ZM67.1247 18.2388C67.3259 18.2303 67.5283 18.226 67.7318 18.226V16.226C67.5 16.226 67.2693 16.2309 67.0398 16.2406L67.1247 18.2388ZM67.7318 18.226C67.9633 18.226 68.1934 18.2315 68.422 18.2426L68.5186 16.2449C68.2579 16.2323 67.9955 16.226 67.7318 16.226V18.226ZM69.7946 18.3762C70.2529 18.4436 70.7038 18.5332 71.1464 18.6437L71.6309 16.7033C71.1248 16.5769 70.6093 16.4746 70.0857 16.3975L69.7946 18.3762ZM72.4648 19.0431C72.8993 19.1986 73.3239 19.3749 73.7375 19.5709L74.5938 17.7635C74.1211 17.5395 73.6356 17.3379 73.1387 17.1601L72.4648 19.0431ZM74.9523 20.2216C75.3472 20.4587 75.7295 20.7148 76.0979 20.9885L77.2906 19.383C76.8698 19.0704 76.4332 18.778 75.9822 18.5071L74.9523 20.2216ZM77.1633 21.8638C77.504 22.1728 77.8295 22.4983 78.1385 22.839L79.62 21.4954C79.2673 21.1065 78.8958 20.735 78.5069 20.3823L77.1633 21.8638ZM79.0139 23.9044C79.2876 24.2729 79.5436 24.6551 79.7808 25.05L81.4953 24.0202C81.2243 23.5691 80.9319 23.1325 80.6193 22.7118L79.0139 23.9044ZM80.4314 26.2648C80.6274 26.6784 80.8037 27.103 80.9592 27.5375L82.8422 26.8636C82.6644 26.3668 82.4628 25.8813 82.2388 25.4085L80.4314 26.2648ZM81.3586 28.856C81.4691 29.2985 81.5587 29.7495 81.6261 30.2077L83.6048 29.9167C83.5278 29.393 83.4254 28.8775 83.299 28.3714L81.3586 28.856ZM81.7597 31.5803C81.7708 31.8089 81.7764 32.039 81.7764 32.2705H83.7764C83.7764 32.0068 83.77 31.7445 83.7574 31.4837L81.7597 31.5803ZM81.7764 32.2705C81.7764 32.4741 81.772 32.6767 81.7635 32.8781L83.7617 32.963C83.7714 32.7334 83.7764 32.5025 83.7764 32.2705H81.7764ZM81.66 34.0879C81.634 34.2893 81.6037 34.4894 81.5693 34.688L83.5399 35.0297C83.5792 34.8027 83.6138 34.5741 83.6435 34.344L81.66 34.0879ZM81.5693 34.688C81.506 35.053 81.4972 35.4197 81.538 35.7773L83.5251 35.5508C83.5054 35.3781 83.5098 35.2028 83.5399 35.0297L81.5693 34.688ZM82.3593 37.7607C82.5833 38.0424 82.8488 38.2956 83.1516 38.509L84.3037 36.8742C84.16 36.773 84.033 36.6521 83.9248 36.5161L82.3593 37.7607ZM83.1516 38.509C83.3161 38.625 83.4788 38.745 83.6394 38.8689L84.8611 37.2854C84.6777 37.1438 84.4918 37.0068 84.3037 36.8742L83.1516 38.509ZM84.567 39.6504C84.7153 39.7866 84.8614 39.9266 85.0052 40.0704L86.4194 38.6562C86.2556 38.4924 86.089 38.3328 85.9199 38.1774L84.567 39.6504ZM85.0052 40.0704C85.1689 40.2341 85.3277 40.4008 85.4815 40.5703L86.9624 39.226C86.7869 39.0327 86.6059 38.8427 86.4194 38.6562L85.0052 40.0704ZM86.3576 41.6353C86.6339 42.007 86.8895 42.3892 87.1243 42.7803L88.839 41.7508C88.5705 41.3036 88.2783 40.8667 87.9625 40.442L86.3576 41.6353ZM87.7741 43.995C87.9714 44.4122 88.147 44.8371 88.3009 45.2681L90.1844 44.5956C90.0085 44.1029 89.8077 43.6171 89.5821 43.14L87.7741 43.995ZM88.6998 46.5872C88.8113 47.0341 88.9006 47.4855 88.9675 47.9396L90.9461 47.6476C90.8696 47.1291 90.7677 46.6136 90.6403 46.1031L88.6998 46.5872ZM89.1019 49.3119C89.1244 49.7713 89.1244 50.2316 89.1019 50.691L91.0996 50.7885C91.1252 50.2641 91.1252 49.7387 91.0996 49.2144L89.1019 49.3119ZM88.9675 52.0633C88.9006 52.5174 88.8113 52.9688 88.6998 53.4156L90.6403 53.8998C90.7677 53.3892 90.8696 52.8737 90.9461 52.3552L88.9675 52.0633ZM88.3009 54.7348C88.147 55.1658 87.9714 55.5907 87.7741 56.0079L89.5821 56.8629C89.8077 56.3858 90.0085 55.9 90.1844 55.4073L88.3009 54.7348ZM87.1243 57.2226C86.8895 57.6137 86.6339 57.9958 86.3576 58.3675L87.9625 59.5609C88.2783 59.1362 88.5705 58.6993 88.839 58.252L87.1243 57.2226ZM85.4815 59.4326C85.3277 59.6021 85.1689 59.7687 85.0052 59.9324L86.4194 61.3466C86.6059 61.1602 86.7869 60.9702 86.9624 60.7769L85.4815 59.4326ZM85.0052 59.9324C84.8614 60.0763 84.7153 60.2163 84.567 60.3525L85.9199 61.8254C86.0891 61.6701 86.2556 61.5105 86.4194 61.3466L85.0052 59.9324ZM83.6395 61.1339C83.4789 61.2579 83.3162 61.3778 83.1516 61.4938L84.3037 63.1286C84.4919 62.996 84.6777 62.859 84.8612 62.7174L83.6395 61.1339ZM83.1516 61.4938C82.8488 61.7072 82.5834 61.9603 82.3594 62.2421L83.9249 63.4867C84.0331 63.3507 84.1601 63.2298 84.3037 63.1286L83.1516 61.4938ZM81.5381 64.2254C81.4973 64.583 81.5061 64.9497 81.5693 65.3147L83.5399 64.973C83.5099 64.7999 83.5055 64.6246 83.5252 64.4519L81.5381 64.2254ZM81.5693 65.3147C81.6038 65.5132 81.634 65.7133 81.66 65.9147L83.6436 65.6586C83.6139 65.4286 83.5793 65.2 83.5399 64.973L81.5693 65.3147ZM81.7635 67.1242C81.772 67.3256 81.7764 67.5281 81.7764 67.7317H83.7764C83.7764 67.4998 83.7714 67.2689 83.7617 67.0393L81.7635 67.1242ZM81.7764 67.7317C81.7764 67.9632 81.7708 68.1933 81.7597 68.4219L83.7574 68.5185C83.77 68.2577 83.7764 67.9954 83.7764 67.7317H81.7764ZM81.6261 69.7945C81.5587 70.2527 81.4691 70.7037 81.3586 71.1462L83.299 71.6308C83.4254 71.1247 83.5278 70.6092 83.6048 70.0855L81.6261 69.7945ZM80.9592 72.4647C80.8037 72.8992 80.6274 73.3238 80.4314 73.7374L82.2388 74.5937C82.4628 74.1209 82.6644 73.6354 82.8422 73.1386L80.9592 72.4647ZM79.7808 74.9522C79.5436 75.3471 79.2876 75.7293 79.0138 76.0978L80.6193 77.2904C80.9319 76.8697 81.2243 76.4331 81.4953 75.982L79.7808 74.9522ZM78.1385 77.1632C77.8295 77.5039 77.504 77.8294 77.1633 78.1384L78.5069 79.6199C78.8958 79.2672 79.2673 78.8957 79.62 78.5068L78.1385 77.1632ZM76.0979 79.0137C75.7295 79.2874 75.3472 79.5435 74.9523 79.7806L75.9821 81.4951C76.4332 81.2242 76.8698 80.9318 77.2905 80.6192L76.0979 79.0137ZM73.7375 80.4313C73.3239 80.6273 72.8993 80.8036 72.4648 80.9591L73.1387 82.8421C73.6355 82.6643 74.1211 82.4627 74.5938 82.2387L73.7375 80.4313ZM71.1464 81.3585C70.7038 81.469 70.2529 81.5586 69.7946 81.626L70.0857 83.6047C70.6093 83.5276 71.1248 83.4253 71.6309 83.2989L71.1464 81.3585ZM68.422 81.7596C68.1934 81.7707 67.9633 81.7762 67.7318 81.7762V83.7762C67.9955 83.7762 68.2578 83.7699 68.5186 83.7573L68.422 81.7596ZM67.7318 81.7762C67.5284 81.7762 67.326 81.7719 67.1248 81.7634L67.04 83.7616C67.2694 83.7713 67.5001 83.7762 67.7318 83.7762V81.7762ZM65.9162 81.6601C65.715 81.6341 65.5151 81.6039 65.3167 81.5695L64.9753 83.5402C65.2021 83.5795 65.4305 83.614 65.6603 83.6436L65.9162 81.6601ZM65.3167 81.5695C64.9517 81.5063 64.5849 81.4976 64.2273 81.5384L64.4541 83.5255C64.6268 83.5058 64.8022 83.5102 64.9753 83.5402L65.3167 81.5695ZM62.2439 82.3602C61.9622 82.5842 61.7091 82.8498 61.4958 83.1526L63.1308 84.3044C63.232 84.1607 63.3529 84.0336 63.4889 83.9254L62.2439 82.3602ZM61.4958 83.1526C61.3797 83.3174 61.2596 83.4803 61.1355 83.6412L62.7192 84.8626C62.8609 84.6789 62.9981 84.4928 63.1308 84.3044L61.4958 83.1526ZM60.3532 84.57C60.2168 84.7184 60.0766 84.8648 59.9326 85.0088L61.3468 86.423C61.5109 86.2589 61.6707 86.0922 61.8262 85.9228L60.3532 84.57ZM59.9326 85.0088C59.7689 85.1725 59.6022 85.3312 59.4328 85.4851L60.7771 86.9659C60.9704 86.7904 61.1604 86.6095 61.3468 86.423L59.9326 85.0088ZM58.3677 86.3611C57.996 86.6375 57.6139 86.893 57.2228 87.1278L58.2522 88.8425C58.6995 88.574 59.1363 88.2819 59.5611 87.9661L58.3677 86.3611ZM56.008 87.7777C55.5909 87.9749 55.166 88.1505 54.735 88.3044L55.4075 90.188C55.9001 90.012 56.386 89.8113 56.8631 89.5857L56.008 87.7777ZM53.4158 88.7033C52.9689 88.8148 52.5176 88.9041 52.0635 88.9711L52.3554 90.9497C52.8739 90.8732 53.3894 90.7712 53.9 90.6439L53.4158 88.7033ZM50.6911 89.1055C50.2318 89.1279 49.7715 89.1279 49.3121 89.1055L49.2145 91.1031C49.7389 91.1287 50.2643 91.1287 50.7887 91.1031L50.6911 89.1055ZM47.9397 88.9711C47.4857 88.9041 47.0343 88.8148 46.5874 88.7033L46.1033 90.6439C46.6138 90.7712 47.1293 90.8732 47.6478 90.9497L47.9397 88.9711ZM45.2683 88.3044C44.8373 88.1505 44.4124 87.9749 43.9952 87.7777L43.1402 89.5857C43.6172 89.8113 44.1031 90.012 44.5958 90.188L45.2683 88.3044ZM42.7805 87.1278C42.3894 86.893 42.0072 86.6375 41.6355 86.3611L40.4422 87.9661C40.8669 88.2819 41.3038 88.574 41.751 88.8425L42.7805 87.1278ZM40.5704 85.4851C40.401 85.3312 40.2343 85.1725 40.0706 85.0088L38.6564 86.423C38.8429 86.6095 39.0329 86.7904 39.2262 86.9659L40.5704 85.4851ZM40.0706 85.0088C39.9266 84.8647 39.7864 84.7184 39.65 84.5699L38.177 85.9228C38.3325 86.0921 38.4923 86.2589 38.6564 86.423L40.0706 85.0088ZM38.8676 83.6411C38.7435 83.4802 38.6234 83.3173 38.5073 83.1525L36.8723 84.3042C37.005 84.4926 37.1422 84.6787 37.2839 84.8625L38.8676 83.6411ZM38.5073 83.1525C38.294 82.8496 38.0409 82.5841 37.7592 82.36L36.5142 83.9252C36.6502 84.0334 36.7711 84.1605 36.8723 84.3042L38.5073 83.1525ZM35.7758 81.5382C35.4182 81.4974 35.0515 81.5061 34.6864 81.5693L35.0278 83.54C35.2009 83.51 35.3763 83.5056 35.549 83.5253L35.7758 81.5382ZM34.6864 81.5693C34.488 81.6037 34.2882 81.6339 34.0869 81.6598L34.3428 83.6434C34.5726 83.6138 34.801 83.5792 35.0278 83.54L34.6864 81.5693ZM32.8783 81.7631C32.6771 81.7717 32.4748 81.776 32.2714 81.776V83.776C32.5031 83.776 32.7337 83.7711 32.9632 83.7613L32.8783 81.7631ZM32.2714 81.776C32.0399 81.776 31.8097 81.7704 31.5811 81.7594L31.4846 83.757C31.7453 83.7696 32.0076 83.776 32.2714 83.776V81.776ZM30.2086 81.6257C29.7503 81.5583 29.2994 81.4688 28.8568 81.3583L28.3723 83.2987C28.8783 83.4251 29.3939 83.5274 29.9175 83.6044L30.2086 81.6257ZM27.5384 80.9588C27.1039 80.8033 26.6793 80.627 26.2657 80.4311L25.4094 82.2385C25.8821 82.4625 26.3676 82.6641 26.8645 82.8419L27.5384 80.9588ZM25.0508 79.7804C24.656 79.5432 24.2737 79.2872 23.9053 79.0135L22.7126 80.619C23.1333 80.9315 23.5699 81.224 24.021 81.4949L25.0508 79.7804ZM22.8398 78.1381C22.4991 77.8291 22.1737 77.5037 21.8647 77.163L20.3832 78.5065C20.7359 78.8954 21.1074 79.2669 21.4963 79.6196L22.8398 78.1381ZM20.9893 76.0975C20.7156 75.7291 20.4596 75.3468 20.2224 74.952L18.5079 75.9818C18.7788 76.4329 19.0713 76.8695 19.3838 77.2902L20.9893 76.0975ZM19.5717 73.7371C19.3758 73.3235 19.1995 72.8989 19.044 72.4644L17.1609 73.1383C17.3387 73.6352 17.5403 74.1207 17.7643 74.5934L19.5717 73.7371ZM18.6445 71.146C18.534 70.7034 18.4445 70.2525 18.3771 69.7942L16.3984 70.0853C16.4754 70.6089 16.5777 71.1245 16.7041 71.6306L18.6445 71.146ZM18.2435 68.4217C18.2324 68.1931 18.2268 67.9629 18.2268 67.7314H16.2268C16.2268 67.9952 16.2332 68.2575 16.2458 68.5182L18.2435 68.4217ZM18.2268 67.7314C18.2268 67.528 18.2311 67.3256 18.2397 67.1244L16.2415 67.0395C16.2317 67.269 16.2268 67.4997 16.2268 67.7314H18.2268ZM18.343 65.9157C18.3689 65.7145 18.3992 65.5146 18.4335 65.3162L16.4629 64.9748C16.4236 65.2016 16.3891 65.43 16.3594 65.6599L18.343 65.9157ZM18.4335 65.3162C18.4968 64.9512 18.5055 64.5844 18.4647 64.2268L16.4776 64.4536C16.4973 64.6263 16.4929 64.8017 16.4629 64.9748L18.4335 65.3162ZM17.643 62.2435C17.4189 61.9618 17.1534 61.7087 16.8505 61.4953L15.6987 63.1304C15.8424 63.2316 15.9695 63.3524 16.0777 63.4884L17.643 62.2435ZM16.8505 61.4953C16.6858 61.3793 16.5229 61.2592 16.3621 61.1352L15.1406 62.7188C15.3243 62.8605 15.5104 62.9977 15.6987 63.1304L16.8505 61.4953ZM15.4335 60.3529C15.285 60.2166 15.1388 60.0764 14.9948 59.9324L13.5806 61.3466C13.7446 61.5107 13.9113 61.6704 14.0806 61.8259L15.4335 60.3529Z" fill="#AAAEC9" mask="url(#path-1-inside-1_637_27345)"/>
<path fill-rule="evenodd" clip-rule="evenodd" d="M62.2909 56.1664L62.5586 56.8919C62.5854 57.0327 62.5994 57.1762 62.6 57.3206C62.6017 57.7262 62.498 58.1255 62.2988 58.4783C62.0996 58.8311 61.8117 59.1253 61.4635 59.3305C61.1152 59.5358 60.7182 59.6446 60.3144 59.6455L55.2298 59.6455C54.9626 60.7588 54.3547 61.7634 53.4866 62.5113C52.5137 63.3495 51.2775 63.8106 49.9987 63.8106C48.7199 63.8106 47.4838 63.3495 46.5109 62.5113C45.6428 61.7634 45.0348 60.7588 44.7677 59.6455H39.6879C39.2838 59.6452 38.8874 59.5368 38.5387 59.3318C38.19 59.1268 37.9017 58.8326 37.7021 58.4797C37.5025 58.1268 37.3985 57.7273 37.4 57.3214C37.4016 56.9156 37.5086 56.5171 37.7107 56.1658C38.3853 54.9879 39.4614 51.489 39.4614 46.8705C39.4614 44.0394 40.5702 41.3229 42.5461 39.3189C44.5221 37.3147 47.2037 36.1875 50.0013 36.1875C52.7989 36.1875 55.4805 37.3147 57.4566 39.3189C59.4324 41.3229 60.5412 44.0394 60.5412 46.8705C60.5412 51.4886 61.6164 54.9891 62.2909 56.1664ZM61.8704 56.4095L61.8694 56.4078C61.9999 56.6343 62.0801 56.8859 62.1062 57.1455C62.0976 57.0599 62.0831 56.9752 62.0629 56.8919C62.0219 56.7233 61.9572 56.5608 61.8704 56.4095ZM60.1165 48.7674C60.3534 52.5025 61.242 55.3122 61.8694 56.4078L61.8701 56.4067L61.8691 56.405C61.7917 56.2698 61.7104 56.1085 61.6268 55.9227C61.0325 54.6017 60.3241 52.0402 60.1165 48.7674Z" fill="#D8DAE9"/>
</svg>
