<svg width="126" height="125" viewBox="0 0 126 125" fill="none" xmlns="http://www.w3.org/2000/svg">
<rect x="0.943848" width="125" height="125" rx="30" fill="url(#paint0_linear_633_23799)"/>
<path d="M41.1941 36.833V89.7217" stroke="#768DFF" stroke-width="11"/>
<path d="M87.3047 89.7212L41.1936 36.833" stroke="#768DFF" stroke-width="11"/>
<path d="M87.3047 36.833V89.7217" stroke="#768DFF" stroke-width="11"/>
<path fill-rule="evenodd" clip-rule="evenodd" d="M75.1823 90.2218C75.3941 90.4336 75.6198 90.6229 75.8566 90.7897C76.1618 91.0047 76.3187 91.3834 76.2549 91.7512C76.2055 92.0365 76.1797 92.3299 76.1797 92.6293C76.1797 95.4497 78.4662 97.7362 81.2867 97.7362C81.586 97.7362 81.8794 97.7104 82.1647 97.661C82.5325 97.5973 82.9112 97.7541 83.1262 98.0593C83.293 98.2961 83.4823 98.5218 83.6941 98.7336C85.6885 100.728 88.922 100.728 90.9164 98.7336C91.1281 98.5218 91.3174 98.296 91.4843 98.0593C91.6993 97.754 92.078 97.5972 92.4459 97.6609C92.7312 97.7104 93.0246 97.7361 93.3241 97.7361C96.1446 97.7361 98.431 95.4497 98.431 92.6292C98.431 92.3296 98.4052 92.036 98.3557 91.7506C98.2919 91.3828 98.4487 91.0041 98.7538 90.789C98.9903 90.6224 99.2157 90.4333 99.4272 90.2218C101.422 88.2274 101.422 84.9939 99.4272 82.9995C99.2157 82.788 98.9903 82.5989 98.7538 82.4323C98.4487 82.2172 98.2919 81.8385 98.3557 81.4707C98.4052 81.1852 98.431 80.8915 98.431 80.5918C98.431 77.7714 96.1446 75.4849 93.3241 75.4849C93.0246 75.4849 92.7312 75.5107 92.4459 75.5602C92.078 75.6239 91.6993 75.467 91.4843 75.1618C91.3174 74.925 91.1281 74.6993 90.9164 74.4875C88.922 72.4931 85.6885 72.4931 83.6941 74.4875C83.4821 74.6995 83.2926 74.9256 83.1256 75.1626C82.9106 75.4679 82.5319 75.6248 82.1641 75.5611C81.879 75.5118 81.5858 75.4861 81.2867 75.4861C78.4662 75.4861 76.1797 77.7725 76.1797 80.593C76.1797 80.8921 76.2055 81.1853 76.2548 81.4703C76.3185 81.8381 76.1616 82.2167 75.8565 82.4317C75.6198 82.5985 75.3941 82.7878 75.1823 82.9995C73.1879 84.9939 73.1879 88.2274 75.1823 90.2218Z" fill="#DBE1FF"/>
<circle cx="41.1941" cy="37.9993" r="12.8333" fill="#BFCAFF"/>
<path d="M29.07 79.9167C29.2964 77.0081 31.5906 74.7138 34.4992 74.4875C36.6726 74.3183 39.1798 74.167 41.1939 74.167C43.208 74.167 45.7152 74.3183 47.8886 74.4875C50.7972 74.7138 53.0915 77.0081 53.3178 79.9167C53.487 82.0901 53.6383 84.5973 53.6383 86.6114C53.6383 88.6255 53.487 91.1327 53.3178 93.3061C53.0915 96.2147 50.7972 98.5089 47.8886 98.7353C45.7152 98.9045 43.208 99.0558 41.1939 99.0558C39.1798 99.0558 36.6726 98.9045 34.4992 98.7353C31.5906 98.5089 29.2964 96.2147 29.07 93.3061C28.9008 91.1327 28.7495 88.6255 28.7495 86.6114C28.7495 84.5973 28.9008 82.0901 29.07 79.9167Z" fill="#9AABFF"/>
<path d="M99.1912 35.4003C100.972 36.722 100.972 39.2766 99.1912 40.5983C97.142 42.1189 94.2968 44.1061 91.0839 45.9972C87.9059 47.8676 84.6927 49.4252 82.2471 50.5254C80.112 51.4859 77.7495 50.091 77.5731 47.778C77.3791 45.2332 77.1938 41.8071 77.1938 37.9993C77.1938 34.1915 77.3791 30.7654 77.5731 28.2206C77.7495 25.9077 80.112 24.5128 82.2471 25.4733C84.6927 26.5734 87.9059 28.131 91.0839 30.0014C94.2968 31.8925 97.142 33.8797 99.1912 35.4003Z" fill="white"/>
<defs>
<linearGradient id="paint0_linear_633_23799" x1="21.9438" y1="125" x2="119.944" y2="2.50001" gradientUnits="userSpaceOnUse">
<stop stop-color="#6781FF"/>
<stop offset="1" stop-color="#3657FF"/>
</linearGradient>
</defs>
</svg>
