<svg width="30" height="30" viewBox="0 0 30 30" fill="none" xmlns="http://www.w3.org/2000/svg">
<path d="M7.9435 13.5322H10.0604V22H7.9435C7.75635 22 7.57687 21.9257 7.44453 21.7933C7.3122 21.661 7.23785 21.4815 7.23785 21.2944V14.2379C7.23785 14.0507 7.3122 13.8713 7.44453 13.7389C7.57687 13.6066 7.75635 13.5322 7.9435 13.5322ZM11.6785 12.6198L16.1946 8.1037C16.2547 8.0435 16.3344 8.007 16.4192 8.00091C16.504 7.99481 16.5881 8.01954 16.6561 8.07053L17.258 8.52215C17.4252 8.64764 17.5515 8.81983 17.6209 9.01699C17.6904 9.21415 17.6999 9.42745 17.6483 9.63001L16.8347 12.8266H21.3508C21.7251 12.8266 22.0841 12.9753 22.3487 13.24C22.6134 13.5046 22.7621 13.8636 22.7621 14.2379V15.7226C22.7623 15.907 22.7263 16.0897 22.6562 16.2603L20.4723 21.5632C20.419 21.6925 20.3285 21.803 20.2123 21.8808C20.0961 21.9586 19.9594 22.0001 19.8195 22H12.1774C11.9902 22 11.8107 21.9257 11.6784 21.7933C11.5461 21.661 11.4717 21.4815 11.4717 21.2944V13.1187C11.4718 12.9316 11.5461 12.7521 11.6785 12.6198Z" fill="#3657FF"/>
</svg>
