<svg width="48" height="48" viewBox="0 0 48 48" fill="none" xmlns="http://www.w3.org/2000/svg">
<path d="M24 27.2995C25.8225 27.2995 27.3 25.822 27.3 23.9995C27.3 22.1769 25.8225 20.6995 24 20.6995C22.1774 20.6995 20.7 22.1769 20.7 23.9995C20.7 25.822 22.1774 27.2995 24 27.2995Z" stroke="#1D1F29" stroke-width="2"/>
<path d="M25.9414 13.1665C25.5377 12.9993 25.0251 12.9993 23.9999 12.9993C22.9747 12.9993 22.4621 12.9993 22.0584 13.1665C21.7913 13.277 21.5486 13.4392 21.3442 13.6436C21.1398 13.848 20.9777 14.0907 20.8671 14.3578C20.7659 14.6031 20.7252 14.8902 20.7098 15.3071C20.7026 15.6084 20.6192 15.903 20.4672 16.1633C20.3152 16.4235 20.0997 16.641 19.8408 16.7954C19.5777 16.9425 19.2816 17.0205 18.9801 17.022C18.6786 17.0236 18.3817 16.9486 18.1171 16.8042C17.7475 16.6084 17.4802 16.5006 17.2151 16.4654C16.6369 16.3893 16.0521 16.546 15.5893 16.901C15.2439 17.1683 14.9865 17.6116 14.4739 18.4993C13.9613 19.387 13.7039 19.8303 13.6478 20.2648C13.61 20.5513 13.629 20.8424 13.7038 21.1216C13.7785 21.4007 13.9075 21.6624 14.0834 21.8917C14.2462 22.1029 14.4739 22.28 14.827 22.5022C15.3473 22.8289 15.6817 23.3855 15.6817 23.9993C15.6817 24.6131 15.3473 25.1697 14.827 25.4953C14.4739 25.7186 14.2451 25.8957 14.0834 26.1069C13.9075 26.3361 13.7785 26.5978 13.7038 26.877C13.629 27.1561 13.61 27.4473 13.6478 27.7338C13.705 28.1672 13.9613 28.6116 14.4728 29.4993C14.9865 30.387 15.2428 30.8303 15.5893 31.0976C15.8186 31.2735 16.0803 31.4025 16.3594 31.4772C16.6386 31.552 16.9297 31.571 17.2162 31.5332C17.4802 31.498 17.7475 31.3902 18.1171 31.1944C18.3817 31.0499 18.6786 30.9749 18.9801 30.9765C19.2816 30.978 19.5777 31.056 19.8408 31.2032C20.3721 31.5112 20.6878 32.0777 20.7098 32.6915C20.7252 33.1095 20.7648 33.3955 20.8671 33.6408C20.9777 33.9079 21.1398 34.1506 21.3442 34.355C21.5486 34.5594 21.7913 34.7215 22.0584 34.8321C22.4621 34.9993 22.9747 34.9993 23.9999 34.9993C25.0251 34.9993 25.5377 34.9993 25.9414 34.8321C26.2085 34.7215 26.4512 34.5594 26.6556 34.355C26.86 34.1506 27.0221 33.9079 27.1327 33.6408C27.2339 33.3955 27.2746 33.1095 27.29 32.6915C27.312 32.0777 27.6277 31.5101 28.159 31.2032C28.4221 31.056 28.7183 30.978 29.0197 30.9765C29.3212 30.9749 29.6181 31.0499 29.8827 31.1944C30.2523 31.3902 30.5196 31.498 30.7836 31.5332C31.0701 31.571 31.3612 31.552 31.6404 31.4772C31.9195 31.4025 32.1812 31.2735 32.4105 31.0976C32.757 30.8314 33.0133 30.387 33.5259 29.4993C34.0385 28.6116 34.2959 28.1683 34.352 27.7338C34.3898 27.4473 34.3708 27.1561 34.2961 26.877C34.2213 26.5978 34.0923 26.3361 33.9164 26.1069C33.7536 25.8957 33.5259 25.7186 33.1728 25.4964C32.9153 25.3395 32.7019 25.1199 32.5524 24.858C32.4029 24.5962 32.3223 24.3007 32.3181 23.9993C32.3181 23.3855 32.6525 22.8289 33.1728 22.5033C33.5259 22.28 33.7547 22.1029 33.9164 21.8917C34.0923 21.6624 34.2213 21.4007 34.2961 21.1216C34.3708 20.8424 34.3898 20.5513 34.352 20.2648C34.2948 19.8314 34.0385 19.387 33.527 18.4993C33.0133 17.6116 32.757 17.1683 32.4105 16.901C32.1812 16.7251 31.9195 16.5961 31.6404 16.5213C31.3612 16.4466 31.0701 16.4276 30.7836 16.4654C30.5196 16.5006 30.2523 16.6084 29.8816 16.8042C29.6171 16.9484 29.3204 17.0233 29.0192 17.0217C28.7179 17.0202 28.422 16.9423 28.159 16.7954C27.9001 16.641 27.6846 16.4235 27.5326 16.1633C27.3806 15.903 27.2972 15.6084 27.29 15.3071C27.2746 14.8891 27.235 14.6031 27.1327 14.3578C27.0221 14.0907 26.86 13.848 26.6556 13.6436C26.4512 13.4392 26.2085 13.277 25.9414 13.1665Z" stroke="#1D1F29" stroke-width="2"/>
</svg>
