<svg width="48" height="48" viewBox="0 0 48 48" fill="none" xmlns="http://www.w3.org/2000/svg">
<path fill-rule="evenodd" clip-rule="evenodd" d="M26 16.8C26 17.9046 25.1046 18.8 24 18.8C22.8954 18.8 22 17.9046 22 16.8C22 15.6955 22.8954 14.8 24 14.8C25.1046 14.8 26 15.6955 26 16.8ZM26 24.0001C26 25.1046 25.1046 26.0001 24 26.0001C22.8954 26.0001 22 25.1046 22 24.0001C22 22.8955 22.8954 22.0001 24 22.0001C25.1046 22.0001 26 22.8955 26 24.0001ZM24 33.2001C25.1046 33.2001 26 32.3046 26 31.2001C26 30.0955 25.1046 29.2001 24 29.2001C22.8954 29.2001 22 30.0955 22 31.2001C22 32.3046 22.8954 33.2001 24 33.2001Z" fill="white"/>
</svg>
