<svg width="40" height="41" viewBox="0 0 40 41" fill="none" xmlns="http://www.w3.org/2000/svg">
<path fill-rule="evenodd" clip-rule="evenodd" d="M9.00257 17.7939C9.01643 17.5967 9.08845 17.408 9.20952 17.2517C9.3306 17.0953 9.4953 16.9784 9.6828 16.9157L28.7747 10.5517C28.951 10.4927 29.1403 10.484 29.3213 10.5266C29.5022 10.5692 29.6678 10.6614 29.7992 10.7929C29.9307 10.9244 30.0229 11.0899 30.0655 11.2709C30.1081 11.4519 30.0994 11.6411 30.0404 11.8174L23.6764 30.9093C23.6139 31.097 23.4971 31.262 23.3409 31.3833C23.1846 31.5046 22.9958 31.5769 22.7985 31.5909C22.6011 31.6049 22.404 31.56 22.2322 31.462C22.0603 31.364 21.9214 31.2171 21.833 31.0401L18.2112 23.7951L22.0204 19.9859C22.2079 19.7984 22.3133 19.5441 22.3133 19.2788C22.3133 19.0136 22.2079 18.7593 22.0204 18.5717C21.8329 18.3842 21.5785 18.2788 21.3133 18.2788C21.0481 18.2788 20.7937 18.3842 20.6062 18.5717L16.797 22.3809L9.55128 18.7598C9.37456 18.6713 9.22805 18.5323 9.13026 18.3605C9.03247 18.1887 8.98849 17.9911 9.00257 17.7939Z" fill="#1D1F29"/>
</svg>
