<svg width="48" height="48" viewBox="0 0 48 48" fill="none" xmlns="http://www.w3.org/2000/svg">
<path fill-rule="evenodd" clip-rule="evenodd" d="M15.4697 16.5303C15.1768 16.2374 15.1768 15.7626 15.4697 15.4697C15.7626 15.1768 16.2374 15.1768 16.5303 15.4697L24 22.9393L31.4697 15.4697C31.7626 15.1768 32.2374 15.1768 32.5303 15.4697C32.8232 15.7626 32.8232 16.2374 32.5303 16.5303L25.0607 24L32.5303 31.4697C32.8232 31.7626 32.8232 32.2374 32.5303 32.5303C32.2374 32.8232 31.7626 32.8232 31.4697 32.5303L24 25.0607L16.5303 32.5303C16.2374 32.8232 15.7626 32.8232 15.4697 32.5303C15.1768 32.2374 15.1768 31.7626 15.4697 31.4697L22.9393 24L15.4697 16.5303Z" fill="#1D1F29"/>
</svg>
