<svg width="40" height="41" viewBox="0 0 40 41" fill="none" xmlns="http://www.w3.org/2000/svg">
<path fill-rule="evenodd" clip-rule="evenodd" d="M21.25 16C21.25 16.6904 20.6904 17.25 20 17.25C19.3096 17.25 18.75 16.6904 18.75 16C18.75 15.3096 19.3096 14.75 20 14.75C20.6904 14.75 21.25 15.3096 21.25 16ZM21.25 20.5002C21.25 21.1905 20.6903 21.7502 20 21.7502C19.3096 21.7502 18.75 21.1905 18.75 20.5002C18.75 19.8098 19.3096 19.2502 20 19.2502C20.6903 19.2502 21.25 19.8098 21.25 20.5002ZM20 26.2501C20.6903 26.2501 21.25 25.6905 21.25 25.0001C21.25 24.3098 20.6903 23.7501 20 23.7501C19.3096 23.7501 18.75 24.3098 18.75 25.0001C18.75 25.6905 19.3096 26.2501 20 26.2501Z" fill="#1D1F29"/>
</svg>
