<svg width="40" height="40" viewBox="0 0 40 40" fill="none" xmlns="http://www.w3.org/2000/svg">
<path fill-rule="evenodd" clip-rule="evenodd" d="M24.3683 18.8687C24.3683 21.9061 21.9061 24.3683 18.8687 24.3683C15.8314 24.3683 13.3691 21.9061 13.3691 18.8687C13.3691 15.8314 15.8314 13.3691 18.8687 13.3691C21.9061 13.3691 24.3683 15.8314 24.3683 18.8687ZM23.2595 24.3203C22.0587 25.2886 20.5314 25.8683 18.8687 25.8683C15.003 25.8683 11.8691 22.7345 11.8691 18.8687C11.8691 15.003 15.003 11.8691 18.8687 11.8691C22.7345 11.8691 25.8683 15.003 25.8683 18.8687C25.8683 20.5315 25.2886 22.0588 24.3201 23.2596L27.7987 26.7382C28.0916 27.0311 28.0916 27.506 27.7987 27.7989C27.5058 28.0918 27.0309 28.0918 26.738 27.7989L23.2595 24.3203Z" fill="#1D1F29"/>
</svg>
