<svg width="24" height="24" viewBox="0 0 24 24" fill="none" xmlns="http://www.w3.org/2000/svg">
<circle cx="12" cy="12" r="9" fill="#D8DAE9"/>
<path fill-rule="evenodd" clip-rule="evenodd" d="M8.12402 8.72219C7.9587 8.55687 7.9587 8.28883 8.12402 8.1235C8.28934 7.95818 8.55739 7.95818 8.72271 8.1235L12 11.4008L15.2774 8.1235C15.4427 7.95818 15.7107 7.95818 15.876 8.1235C16.0414 8.28883 16.0414 8.55687 15.876 8.72219L12.5987 11.9995L15.876 15.2768C16.0414 15.4422 16.0414 15.7102 15.876 15.8755C15.7107 16.0408 15.4427 16.0408 15.2774 15.8755L12 12.5982L8.72271 15.8755C8.55739 16.0408 8.28934 16.0408 8.12402 15.8755C7.9587 15.7102 7.9587 15.4422 8.12402 15.2768L11.4013 11.9995L8.12402 8.72219Z" fill="#AAAEC9"/>
</svg>
