<svg width="48" height="49" viewBox="0 0 48 49" fill="none" xmlns="http://www.w3.org/2000/svg">
<path fill-rule="evenodd" clip-rule="evenodd" d="M29.1066 23.2979C29.1066 26.8857 26.1982 29.7941 22.6104 29.7941C19.0226 29.7941 16.1141 26.8857 16.1141 23.2979C16.1141 19.7101 19.0226 16.8016 22.6104 16.8016C26.1982 16.8016 29.1066 19.7101 29.1066 23.2979ZM27.9055 30.0881C26.445 31.2286 24.607 31.9082 22.6104 31.9082C17.855 31.9082 14 28.0532 14 23.2979C14 18.5425 17.855 14.6875 22.6104 14.6875C27.3657 14.6875 31.2207 18.5425 31.2207 23.2979C31.2207 25.2946 30.541 27.1326 29.4004 28.5932L33.6904 32.8832C34.1032 33.296 34.1032 33.9653 33.6904 34.3781C33.2776 34.7909 32.6083 34.7909 32.1955 34.3781L27.9055 30.0881Z" fill="#1D1F29"/>
</svg>
