<svg width="48" height="48" viewBox="0 0 48 48" fill="none" xmlns="http://www.w3.org/2000/svg">
<path fill-rule="evenodd" clip-rule="evenodd" d="M33.7537 29.2913L33.7529 29.2899L33.7529 29.2898H33.7526C33.8612 29.4784 33.9279 29.6881 33.9488 29.9043C33.9418 29.8318 33.9297 29.76 33.9125 29.6894C33.8787 29.5503 33.8254 29.4162 33.7537 29.2913ZM13.959 30.1482C13.9568 30.1142 13.9558 30.0801 13.9559 30.0459C13.957 29.7801 14.0271 29.5193 14.1592 29.2898C14.7615 28.2387 15.6574 25.2752 15.6574 21.4182C15.6574 19.1857 16.5318 17.0446 18.0883 15.466C19.6448 13.8874 21.7558 13.0005 23.957 13.0005C26.1582 13.0005 28.2692 13.8874 29.8257 15.466C31.1936 16.8534 32.0347 18.6752 32.2184 20.6117C32.0348 18.675 31.1937 16.8531 29.8257 15.4656C28.2692 13.887 26.1582 13.0001 23.957 13.0001C21.7558 13.0001 19.6447 13.887 18.0883 15.4656C16.5318 17.0442 15.6574 19.1853 15.6574 21.4178C15.6574 25.2748 14.7614 28.2383 14.1592 29.2894C14.0271 29.5189 13.9569 29.7797 13.9559 30.0455C13.9558 30.0798 13.9568 30.1141 13.959 30.1482ZM32.2987 22.8638C32.4825 26.0064 33.2288 28.3731 33.7533 29.2892L33.7534 29.289L33.7526 29.2876C33.6888 29.176 33.6216 29.0428 33.5526 28.8894C33.0549 27.7831 32.4601 25.6224 32.2987 22.8638ZM34.4439 29.6894H34.3217C34.3439 29.8056 34.3554 29.9241 34.3559 30.0433C34.3573 30.3781 34.2717 30.7076 34.1073 30.9988C33.9428 31.2901 33.7052 31.5329 33.4178 31.7023C33.1304 31.8717 32.8026 31.9615 32.4694 31.9622H28.2725C28.052 32.8812 27.5502 33.7103 26.8337 34.3276C26.0307 35.0195 25.0104 35.4001 23.9548 35.4001C22.8993 35.4001 21.879 35.0195 21.076 34.3276C20.3595 33.7103 19.8577 32.8812 19.6372 31.9622H15.4443C15.1108 31.962 14.7836 31.8725 14.4958 31.7033C14.208 31.5341 13.97 31.2913 13.8052 31C13.6405 30.7087 13.5546 30.379 13.5559 30.044C13.5572 29.709 13.6455 29.3801 13.8124 29.0902C14.3692 28.1179 15.2574 25.2299 15.2574 21.4178C15.2574 19.081 16.1726 16.8388 17.8034 15.1848C19.4345 13.5305 21.6479 12.6001 23.957 12.6001C26.2661 12.6001 28.4795 13.5305 30.1105 15.1848C31.7414 16.8388 32.6566 19.081 32.6566 21.4178C32.6566 25.2296 33.544 28.1189 34.1008 29.0906L34.4439 29.6894ZM30.5797 21.4178C30.5797 25.0857 31.3548 28.2665 32.1572 29.8672H15.7582C16.5607 28.2696 17.3342 25.0853 17.3342 21.4178C17.3342 19.633 18.0333 17.9225 19.276 16.6622C20.5184 15.402 22.2024 14.6951 23.957 14.6951C25.7116 14.6951 27.3955 15.402 28.638 16.6622C29.8806 17.9225 30.5797 19.633 30.5797 21.4178ZM32.4704 30.2672H15.4446C15.4076 30.2677 15.3711 30.2579 15.3392 30.2389C15.3073 30.2199 15.2812 30.1923 15.2637 30.1593C15.2473 30.1306 15.2378 30.0985 15.2356 30.0655C15.2377 30.0986 15.2473 30.1308 15.2637 30.1597C15.2812 30.1927 15.3074 30.2203 15.3393 30.2393C15.3712 30.2583 15.4076 30.2681 15.4446 30.2676H32.4705C32.5075 30.2681 32.5439 30.2583 32.5758 30.2393C32.6077 30.2203 32.6338 30.1927 32.6514 30.1597C32.67 30.1269 32.6799 30.0896 32.6799 30.0518C32.6799 30.05 32.6798 30.0483 32.6798 30.0466C32.6798 30.0482 32.6798 30.0498 32.6798 30.0514C32.6798 30.0892 32.67 30.1265 32.6513 30.1593C32.6338 30.1923 32.6077 30.2199 32.5758 30.2389C32.5439 30.2579 32.5074 30.2677 32.4704 30.2672ZM30.9896 22.1326C30.9831 21.897 30.9797 21.6587 30.9797 21.4182C30.9797 21.3 30.9768 21.1821 30.9711 21.0646C30.9768 21.182 30.9797 21.2997 30.9797 21.4178C30.9797 21.6585 30.9831 21.8968 30.9896 22.1326ZM23.957 33.3206C23.426 33.3204 22.9098 33.1386 22.492 32.8035C22.2092 32.5767 21.9826 32.2885 21.8274 31.9622H26.0865C25.9313 32.2885 25.7047 32.5767 25.4219 32.8035C25.0041 33.1386 24.488 33.3204 23.957 33.3206ZM21.2661 31.5626C21.2981 31.6995 21.3401 31.833 21.3913 31.9622C21.5702 32.4129 21.8623 32.8112 22.2418 33.1156C22.7301 33.5072 23.3344 33.7204 23.957 33.7206C24.5795 33.7204 25.1838 33.5072 25.6722 33.1156C26.0516 32.8112 26.3438 32.4129 26.5226 31.9622C26.5739 31.833 26.6158 31.6995 26.6479 31.5626H26.648C26.5043 32.177 26.1605 32.7243 25.6722 33.116C25.1839 33.5076 24.5796 33.7208 23.957 33.721C23.3344 33.7208 22.7301 33.5076 22.2418 33.116C21.7535 32.7243 21.4097 32.177 21.266 31.5626H21.2661Z" fill="#1D1F29"/>
<circle cx="34.4441" cy="10.0996" r="2.5" fill="#3657FF"/>
</svg>
