<svg width="38" height="38" viewBox="0 0 38 38" fill="none" xmlns="http://www.w3.org/2000/svg">
<path d="M2.77654 9.75731C3.27144 6.11248 6.1124 3.27112 9.75722 2.77619C12.7087 2.3754 16.2163 2 19 2C21.784 2 25.292 2.37548 28.2436 2.7763C31.888 3.2712 34.7288 6.11198 35.2237 9.75639C35.6245 12.708 36 16.216 36 19C36 21.784 35.6245 25.292 35.2237 28.2436C34.7288 31.888 31.888 34.7288 28.2436 35.2237C25.292 35.6245 21.784 36 19 36C16.2163 36 12.7087 35.6246 9.75722 35.2238C6.1124 34.7289 3.27144 31.8875 2.77654 28.2427C2.37563 25.29 2 21.7814 2 19C2 16.2186 2.37563 12.71 2.77654 9.75731Z" fill="#DBE1FF"/>
<path d="M19.0001 18.8347C20.3167 18.8347 21.449 17.6591 21.449 16.1281C21.449 14.6157 20.3105 13.4954 19.0001 13.4954C17.6897 13.4954 16.5508 14.6405 16.5508 16.1405C16.5508 17.6591 17.6835 18.8347 19.0001 18.8347ZM11.9526 18.9753C13.0915 18.9753 14.0837 17.9468 14.0837 16.6183C14.0837 15.3017 13.0853 14.328 11.9526 14.328C10.8136 14.328 9.80949 15.326 9.81568 16.6302C9.81568 17.9468 10.8075 18.9757 11.9526 18.9757M26.0476 18.9757C27.1928 18.9757 28.1845 17.9472 28.1845 16.6306C28.1845 15.3264 27.1866 14.3284 26.0476 14.3284C24.9149 14.3284 23.9165 15.3021 23.9165 16.6183C23.9165 17.9472 24.9087 18.9757 26.0476 18.9757ZM8.53577 24.5046H13.1896C12.5527 23.5801 13.3302 21.7185 14.6468 20.702C13.9666 20.249 13.0915 19.9122 11.9468 19.9122C9.18458 19.9122 7.45825 21.951 7.45825 23.6472C7.45825 24.1984 7.76452 24.5046 8.53577 24.5046ZM29.4644 24.5046C30.2419 24.5046 30.542 24.1984 30.542 23.6472C30.542 21.951 28.8152 19.9122 26.0538 19.9122C24.9087 19.9122 24.0332 20.249 23.3539 20.702C24.67 21.7185 25.4479 23.5801 24.811 24.5046H29.4644ZM15.1484 24.5046H22.8452C23.8065 24.5046 24.1494 24.2289 24.1494 23.6901C24.1494 22.1105 22.1716 19.9308 18.9939 19.9308C15.8224 19.9308 13.8446 22.1105 13.8446 23.6901C13.8446 24.2289 14.1872 24.5046 15.1484 24.5046Z" fill="#3657FF"/>
<path d="M21.4489 16.1279C21.4489 17.6588 20.3166 18.8345 19 18.8345C17.6834 18.8345 16.5506 17.6588 16.5506 16.1403C16.5506 14.6402 17.6896 13.4951 19 13.4951C20.3104 13.4951 21.4489 14.6155 21.4489 16.1279Z" fill="#3657FF"/>
<path d="M22.8451 24.5044H15.1483C14.187 24.5044 13.8445 24.2286 13.8445 23.6899C13.8445 22.1103 15.8223 19.9305 18.9938 19.9305C22.1715 19.9305 24.1493 22.1103 24.1493 23.6899C24.1493 24.2286 23.8063 24.5044 22.8451 24.5044Z" fill="#3657FF"/>
</svg>
