<svg width="38" height="38" viewBox="0 0 38 38" fill="none" xmlns="http://www.w3.org/2000/svg">
<path d="M2.77654 9.75731C3.27144 6.11248 6.1124 3.27112 9.75722 2.77619C12.7087 2.3754 16.2163 2 19 2C21.784 2 25.292 2.37548 28.2436 2.7763C31.888 3.2712 34.7288 6.11198 35.2237 9.75639C35.6245 12.708 36 16.216 36 19C36 21.784 35.6245 25.292 35.2237 28.2436C34.7288 31.888 31.888 34.7288 28.2436 35.2237C25.292 35.6245 21.784 36 19 36C16.2163 36 12.7087 35.6246 9.75722 35.2238C6.1124 34.7289 3.27144 31.8875 2.77654 28.2427C2.37563 25.29 2 21.7814 2 19C2 16.2186 2.37563 12.71 2.77654 9.75731Z" fill="#DBE1FF"/>
<path fill-rule="evenodd" clip-rule="evenodd" d="M20.9038 11.4001H17.0962C13.5072 11.4001 11.7136 11.4001 10.5983 12.5135C9.76424 13.3467 9.5543 14.5588 9.50205 16.6203C9.49445 16.8835 9.71105 17.0953 9.96754 17.1618C10.7845 17.3756 11.3868 18.1175 11.3868 19C11.3867 19.4205 11.2472 19.8291 10.99 20.1617C10.7328 20.4944 10.3725 20.7323 9.96564 20.8382C9.7101 20.9057 9.4935 21.1156 9.50015 21.3807C9.55335 23.4403 9.76235 24.6534 10.5983 25.4865C11.7127 26.5999 13.5072 26.5999 17.0962 26.5999H20.9038C24.4928 26.5999 26.2864 26.5999 27.4017 25.4865C28.2358 24.6534 28.4457 23.4412 28.498 21.3797C28.5056 21.1156 28.289 20.9047 28.0325 20.8382C27.2155 20.6245 26.6132 19.8826 26.6132 19C26.6133 18.5796 26.7528 18.171 27.01 17.8384C27.2672 17.5057 27.6275 17.2678 28.0344 17.1618C28.2899 17.0944 28.5065 16.8835 28.4999 16.6194C28.4467 14.5598 28.2377 13.3467 27.4017 12.5135C26.2873 11.4001 24.4928 11.4001 20.9038 11.4001ZM19.3028 16.2697L20.0083 17.6988C20.0575 17.7984 20.1525 17.8674 20.2625 17.8834L21.8381 18.113C22.115 18.1533 22.2255 18.4936 22.0252 18.6889L20.8845 19.8009C20.805 19.8784 20.7686 19.9902 20.7874 20.0997L21.0564 21.6692C21.1036 21.945 20.8141 22.1554 20.5663 22.0251L19.1571 21.284C19.0587 21.2323 18.9412 21.2323 18.8429 21.284L17.4322 22.0252C17.1844 22.1554 16.8948 21.9448 16.9423 21.6689L17.2124 20.0999C17.2313 19.9903 17.195 19.8784 17.1153 19.8008L15.9748 18.6889C15.7744 18.4936 15.885 18.1533 16.1619 18.113L17.7375 17.8834C17.8475 17.8674 17.9425 17.7984 17.9917 17.6988L18.6972 16.2697C18.8211 16.0188 19.1789 16.0188 19.3028 16.2697Z" fill="#3657FF"/>
</svg>
