<svg width="38" height="38" viewBox="0 0 38 38" fill="none" xmlns="http://www.w3.org/2000/svg">
<path d="M2.77654 9.75731C3.27144 6.11248 6.1124 3.27112 9.75722 2.77619C12.7087 2.3754 16.2163 2 19 2C21.784 2 25.292 2.37548 28.2436 2.7763C31.888 3.2712 34.7288 6.11198 35.2237 9.75639C35.6245 12.708 36 16.216 36 19C36 21.784 35.6245 25.292 35.2237 28.2436C34.7288 31.888 31.888 34.7288 28.2436 35.2237C25.292 35.6245 21.784 36 19 36C16.2163 36 12.7087 35.6246 9.75722 35.2238C6.1124 34.7289 3.27144 31.8875 2.77654 28.2427C2.37563 25.29 2 21.7814 2 19C2 16.2186 2.37563 12.71 2.77654 9.75731Z" fill="#DBE1FF"/>
<path d="M19.4318 13.8181C19.4318 12.8595 20.2005 12.0908 21.1591 12.0908H24.1818C25.1318 12.0908 25.9091 12.8681 25.9091 13.8181V16.9149C24.9073 17.269 25.9091 19.9722 25.9091 21.0949H24.1818H19.4318V13.8181ZM12.4486 21.2175L13.8182 20.9869H18.5682V13.8181C18.5682 12.8595 17.7995 12.0908 16.8409 12.0908H13.8182C12.8682 12.0908 12.0909 12.8681 12.0909 13.8181V16.7982C13.0927 17.1523 12.4486 20.1034 12.4486 21.2175ZM26.4791 16.4349C25.6327 16.5731 25.0455 17.3763 25.0455 18.2399V20.7272H12.9545V18.1363C12.9545 17.6782 12.7726 17.2388 12.4486 16.9149C12.1247 16.591 11.6854 16.409 11.2273 16.409C10.7692 16.409 10.3298 16.591 10.0059 16.9149C9.68198 17.2388 9.5 17.6782 9.5 18.1363V22.4545C9.5 23.4045 10.2773 24.1817 11.2273 24.1817V25.909H12.9545V24.1817H25.0455V25.909H26.7727V24.1817C27.7227 24.1817 28.5 23.4045 28.5 22.4545V18.1363C28.5 17.0913 27.5586 16.2535 26.4791 16.4349Z" fill="#3657FF"/>
<path d="M26.4791 16.4348C25.6327 16.573 25.0455 17.3762 25.0455 18.2398V20.7271H12.9545V18.1362C12.9545 17.6781 12.7726 17.2388 12.4486 16.9148C12.1247 16.5909 11.6854 16.4089 11.2273 16.4089C10.7692 16.4089 10.3298 16.5909 10.0059 16.9148C9.68198 17.2388 9.5 17.6781 9.5 18.1362V22.4544C9.5 23.4044 10.2773 24.1817 11.2273 24.1817V25.9089H12.9545V24.1817H25.0455V25.9089H26.7727V24.1817C27.7227 24.1817 28.5 23.4044 28.5 22.4544V18.1362C28.5 17.0912 27.5586 16.2535 26.4791 16.4348Z" fill="#3657FF"/>
</svg>
