<svg width="38" height="38" viewBox="0 0 38 38" fill="none" xmlns="http://www.w3.org/2000/svg">
<path d="M2.77654 9.75731C3.27144 6.11248 6.1124 3.27112 9.75722 2.77619C12.7087 2.3754 16.2163 2 19 2C21.784 2 25.292 2.37548 28.2436 2.7763C31.888 3.2712 34.7288 6.11198 35.2237 9.75639C35.6245 12.708 36 16.216 36 19C36 21.784 35.6245 25.292 35.2237 28.2436C34.7288 31.888 31.888 34.7288 28.2436 35.2237C25.292 35.6245 21.784 36 19 36C16.2163 36 12.7087 35.6246 9.75722 35.2238C6.1124 34.7289 3.27144 31.8875 2.77654 28.2427C2.37563 25.29 2 21.7814 2 19C2 16.2186 2.37563 12.71 2.77654 9.75731Z" fill="#DBE1FF"/>
<path fill-rule="evenodd" clip-rule="evenodd" d="M19 28.5C24.2467 28.5 28.5 24.2467 28.5 19C28.5 13.7533 24.2467 9.5 19 9.5C13.7533 9.5 9.5 13.7533 9.5 19C9.5 24.2467 13.7533 28.5 19 28.5ZM11.99 17.2707L11.6412 16.6621C12.632 13.5412 15.5525 11.2812 18.9963 11.2812C19.1262 11.2812 19.2523 11.285 19.3822 11.2924L19.4713 11.4482C19.7199 11.8824 19.668 12.4279 19.3414 12.8102L18.7588 13.4893C18.3803 13.9271 18.3766 14.5766 18.7477 15.0219L19.2523 15.6268C19.4527 15.868 19.4713 16.2131 19.2969 16.4729C19.1225 16.7363 18.7885 16.8514 18.4842 16.7512L17.6232 16.4654C17.3635 16.3764 17.0777 16.3986 16.8328 16.5211L16.6139 16.6324C16.2762 16.7994 16.1166 17.1854 16.2353 17.5416C16.2947 17.716 16.4172 17.8645 16.5768 17.9572L17.857 18.6883C18.217 18.8924 18.6252 19 19.0371 19H20.6365C21.1078 19 21.5605 19.1893 21.8945 19.5232L22.0393 19.668C22.3732 20.002 22.5625 20.4547 22.5625 20.926V21.234C22.5625 21.8723 22.2211 22.466 21.6644 22.7814L21.3639 22.9521C20.8035 23.2713 20.3953 23.8094 20.2394 24.4365L20.1355 24.8521C19.9834 25.457 19.5195 25.9357 18.9221 26.1064C18.3654 26.266 17.8125 25.8467 17.8125 25.2678V23.8205C17.8125 23.4123 17.5824 23.0412 17.2187 22.8594C16.8551 22.6775 16.625 22.3064 16.625 21.8982V20.4176C16.625 19.7533 16.1871 19.1707 15.5488 18.9889L13.4002 18.3766C12.8027 18.2059 12.298 17.8088 11.99 17.2707ZM25.7391 15.2334C26.3625 16.3504 26.7187 17.6344 26.7187 19H26.715C26.715 19.3451 26.6928 19.6865 26.6482 20.0205L25.5684 19.7496C25.175 19.6531 24.8596 19.36 24.7297 18.974L24.1025 17.0926C23.9059 16.4988 24.2064 15.8494 24.7891 15.6156L25.7391 15.2334Z" fill="#3657FF"/>
</svg>
