<svg width="38" height="38" viewBox="0 0 38 38" fill="none" xmlns="http://www.w3.org/2000/svg">
<path d="M2.77654 9.75731C3.27144 6.11248 6.1124 3.27112 9.75722 2.77619C12.7087 2.3754 16.2163 2 19 2C21.784 2 25.292 2.37548 28.2436 2.7763C31.888 3.2712 34.7288 6.11198 35.2237 9.75639C35.6245 12.708 36 16.216 36 19C36 21.784 35.6245 25.292 35.2237 28.2436C34.7288 31.888 31.888 34.7288 28.2436 35.2237C25.292 35.6245 21.784 36 19 36C16.2163 36 12.7087 35.6246 9.75722 35.2238C6.1124 34.7289 3.27144 31.8875 2.77654 28.2427C2.37563 25.29 2 21.7814 2 19C2 16.2186 2.37563 12.71 2.77654 9.75731Z" fill="#DBE1FF"/>
<path d="M10.6577 26.1879C10.412 26.4337 10.014 26.4355 9.76606 26.1919L9.3159 25.7496C9.06483 25.5029 9.06304 25.0989 9.31192 24.85L12.7551 21.4068C13.2459 20.916 13.5826 20.3026 13.765 19.5667C13.9474 18.8307 14.0382 17.7024 14.0376 16.1818C14.0376 15.2635 14.2434 14.361 14.6551 13.4743C15.0668 12.5876 15.6526 11.7643 16.4126 11.0043C17.8534 9.56347 19.4447 8.74806 21.1864 8.55806C22.928 8.36806 24.3609 8.85097 25.4851 10.0068C26.6251 11.1468 27.1001 12.5876 26.9101 14.3293C26.7201 16.071 25.9126 17.6543 24.4876 19.0793C23.7276 19.8393 22.9043 20.4251 22.0176 20.8368C21.1309 21.2485 20.2284 21.4543 19.3101 21.4543C17.7743 21.4543 16.6501 21.5414 15.9376 21.7156C15.2251 21.8897 14.6155 22.2301 14.1089 22.7368L10.6577 26.1879ZM16.7451 18.6993C17.4893 19.4276 18.4947 19.6968 19.7614 19.5068C21.028 19.3168 22.1601 18.7231 23.1576 17.7256C24.1709 16.7122 24.7767 15.576 24.9749 14.317C25.1732 13.0579 24.8999 12.0724 24.1551 11.3606C23.3951 10.6006 22.4017 10.3156 21.175 10.5056C19.9482 10.6956 18.8199 11.2972 17.7901 12.3106C16.7926 13.3081 16.1871 14.4363 15.9737 15.6954C15.7603 16.9545 16.0174 17.9558 16.7451 18.6993Z" fill="#3657FF"/>
<path fill-rule="evenodd" clip-rule="evenodd" d="M24.06 21.8821C24.2006 21.8821 24.3394 21.8897 24.476 21.9046C24.828 24.5755 26.3197 26.3525 27.5164 27.2632C26.9165 28.5726 25.5945 29.4821 24.06 29.4821C23.8917 29.4821 23.726 29.4711 23.5634 29.4499C23.2298 26.8144 21.7835 25.0456 20.5962 24.1172C21.1926 22.7991 22.5192 21.8821 24.06 21.8821ZM20.3747 24.7519C20.2998 25.0495 20.26 25.3612 20.26 25.6821C20.26 27.3772 21.37 28.8131 22.9028 29.3027C22.5595 27.1036 21.3802 25.5948 20.3747 24.7519ZM27.86 25.6821C27.86 26.0108 27.8183 26.3297 27.7398 26.6339C26.7202 25.8042 25.494 24.2803 25.1355 22.0364C26.7104 22.5003 27.86 23.9569 27.86 25.6821Z" fill="#3657FF"/>
</svg>
