<svg width="38" height="38" viewBox="0 0 38 38" fill="none" xmlns="http://www.w3.org/2000/svg">
<path d="M2.77654 9.75731C3.27144 6.11248 6.1124 3.27112 9.75722 2.77619C12.7087 2.3754 16.2163 2 19 2C21.784 2 25.292 2.37548 28.2436 2.7763C31.888 3.2712 34.7288 6.11198 35.2237 9.75639C35.6245 12.708 36 16.216 36 19C36 21.784 35.6245 25.292 35.2237 28.2436C34.7288 31.888 31.888 34.7288 28.2436 35.2237C25.292 35.6245 21.784 36 19 36C16.2163 36 12.7087 35.6246 9.75722 35.2238C6.1124 34.7289 3.27144 31.8875 2.77654 28.2427C2.37563 25.29 2 21.7814 2 19C2 16.2186 2.37563 12.71 2.77654 9.75731Z" fill="#DBE1FF"/>
<path fill-rule="evenodd" clip-rule="evenodd" d="M19.0047 14.8164C19.3952 14.8302 19.7844 14.7652 20.1491 14.6253C20.5139 14.4854 20.8468 14.2735 21.1278 14.0021C21.4089 13.7308 21.6325 13.4056 21.7852 13.046C21.9378 12.6864 22.0165 12.2998 22.0165 11.9091C22.0165 11.5184 21.9378 11.1318 21.7852 10.7722C21.6325 10.4125 21.4089 10.0874 21.1278 9.81606C20.8468 9.54473 20.5139 9.3328 20.1491 9.1929C19.7844 9.05301 19.3952 8.98802 19.0047 9.00181C18.2514 9.02843 17.5379 9.34638 17.0144 9.88869C16.4909 10.431 16.1983 11.1553 16.1983 11.9091C16.1983 12.6629 16.4909 13.3872 17.0144 13.9295C17.5379 14.4718 18.2514 14.7898 19.0047 14.8164ZM11.0141 18.4138H14.0556C14.3228 17.829 14.694 17.2906 15.1574 16.8271C16.1778 15.8068 17.5617 15.2335 19.0047 15.2335C20.4478 15.2335 21.8317 15.8068 22.8521 16.8271C23.3155 17.2906 23.6867 17.829 23.9538 18.4138H26.9857C27.446 18.4138 27.8078 18.8078 27.7687 19.2664L26.9998 28.281C26.9651 28.6876 26.6249 29 26.2168 29H11.6995C11.2886 29 10.9471 28.6835 10.9159 28.2738L10.2306 19.2592C10.1959 18.8031 10.5567 18.4138 11.0141 18.4138ZM19.2857 20.7496L19.9424 22.0797C19.9881 22.1724 20.0766 22.2367 20.1789 22.2516L21.6455 22.4652C21.9032 22.5028 22.0061 22.8195 21.8196 23.0013L20.7579 24.0363C20.6838 24.1085 20.65 24.2125 20.6675 24.3145L20.9178 25.7753C20.9618 26.032 20.6923 26.2278 20.4617 26.1065L19.1501 25.4168C19.0585 25.3686 18.9491 25.3686 18.8576 25.4167L17.5446 26.1066C17.3139 26.2278 17.0444 26.0318 17.0886 25.775L17.34 24.3146C17.3575 24.2126 17.3238 24.1084 17.2496 24.0362L16.1881 23.0013C16.0016 22.8195 16.1044 22.5028 16.3622 22.4652L17.8288 22.2516C17.9311 22.2367 18.0195 22.1724 18.0653 22.0797L18.722 20.7496C18.8373 20.5161 19.1703 20.5161 19.2857 20.7496Z" fill="#3657FF"/>
</svg>
