<svg width="38" height="38" viewBox="0 0 38 38" fill="none" xmlns="http://www.w3.org/2000/svg">
<path d="M2.77654 9.75731C3.27144 6.11248 6.1124 3.27112 9.75722 2.77619C12.7087 2.3754 16.2163 2 19 2C21.784 2 25.292 2.37548 28.2436 2.7763C31.888 3.2712 34.7288 6.11198 35.2237 9.75639C35.6245 12.708 36 16.216 36 19C36 21.784 35.6245 25.292 35.2237 28.2436C34.7288 31.888 31.888 34.7288 28.2436 35.2237C25.292 35.6245 21.784 36 19 36C16.2163 36 12.7087 35.6246 9.75722 35.2238C6.1124 34.7289 3.27144 31.8875 2.77654 28.2427C2.37563 25.29 2 21.7814 2 19C2 16.2186 2.37563 12.71 2.77654 9.75731Z" fill="#DBE1FF"/>
<path d="M19 29.625C14.5986 29.625 11.0312 26.9688 11.0312 22.3203C11.0312 20.3281 11.6953 17.0078 14.3516 14.3516C14.0195 16.3438 16.0117 17.0078 16.0117 17.0078C15.0156 13.6875 17.6719 9.03906 21.6562 8.375C21.1821 11.0312 20.9922 13.6875 24.3125 16.3438C25.9727 17.6719 26.9688 19.9682 26.9688 22.3203C26.9688 26.9688 23.4014 29.625 19 29.625ZM19 28.2969C21.2007 28.2969 22.9844 26.9688 22.9844 24.6445C22.9844 23.6484 22.6523 21.9883 21.3242 20.6602C21.4902 21.6562 20.3281 22.3203 20.3281 22.3203C20.8262 20.6602 19.6641 18.0039 17.6719 17.6719C17.9096 19 18.0039 20.3281 16.3438 21.6562C15.5137 22.3203 15.0156 23.4678 15.0156 24.6445C15.0156 26.9688 16.7993 28.2969 19 28.2969Z" fill="#3657FF"/>
</svg>
