<svg width="38" height="38" viewBox="0 0 38 38" fill="none" xmlns="http://www.w3.org/2000/svg">
<path d="M2.77654 9.75731C3.27144 6.11248 6.1124 3.27112 9.75722 2.77619C12.7087 2.3754 16.2163 2 19 2C21.784 2 25.292 2.37548 28.2436 2.7763C31.888 3.2712 34.7288 6.11198 35.2237 9.75639C35.6245 12.708 36 16.216 36 19C36 21.784 35.6245 25.292 35.2237 28.2436C34.7288 31.888 31.888 34.7288 28.2436 35.2237C25.292 35.6245 21.784 36 19 36C16.2163 36 12.7087 35.6246 9.75722 35.2238C6.1124 34.7289 3.27144 31.8875 2.77654 28.2427C2.37563 25.29 2 21.7814 2 19C2 16.2186 2.37563 12.71 2.77654 9.75731Z" fill="#DBE1FF"/>
<path fill-rule="evenodd" clip-rule="evenodd" d="M19 28.5C24.2467 28.5 28.5 24.2467 28.5 19C28.5 13.7533 24.2467 9.5 19 9.5C13.7533 9.5 9.5 13.7533 9.5 19C9.5 24.2467 13.7533 28.5 19 28.5ZM19.8811 13.8039C19.8811 13.3043 19.4761 12.8993 18.9765 12.8993C18.4769 12.8993 18.0718 13.3043 18.0718 13.8039V14.1461C17.84 14.2008 17.605 14.2756 17.3684 14.3721C16.1213 14.881 15.2295 16.0301 15.3069 17.286C15.3466 17.9311 15.6476 18.5352 16.1958 18.9839C16.7306 19.4216 17.4557 19.6777 18.32 19.7578L18.3207 19.7579C18.6934 19.7921 19.0292 19.7987 19.3151 19.8028L19.3848 19.8038C19.6481 19.8075 19.8488 19.8104 20.0343 19.8268C20.3918 19.8585 20.5915 19.932 20.7973 20.1264L20.7986 20.1275C20.951 20.2709 21.1205 20.6664 21.0466 21.0963C20.9876 21.4396 20.7676 21.8271 20.0805 22.017L20.0802 22.017C19.7164 22.1177 19.3564 22.1611 19.016 22.1588C19.0029 22.1583 18.9897 22.158 18.9765 22.158L18.9624 22.1581C18.5394 22.1492 18.1483 22.0697 17.8201 21.9421C17.1803 21.6932 16.9553 21.3478 16.9223 21.1595C16.8362 20.6673 16.3675 20.3382 15.8754 20.4243C15.3832 20.5104 15.0541 20.9791 15.1402 21.4712C15.3269 22.5387 16.2249 23.2629 17.1642 23.6282C17.4483 23.7387 17.7529 23.8244 18.0718 23.8821V24.1967C18.0718 24.6963 18.4769 25.1013 18.9765 25.1013C19.4761 25.1013 19.8811 24.6963 19.8811 24.1967V23.9055C20.1075 23.8716 20.3353 23.8237 20.5626 23.7607C21.9224 23.3849 22.6516 22.4394 22.8297 21.4027C22.9929 20.4527 22.6877 19.4212 22.0389 18.8104C21.4448 18.2496 20.8082 18.079 20.1939 18.0246C19.9372 18.0019 19.6676 17.9983 19.4206 17.9949H19.4206L19.3412 17.9938C19.0611 17.9898 18.7847 17.9836 18.4865 17.9563C17.8688 17.899 17.5211 17.7306 17.3416 17.5838C17.1755 17.4478 17.1208 17.3072 17.1127 17.1748C17.0942 16.8758 17.3381 16.3385 18.0519 16.0473C18.3741 15.9158 18.6742 15.8516 18.9484 15.8377C18.9577 15.838 18.9671 15.8382 18.9765 15.8382C19.0027 15.8382 19.0286 15.8371 19.0542 15.8349C20.0086 15.8314 20.629 16.4418 20.753 16.9005C20.8834 17.3828 21.38 17.6681 21.8623 17.5377C22.3446 17.4074 22.6299 16.9107 22.4995 16.4284C22.1974 15.311 21.1897 14.3923 19.8811 14.1154V13.8039Z" fill="#3657FF"/>
</svg>
