<svg width="38" height="38" viewBox="0 0 38 38" fill="none" xmlns="http://www.w3.org/2000/svg">
<path d="M2.77654 9.75731C3.27144 6.11248 6.1124 3.27112 9.75722 2.77619C12.7087 2.3754 16.2163 2 19 2C21.784 2 25.292 2.37548 28.2436 2.7763C31.888 3.2712 34.7288 6.11198 35.2237 9.75639C35.6245 12.708 36 16.216 36 19C36 21.784 35.6245 25.292 35.2237 28.2436C34.7288 31.888 31.888 34.7288 28.2436 35.2237C25.292 35.6245 21.784 36 19 36C16.2163 36 12.7087 35.6246 9.75722 35.2238C6.1124 34.7289 3.27144 31.8875 2.77654 28.2427C2.37563 25.29 2 21.7814 2 19C2 16.2186 2.37563 12.71 2.77654 9.75731Z" fill="#DBE1FF"/>
<path d="M19.8443 9.85847L28.1415 18.1545C28.2552 18.2681 28.3453 18.4029 28.4068 18.5514C28.4683 18.6998 28.5 18.8589 28.5 19.0196C28.5 19.1803 28.4683 19.3394 28.4068 19.4878C28.3453 19.6363 28.2552 19.7711 28.1415 19.8847L19.8847 28.1415C19.7711 28.2552 19.6363 28.3453 19.4878 28.4068C19.3394 28.4683 19.1803 28.5 19.0196 28.5C18.8589 28.5 18.6998 28.4683 18.5514 28.4068C18.4029 28.3453 18.2681 28.2552 18.1545 28.1415L9.85847 19.8455C9.74482 19.7319 9.65467 19.5971 9.59316 19.4486C9.53166 19.3002 9.5 19.1411 9.5 18.9804C9.5 18.8197 9.53166 18.6606 9.59316 18.5122C9.65467 18.3638 9.74482 18.2289 9.85847 18.1153L15.5467 12.4271L17.6996 14.5813C17.6347 14.7364 17.5972 14.9013 17.5886 15.0688C17.5874 15.0927 17.5867 15.1167 17.5867 15.1407C17.5867 15.1407 17.5867 15.1408 17.5867 15.1407C17.5863 15.3329 17.624 15.5233 17.6975 15.7008C17.771 15.8783 17.8789 16.0395 18.015 16.1751C18.1512 16.3107 18.3128 16.418 18.4906 16.4909L18.4906 21.7075C18.1824 21.8336 17.9268 22.0614 17.7662 22.3531C17.6659 22.5354 17.6065 22.7357 17.5903 22.9404C17.5851 23.0069 17.5844 23.0738 17.5883 23.1408C17.5917 23.1975 17.5983 23.2541 17.6084 23.3105C17.6667 23.6383 17.8357 23.9361 18.0871 24.1544C18.3384 24.3727 18.657 24.4983 18.9897 24.5102C19.3225 24.5221 19.6492 24.4196 19.9155 24.2197C20.1818 24.0199 20.3716 23.7349 20.4532 23.4121C20.4736 23.3314 20.4869 23.2495 20.4933 23.1674C20.4981 23.1052 20.4989 23.0429 20.4957 22.9809C20.4863 22.7971 20.4421 22.6154 20.364 22.4459C20.2247 22.1435 19.9859 21.898 19.6876 21.7503L19.6876 16.5811L21.6505 18.5453C21.5859 18.701 21.5494 18.8655 21.5412 19.0315C21.5386 19.0848 21.5389 19.1383 21.5421 19.1917C21.549 19.3044 21.569 19.4167 21.6023 19.5263C21.7003 19.849 21.9074 20.1277 22.188 20.3147C22.4687 20.5017 22.8056 20.5855 23.1412 20.5517C23.4768 20.5179 23.7902 20.3687 24.028 20.1294C24.2628 19.8973 24.4116 19.592 24.4499 19.264C24.4523 19.2435 24.4542 19.2229 24.4557 19.2024C24.4602 19.1417 24.4608 19.0811 24.4577 19.0208C24.4451 18.7752 24.3702 18.5354 24.2383 18.3247C24.0632 18.0447 23.7979 17.8327 23.4862 17.7237C23.1744 17.6146 22.8349 17.6149 22.5234 17.7246L20.4179 15.618C20.4627 15.4894 20.489 15.3558 20.4966 15.2212C20.4995 15.1682 20.4996 15.1151 20.4968 15.062C20.4924 14.9803 20.4811 14.8987 20.4628 14.8181C20.4024 14.5526 20.2687 14.3094 20.0768 14.1162C19.8848 13.923 19.6425 13.7877 19.3773 13.7257C19.1122 13.6637 18.8349 13.6774 18.5772 13.7654L16.3922 11.5804L18.1141 9.85847C18.2277 9.74482 18.3626 9.65467 18.511 9.59316C18.6594 9.53166 18.8185 9.5 18.9792 9.5C19.1399 9.5 19.299 9.53166 19.4474 9.59316C19.5959 9.65467 19.7307 9.74482 19.8443 9.85847Z" fill="#3657FF"/>
</svg>
