<svg width="22" height="23" viewBox="0 0 22 23" fill="none" xmlns="http://www.w3.org/2000/svg">
<path d="M17.5366 9.15719C17.5366 12.2098 18.245 14.5568 18.7218 15.3889C18.8264 15.5705 18.881 15.7768 18.8819 15.987C18.8828 16.1973 18.829 16.404 18.726 16.5865C18.623 16.7689 18.4744 16.9206 18.2951 17.0262C18.1159 17.1319 17.9124 17.1877 17.7051 17.1882H14.1233C14.0005 17.9481 13.6155 18.639 13.0368 19.1376C12.4582 19.6361 11.7237 19.9098 10.9644 19.9098C10.2052 19.9098 9.47064 19.6361 8.89199 19.1376C8.31335 18.639 7.92827 17.9481 7.80551 17.1882H4.22711C4.01966 17.188 3.81593 17.1324 3.63646 17.0269C3.45699 16.9214 3.30814 16.7697 3.20493 16.5872C3.10171 16.4047 3.04779 16.1978 3.04859 15.9874C3.0494 15.777 3.10491 15.5706 3.20952 15.3889C3.6863 14.5568 4.39558 12.2107 4.39558 9.15719C4.39558 7.38978 5.08783 5.69476 6.32004 4.44501C7.55225 3.19526 9.22349 2.49316 10.9661 2.49316C12.7087 2.49316 14.3799 3.19526 15.6121 4.44501C16.8444 5.69476 17.5366 7.38978 17.5366 9.15719Z" fill="#3657FF"/>
<path d="M17.5366 9.15719C17.5366 12.2098 18.245 14.5568 18.7218 15.3889C18.8264 15.5705 18.881 15.7768 18.8819 15.987C18.8828 16.1973 18.829 16.404 18.726 16.5865C18.623 16.7689 18.4744 16.9206 18.2951 17.0262C18.1159 17.1319 17.9124 17.1877 17.7051 17.1882H14.1233H4.22711C4.01966 17.188 3.81593 17.1324 3.63646 17.0269C3.45699 16.9214 3.30814 16.7697 3.20493 16.5872C3.10171 16.4047 3.04779 16.1978 3.04859 15.9874C3.0494 15.777 3.10491 15.5706 3.20952 15.3889C3.6863 14.5568 4.39558 12.2107 4.39558 9.15719C4.39558 7.38978 5.08783 5.69476 6.32004 4.44501C7.55225 3.19526 9.22349 2.49316 10.9661 2.49316C12.7087 2.49316 14.3799 3.19526 15.6121 4.44501C16.8444 5.69476 17.5366 7.38978 17.5366 9.15719Z" fill="#BFCAFF"/>
</svg>
