<svg width="33" height="33" viewBox="0 0 33 33" fill="none" xmlns="http://www.w3.org/2000/svg">
<g clip-path="url(#clip0_469_18516)">
<g filter="url(#filter0_d_469_18516)">
<path fill-rule="evenodd" clip-rule="evenodd" d="M3 8.8C3 7.2536 4.2536 6 5.8 6H27.2C28.7464 6 30 7.2536 30 8.8V27L30 29.7852C30 30.5678 29.0538 30.9597 28.5004 30.4063L25.2228 27.1286C25.1404 27.0463 25.0287 27 24.9122 27H5.8C4.2536 27 3 25.7464 3 24.2V8.8ZM7.69446 13.5C7.69446 12.8096 8.2541 12.25 8.94446 12.25H24.0556C24.7459 12.25 25.3056 12.8096 25.3056 13.5C25.3056 14.1904 24.7459 14.75 24.0556 14.75H8.94446C8.2541 14.75 7.69446 14.1904 7.69446 13.5ZM7.69446 19.5C7.69446 18.8096 8.2541 18.25 8.94446 18.25H18.9445C19.6348 18.25 20.1945 18.8096 20.1945 19.5C20.1945 20.1904 19.6348 20.75 18.9445 20.75H8.94446C8.2541 20.75 7.69446 20.1904 7.69446 19.5Z" fill="white"/>
</g>
</g>
<defs>
<filter id="filter0_d_469_18516" x="-2.6" y="0.400003" width="38.2" height="35.8653" filterUnits="userSpaceOnUse" color-interpolation-filters="sRGB">
<feFlood flood-opacity="0" result="BackgroundImageFix"/>
<feColorMatrix in="SourceAlpha" type="matrix" values="0 0 0 0 0 0 0 0 0 0 0 0 0 0 0 0 0 0 127 0" result="hardAlpha"/>
<feOffset/>
<feGaussianBlur stdDeviation="2.8"/>
<feComposite in2="hardAlpha" operator="out"/>
<feColorMatrix type="matrix" values="0 0 0 0 0 0 0 0 0 0 0 0 0 0 0 0 0 0 0.45 0"/>
<feBlend mode="normal" in2="BackgroundImageFix" result="effect1_dropShadow_469_18516"/>
<feBlend mode="normal" in="SourceGraphic" in2="effect1_dropShadow_469_18516" result="shape"/>
</filter>
<clipPath id="clip0_469_18516">
<rect width="33" height="33" fill="white"/>
</clipPath>
</defs>
</svg>
