<svg width="24" height="24" viewBox="0 0 24 24" fill="none" xmlns="http://www.w3.org/2000/svg">
<path d="M6.5 7C6.5 6.72386 6.27614 6.5 6 6.5C5.72386 6.5 5.5 6.72386 5.5 7H6.5ZM18.3536 17.3536C18.5488 17.1583 18.5488 16.8417 18.3536 16.6464L15.1716 13.4645C14.9763 13.2692 14.6597 13.2692 14.4645 13.4645C14.2692 13.6597 14.2692 13.9763 14.4645 14.1716L17.2929 17L14.4645 19.8284C14.2692 20.0237 14.2692 20.3403 14.4645 20.5355C14.6597 20.7308 14.9763 20.7308 15.1716 20.5355L18.3536 17.3536ZM5.5 7V13H6.5V7H5.5ZM10 17.5H18V16.5H10V17.5ZM5.5 13C5.5 15.4853 7.51472 17.5 10 17.5V16.5C8.067 16.5 6.5 14.933 6.5 13H5.5Z" fill="#AAAEC9"/>
</svg>
