<svg width="23" height="23" viewBox="0 0 23 23" fill="none" xmlns="http://www.w3.org/2000/svg">
<path d="M15.7994 5.7897L15.5151 4.90116C15.4169 4.50369 15.1884 4.15058 14.8661 3.89806C14.5438 3.64554 14.1463 3.50813 13.7369 3.50781H9.26342C8.85398 3.50813 8.45644 3.64554 8.13415 3.89806C7.81185 4.15058 7.5834 4.50369 7.48514 4.90116L7.20092 5.7897C7.1172 6.12733 6.93912 6.43419 6.68753 6.67442C6.43594 6.91465 6.12118 7.07831 5.78004 7.14635L3.8093 7.54051C3.38727 7.62433 3.00825 7.85396 2.73844 8.18913C2.46863 8.52429 2.32534 8.94365 2.33359 9.37384V17.55C2.33359 18.0362 2.52666 18.5025 2.87047 18.8463C3.21429 19.1902 3.68069 19.3833 4.16692 19.3833H18.8336C19.3198 19.3833 19.786 19.1902 20.1298 18.8463C20.4736 18.5025 20.6669 18.0362 20.6669 17.55V9.37384C20.6752 8.94365 20.5317 8.52429 20.2619 8.18913C19.992 7.85396 19.613 7.62433 19.191 7.54051L17.2202 7.14635C16.8791 7.07831 16.5643 6.91465 16.3128 6.67442C16.0612 6.43419 15.8831 6.12733 15.7994 5.7897Z" fill="#BFCAFF"/>
<path d="M11.5004 17.1322C13.5255 17.1322 15.1671 15.4905 15.1671 13.4655C15.1671 11.4405 13.5255 9.79883 11.5004 9.79883C9.47536 9.79883 7.83374 11.4405 7.83374 13.4655C7.83374 15.4905 9.47536 17.1322 11.5004 17.1322Z" fill="#3657FF"/>
<path d="M15.616 10.8304C16.0865 10.8304 16.4679 10.449 16.4679 9.97856C16.4679 9.5081 16.0865 9.12671 15.616 9.12671C15.1455 9.12671 14.7642 9.5081 14.7642 9.97856C14.7642 10.449 15.1455 10.8304 15.616 10.8304Z" fill="#3657FF"/>
</svg>
