<svg width="26" height="26" viewBox="0 0 26 26" fill="none" xmlns="http://www.w3.org/2000/svg">
<rect x="8" y="10" width="9" height="8" fill="#3657FF"/>
<path fill-rule="evenodd" clip-rule="evenodd" d="M14.65 4.1665C14.9998 4.16659 15.3407 4.27674 15.6244 4.48134C15.9081 4.68595 16.1203 4.97463 16.2308 5.3065L16.6833 6.6665H19.4167C19.6377 6.6665 19.8496 6.7543 20.0059 6.91058C20.1622 7.06686 20.25 7.27882 20.25 7.49984C20.25 7.72085 20.1622 7.93281 20.0059 8.08909C19.8496 8.24537 19.6377 8.33317 19.4167 8.33317L19.4142 8.39234L18.6917 18.5115C18.6466 19.142 18.3643 19.732 17.9017 20.1628C17.4391 20.5936 16.8305 20.8331 16.1983 20.8332H9.30167C8.66955 20.8331 8.06092 20.5936 7.59831 20.1628C7.13569 19.732 6.85342 19.142 6.80833 18.5115L6.08583 8.3915L6.08333 8.33317C5.86232 8.33317 5.65036 8.24537 5.49408 8.08909C5.3378 7.93281 5.25 7.72085 5.25 7.49984C5.25 7.27882 5.3378 7.06686 5.49408 6.91058C5.65036 6.7543 5.86232 6.6665 6.08333 6.6665H8.81667L9.26917 5.3065C9.37975 4.97449 9.59203 4.68571 9.87592 4.4811C10.1598 4.27649 10.5009 4.16642 10.8508 4.1665H14.65ZM10.25 10.8332C10.0459 10.8332 9.84889 10.9081 9.69636 11.0438C9.54383 11.1794 9.44638 11.3663 9.4225 11.569L9.41667 11.6665V16.6665C9.4169 16.8789 9.49823 17.0832 9.64404 17.2376C9.78985 17.3921 9.98913 17.485 10.2012 17.4975C10.4132 17.5099 10.622 17.4409 10.7849 17.3046C10.9477 17.1683 11.0524 16.9749 11.0775 16.764L11.0833 16.6665V11.6665C11.0833 11.4455 10.9955 11.2335 10.8393 11.0772C10.683 10.921 10.471 10.8332 10.25 10.8332ZM15.25 10.8332C15.029 10.8332 14.817 10.921 14.6607 11.0772C14.5045 11.2335 14.4167 11.4455 14.4167 11.6665V16.6665C14.4167 16.8875 14.5045 17.0995 14.6607 17.2558C14.817 17.412 15.029 17.4998 15.25 17.4998C15.471 17.4998 15.683 17.412 15.8393 17.2558C15.9955 17.0995 16.0833 16.8875 16.0833 16.6665V11.6665C16.0833 11.4455 15.9955 11.2335 15.8393 11.0772C15.683 10.921 15.471 10.8332 15.25 10.8332ZM14.65 5.83317H10.85L10.5725 6.6665H14.9275L14.65 5.83317Z" fill="#BFCAFF"/>
</svg>
