<svg width="28" height="28" viewBox="0 0 28 28" fill="none" xmlns="http://www.w3.org/2000/svg">
<path fill-rule="evenodd" clip-rule="evenodd" d="M15.9038 6.40015H12.0962C8.50719 6.40015 6.71361 6.40015 5.59833 7.51353C4.76424 8.34667 4.5543 9.55885 4.50205 11.6203C4.49445 11.8835 4.71105 12.0953 4.96754 12.1618C5.78453 12.3756 6.38682 13.1175 6.38682 14C6.38672 14.4205 6.24715 14.8291 5.98998 15.1617C5.7328 15.4944 5.37254 15.7323 4.96564 15.8382C4.7101 15.9057 4.4935 16.1156 4.50015 16.3807C4.55335 18.4403 4.76235 19.6534 5.59833 20.4865C6.71266 21.5999 8.50719 21.5999 12.0962 21.5999H15.9038C19.4928 21.5999 21.2864 21.5999 22.4017 20.4865C23.2358 19.6534 23.4457 18.4412 23.498 16.3797C23.5056 16.1156 23.289 15.9047 23.0325 15.8382C22.2155 15.6245 21.6132 14.8826 21.6132 14C21.6133 13.5796 21.7528 13.171 22.01 12.8384C22.2672 12.5057 22.6275 12.2678 23.0344 12.1618C23.2899 12.0944 23.5065 11.8835 23.4999 11.6194C23.4467 9.5598 23.2377 8.34667 22.4017 7.51353C21.2873 6.40015 19.4928 6.40015 15.9038 6.40015ZM14.3028 11.2697L15.0083 12.6988C15.0575 12.7984 15.1525 12.8674 15.2625 12.8834L16.8381 13.113C17.115 13.1533 17.2255 13.4936 17.0252 13.6889L15.8845 14.8009C15.805 14.8784 15.7686 14.9902 15.7874 15.0997L16.0564 16.6692C16.1036 16.945 15.8141 17.1554 15.5663 17.0251L14.1571 16.284C14.0587 16.2323 13.9412 16.2323 13.8429 16.284L12.4322 17.0252C12.1844 17.1554 11.8948 16.9448 11.9423 16.6689L12.2124 15.0999C12.2313 14.9903 12.195 14.8784 12.1153 14.8008L10.9748 13.6889C10.7744 13.4936 10.885 13.1533 11.1619 13.113L12.7375 12.8834C12.8475 12.8674 12.9425 12.7984 12.9917 12.6988L13.6972 11.2697C13.8211 11.0188 14.1789 11.0188 14.3028 11.2697Z" fill="#2C3043"/>
</svg>
