<svg width="28" height="28" viewBox="0 0 28 28" fill="none" xmlns="http://www.w3.org/2000/svg">
<path fill-rule="evenodd" clip-rule="evenodd" d="M14 23.5C19.2467 23.5 23.5 19.2467 23.5 14C23.5 8.75329 19.2467 4.5 14 4.5C8.75329 4.5 4.5 8.75329 4.5 14C4.5 19.2467 8.75329 23.5 14 23.5ZM14.8811 8.80388C14.8811 8.30428 14.4761 7.89928 13.9765 7.89928C13.4769 7.89928 13.0718 8.30428 13.0718 8.80388V9.14613C12.84 9.20083 12.605 9.2756 12.3684 9.37212C11.1213 9.88098 10.2295 11.0301 10.3069 12.286C10.3466 12.9311 10.6476 13.5352 11.1958 13.9839C11.7306 14.4216 12.4557 14.6777 13.32 14.7578L13.3207 14.7579C13.6934 14.7921 14.0292 14.7987 14.3151 14.8028L14.3848 14.8038C14.6481 14.8075 14.8488 14.8104 15.0343 14.8268C15.3918 14.8585 15.5915 14.932 15.7973 15.1264L15.7986 15.1275C15.951 15.2709 16.1205 15.6664 16.0466 16.0963C15.9876 16.4396 15.7676 16.8271 15.0805 17.017L15.0802 17.017C14.7164 17.1177 14.3564 17.1611 14.016 17.1588C14.0029 17.1583 13.9897 17.158 13.9765 17.158L13.9624 17.1581C13.5394 17.1492 13.1483 17.0697 12.8201 16.9421C12.1803 16.6932 11.9553 16.3478 11.9223 16.1595C11.8362 15.6673 11.3675 15.3382 10.8754 15.4243C10.3832 15.5104 10.0541 15.9791 10.1402 16.4712C10.3269 17.5387 11.2249 18.2629 12.1642 18.6282C12.4483 18.7387 12.7529 18.8244 13.0718 18.8821V19.1967C13.0718 19.6963 13.4769 20.1013 13.9765 20.1013C14.4761 20.1013 14.8811 19.6963 14.8811 19.1967V18.9055C15.1075 18.8716 15.3353 18.8237 15.5626 18.7607C16.9224 18.3849 17.6516 17.4394 17.8297 16.4027C17.9929 15.4527 17.6877 14.4212 17.0389 13.8104C16.4448 13.2496 15.8082 13.079 15.1939 13.0246C14.9372 13.0019 14.6676 12.9983 14.4206 12.9949H14.4206L14.3412 12.9938C14.0611 12.9898 13.7847 12.9836 13.4865 12.9563C12.8688 12.899 12.5211 12.7306 12.3416 12.5838C12.1755 12.4478 12.1208 12.3072 12.1127 12.1748C12.0942 11.8758 12.3381 11.3385 13.0519 11.0473C13.3741 10.9158 13.6742 10.8516 13.9484 10.8377C13.9577 10.838 13.9671 10.8382 13.9765 10.8382C14.0027 10.8382 14.0286 10.8371 14.0542 10.8349C15.0086 10.8314 15.629 11.4418 15.753 11.9005C15.8834 12.3828 16.38 12.6681 16.8623 12.5377C17.3446 12.4074 17.6299 11.9107 17.4995 11.4284C17.1974 10.311 16.1897 9.3923 14.8811 9.11537V8.80388Z" fill="#2C3043"/>
</svg>
