<svg width="26" height="26" viewBox="0 0 26 26" fill="none" xmlns="http://www.w3.org/2000/svg">
<path fill-rule="evenodd" clip-rule="evenodd" d="M7.1296 7.04053C6.27049 7.04053 5.57404 7.73698 5.57404 8.59609V17.1518C5.57404 18.011 6.27048 18.7074 7.1296 18.7074H17.7478C17.8125 18.7074 17.8746 18.7331 17.9203 18.7789L19.7409 20.5995C20.0484 20.907 20.574 20.6892 20.574 20.2544V17.0404C20.574 17.0404 20.574 17.0404 20.574 17.0404C20.574 17.0404 20.574 17.0404 20.574 17.0404V8.59609C20.574 7.73698 19.8775 7.04053 19.0184 7.04053H7.1296Z" fill="#BFCAFF"/>
<path d="M22.522 6.78502C22.828 6.47912 22.9999 6.0642 23 5.63154C23.0001 5.19888 22.8282 4.78391 22.5223 4.47794C22.2164 4.17196 21.8015 4.00004 21.3689 3.99998C20.9362 3.99993 20.5213 4.17175 20.2153 4.47765L13.066 11.6288C12.9316 11.7628 12.8322 11.9278 12.7766 12.1092L12.0121 14.6278C11.9972 14.6778 11.996 14.731 12.0088 14.7816C12.0217 14.8323 12.0479 14.8785 12.0849 14.9154C12.1219 14.9523 12.1681 14.9785 12.2188 14.9913C12.2695 15.004 12.3226 15.0028 12.3727 14.9878L14.8918 14.2238C15.0731 14.1687 15.238 14.07 15.3722 13.9362L22.522 6.78502Z" fill="#3657FF"/>
</svg>
