<svg width="18" height="19" viewBox="0 0 18 19" fill="none" xmlns="http://www.w3.org/2000/svg">
<path fill-rule="evenodd" clip-rule="evenodd" d="M7.497 3.5H10.503C13.3365 3.5 14.7532 3.5 15.633 4.379C16.293 5.03675 16.458 5.9945 16.5 7.6205C16.5052 7.829 16.3342 7.9955 16.1325 8.04875C15.8113 8.1324 15.5268 8.32025 15.3238 8.58287C15.1208 8.84549 15.0106 9.16805 15.0105 9.5C15.0105 10.1968 15.486 10.7825 16.131 10.9513C16.3335 11.0037 16.5045 11.1702 16.4985 11.3787C16.4572 13.0063 16.2915 13.9632 15.633 14.621C14.7525 15.5 13.3365 15.5 10.503 15.5H7.497C4.6635 15.5 3.24675 15.5 2.367 14.621C1.707 13.9632 1.542 13.0055 1.5 11.3795C1.49475 11.1702 1.66575 11.0045 1.8675 10.9513C2.18874 10.8676 2.47316 10.6797 2.67619 10.4171C2.87923 10.1545 2.98942 9.83195 2.9895 9.5C2.9895 8.80325 2.514 8.2175 1.869 8.04875C1.6665 7.99625 1.4955 7.829 1.5015 7.62125C1.54275 5.99375 1.7085 5.03675 2.367 4.379C3.2475 3.5 4.6635 3.5 7.497 3.5Z" fill="#BFCAFF"/>
<path d="M9.79606 8.47273L9.23905 7.34455C9.14124 7.14644 8.85874 7.14644 8.76093 7.34455L8.20392 8.47273C8.16509 8.55137 8.09008 8.60588 8.00329 8.61852L6.75933 8.79974C6.54071 8.83159 6.45347 9.10026 6.61166 9.25447L7.51208 10.1322C7.57495 10.1935 7.60361 10.2818 7.58872 10.3684L7.3755 11.6071C7.33801 11.8249 7.5666 11.9912 7.76225 11.8884L8.87593 11.3032C8.9536 11.2624 9.04637 11.2624 9.12403 11.3033L10.2366 11.8883C10.4322 11.9912 10.6608 11.8251 10.6235 11.6073L10.4111 10.3683C10.3963 10.2818 10.425 10.1936 10.4878 10.1323L11.3883 9.25447C11.5465 9.10026 11.4593 8.83159 11.2406 8.79974L9.99669 8.61852C9.9099 8.60588 9.83488 8.55137 9.79606 8.47273Z" fill="#3657FF"/>
</svg>
