<svg width="34" height="34" viewBox="0 0 34 34" fill="none" xmlns="http://www.w3.org/2000/svg">
<circle cx="17" cy="17" r="14" fill="#9AABFF"/>
<path d="M17 26.625C21.1709 26.625 24.6602 23.9986 25.5374 20.4831C25.7714 19.5453 24.9665 18.75 24 18.75H10C9.0335 18.75 8.22858 19.5453 8.46258 20.4831C9.33981 23.9986 12.8291 26.625 17 26.625Z" fill="#3657FF"/>
<path d="M14 13.0834C13.7635 12.4522 13.1252 12 12.375 12C11.6248 12 10.9865 12.4522 10.75 13.0834" stroke="#3657FF" stroke-width="1.625" stroke-linecap="round"/>
<path d="M23.25 13.0834C23.0135 12.4522 22.3752 12 21.625 12C20.8748 12 20.2365 12.4522 20 13.0834" stroke="#3657FF" stroke-width="1.625" stroke-linecap="round"/>
</svg>
