<svg width="34" height="34" viewBox="0 0 34 34" fill="none" xmlns="http://www.w3.org/2000/svg">
<circle cx="17" cy="16.5" r="14" fill="#D8DAE9"/>
<path d="M17 26.125C21.1709 26.125 24.6602 23.4986 25.5374 19.9831C25.7714 19.0453 24.9665 18.25 24 18.25H10C9.0335 18.25 8.22858 19.0453 8.46258 19.9831C9.33981 23.4986 12.8291 26.125 17 26.125Z" fill="#AAAEC9"/>
<path d="M14 12.5834C13.7635 11.9522 13.1252 11.5 12.375 11.5C11.6248 11.5 10.9865 11.9522 10.75 12.5834" stroke="#AAAEC9" stroke-width="1.625" stroke-linecap="round"/>
<path d="M23.25 12.5834C23.0135 11.9522 22.3752 11.5 21.625 11.5C20.8748 11.5 20.2365 11.9522 20 12.5834" stroke="#AAAEC9" stroke-width="1.625" stroke-linecap="round"/>
</svg>
