<svg width="28" height="28" viewBox="0 0 28 28" fill="none" xmlns="http://www.w3.org/2000/svg">
<path d="M14.8453 5.15864L23.1425 13.4547C23.2562 13.5682 23.3463 13.7031 23.4078 13.8515C23.4694 14 23.501 14.1591 23.501 14.3198C23.501 14.4804 23.4694 14.6395 23.4078 14.788C23.3463 14.9364 23.2562 15.0713 23.1425 15.1849L14.8857 23.4417C14.7721 23.5554 14.6373 23.6455 14.4888 23.707C14.3404 23.7685 14.1813 23.8002 14.0206 23.8002C13.8599 23.8002 13.7008 23.7685 13.5524 23.707C13.4039 23.6455 13.2691 23.5554 13.1555 23.4417L4.85947 15.1457C4.74583 15.0321 4.65568 14.8972 4.59417 14.7488C4.53266 14.6004 4.50101 14.4413 4.50101 14.2806C4.50101 14.1199 4.53266 13.9608 4.59417 13.8124C4.65568 13.6639 4.74583 13.5291 4.85947 13.4155L10.5477 7.72724L12.7006 9.88149C12.6357 10.0365 12.5982 10.2015 12.5896 10.369C12.5884 10.3929 12.5877 10.4169 12.5877 10.4409C12.5877 10.4409 12.5877 10.441 12.5877 10.4409C12.5873 10.633 12.625 10.8235 12.6985 11.001C12.772 11.1785 12.8799 11.3397 13.0161 11.4753C13.1522 11.6109 13.3138 11.7182 13.4916 11.7911L13.4916 17.0077C13.1834 17.1338 12.9278 17.3616 12.7672 17.6533C12.6669 17.8356 12.6075 18.0359 12.5913 18.2405C12.5861 18.307 12.5854 18.374 12.5893 18.441C12.5927 18.4976 12.5993 18.5543 12.6094 18.6107C12.6677 18.9385 12.8367 19.2363 13.0881 19.4546C13.3394 19.6729 13.658 19.7985 13.9907 19.8104C14.3235 19.8222 14.6502 19.7197 14.9165 19.5199C15.1828 19.3201 15.3726 19.0351 15.4542 18.7123C15.4746 18.6316 15.4879 18.5497 15.4943 18.4676C15.4991 18.4054 15.4999 18.3431 15.4967 18.2811C15.4873 18.0973 15.4431 17.9156 15.365 17.746C15.2257 17.4437 14.987 17.1982 14.6886 17.0505L14.6886 11.8813L16.6515 13.8454C16.5869 14.0012 16.5504 14.1657 16.5422 14.3317C16.5396 14.385 16.5399 14.4385 16.5431 14.4918C16.55 14.6046 16.57 14.7169 16.6033 14.8265C16.7013 15.1492 16.9084 15.4278 17.189 15.6149C17.4697 15.8019 17.8066 15.8857 18.1422 15.8519C18.4778 15.8181 18.7912 15.6688 19.029 15.4296C19.2638 15.1974 19.4126 14.8922 19.4509 14.5642C19.4533 14.5437 19.4552 14.5231 19.4567 14.5026C19.4612 14.4419 19.4618 14.3813 19.4587 14.321C19.4461 14.0754 19.3712 13.8356 19.2393 13.6248C19.0642 13.3449 18.7989 13.1329 18.4872 13.0238C18.1754 12.9148 17.8359 12.9151 17.5244 13.0248L15.4189 10.9181C15.4637 10.7896 15.49 10.656 15.4976 10.5214C15.5005 10.4684 15.5006 10.4153 15.4978 10.3622C15.4934 10.2804 15.4821 10.1988 15.4638 10.1183C15.4035 9.85276 15.2697 9.60953 15.0778 9.41636C14.8858 9.2232 14.6435 9.08788 14.3783 9.02586C14.1132 8.96383 13.8359 8.97759 13.5782 9.06558L11.3932 6.88054L13.1151 5.15864C13.2287 5.04499 13.3636 4.95484 13.512 4.89334C13.6604 4.83183 13.8195 4.80017 13.9802 4.80017C14.1409 4.80017 14.3 4.83183 14.4484 4.89334C14.5969 4.95484 14.7317 5.04499 14.8453 5.15864Z" fill="#2C3043"/>
</svg>
