<svg width="18" height="18" viewBox="0 0 18 18" fill="none" xmlns="http://www.w3.org/2000/svg">
<path d="M16.698 8.58715L9.71202 1.60215C9.61637 1.50645 9.5028 1.43054 9.3778 1.37875C9.2528 1.32695 9.11882 1.30029 8.98352 1.30029C8.84822 1.30029 8.71424 1.32695 8.58924 1.37875C8.46424 1.43054 8.35067 1.50645 8.25502 1.60215L6.80502 3.05215L8.64502 4.89215C8.86202 4.81806 9.09549 4.80647 9.31876 4.8587C9.54204 4.91093 9.74613 5.02488 9.90775 5.18755C10.0694 5.35021 10.182 5.55503 10.2328 5.77864C10.2836 6.00225 10.2705 6.23563 10.195 6.45215L11.968 8.22615C12.2303 8.13379 12.5163 8.13351 12.7788 8.22536C13.0413 8.3172 13.2647 8.4957 13.4122 8.73145C13.5597 8.96721 13.6225 9.24616 13.5903 9.52239C13.5581 9.79862 13.4328 10.0556 13.235 10.2512C13.0348 10.4526 12.7709 10.5783 12.4883 10.6067C12.2057 10.6352 11.922 10.5646 11.6856 10.4071C11.4493 10.2497 11.2749 10.015 11.1924 9.74324C11.1098 9.47148 11.1242 9.1795 11.233 8.91715L9.58002 7.26315V11.6162C9.83128 11.7405 10.0323 11.9473 10.1496 12.2019C10.267 12.4565 10.2935 12.7437 10.2247 13.0155C10.156 13.2873 9.99619 13.5273 9.77194 13.6956C9.5477 13.8638 9.27255 13.9501 8.99238 13.9401C8.7122 13.9301 8.44392 13.8244 8.23224 13.6406C8.02057 13.4567 7.8783 13.2059 7.82913 12.9299C7.77997 12.6539 7.82689 12.3694 7.96207 12.1238C8.09725 11.8781 8.31253 11.6863 8.57202 11.5802V7.18715C8.42231 7.12581 8.28622 7.03544 8.1716 6.92125C8.05698 6.80706 7.96609 6.67131 7.90418 6.52184C7.84227 6.37236 7.81056 6.2121 7.81088 6.05031C7.81119 5.88852 7.84353 5.72839 7.90602 5.57915L6.09302 3.76515L1.30302 8.55515C1.20732 8.6508 1.13141 8.76437 1.07961 8.88937C1.02782 9.01437 1.00116 9.14835 1.00116 9.28365C1.00116 9.41896 1.02782 9.55294 1.07961 9.67793C1.13141 9.80293 1.20732 9.9165 1.30302 10.0122L8.28902 16.9982C8.38467 17.0939 8.49824 17.1698 8.62324 17.2216C8.74824 17.2734 8.88222 17.3 9.01752 17.3C9.15282 17.3 9.2868 17.2734 9.4118 17.2216C9.5368 17.1698 9.65037 17.0939 9.74602 16.9982L16.699 10.0452C16.7947 9.9495 16.8706 9.83593 16.9224 9.71093C16.9742 9.58594 17.0009 9.45196 17.0009 9.31665C17.0009 9.18135 16.9742 9.04737 16.9224 8.92237C16.8706 8.79737 16.7947 8.6838 16.699 8.58815" fill="#BFCAFF"/>
<path d="M8.64502 4.89225L6.80502 3.05225L6.09302 3.76525L7.90602 5.57925C7.84353 5.72848 7.81119 5.88861 7.81087 6.0504C7.81056 6.2122 7.84227 6.37245 7.90418 6.52193C7.96609 6.67141 8.05698 6.80715 8.1716 6.92134C8.28622 7.03553 8.42231 7.1259 8.57202 7.18725V11.5802C8.31253 11.6864 8.09725 11.8782 7.96207 12.1238C7.82689 12.3695 7.77997 12.654 7.82913 12.93C7.87829 13.206 8.02057 13.4568 8.23224 13.6407C8.44392 13.8245 8.7122 13.9302 8.99238 13.9402C9.27255 13.9502 9.5477 13.8639 9.77194 13.6956C9.99619 13.5274 10.156 13.2874 10.2247 13.0156C10.2935 12.7438 10.2669 12.4566 10.1496 12.202C10.0323 11.9473 9.83128 11.7406 9.58002 11.6162V7.26325L11.233 8.91725C11.1242 9.17959 11.1098 9.47157 11.1924 9.74333C11.2749 10.0151 11.4493 10.2498 11.6856 10.4072C11.922 10.5647 12.2057 10.6353 12.4883 10.6068C12.7709 10.5784 13.0348 10.4527 13.235 10.2512C13.4328 10.0557 13.5581 9.79871 13.5903 9.52248C13.6225 9.24626 13.5597 8.9673 13.4122 8.73155C13.2647 8.49579 13.0413 8.3173 12.7788 8.22545C12.5163 8.13361 12.2303 8.13389 11.968 8.22625L10.195 6.45225C10.2705 6.23572 10.2836 6.00234 10.2328 5.77873C10.182 5.55512 10.0694 5.3503 9.90775 5.18764C9.74613 5.02498 9.54204 4.91103 9.31876 4.8588C9.09548 4.80656 8.86202 4.81816 8.64502 4.89225Z" fill="#3657FF"/>
</svg>
