<svg width="18" height="18" viewBox="0 0 18 18" fill="none" xmlns="http://www.w3.org/2000/svg">
<path d="M9.375 4.80029C9.375 3.96779 10.0425 3.30029 10.875 3.30029H13.5C14.325 3.30029 15 3.97529 15 4.80029V7.48963C14.13 7.79713 15 10.1446 15 11.1196H13.5H9.375V4.80029ZM3.31066 11.2261L4.5 11.0258H8.625V4.80029C8.625 3.96779 7.9575 3.30029 7.125 3.30029H4.5C3.675 3.30029 3 3.97529 3 4.80029V7.3883C3.87 7.6958 3.31066 10.2586 3.31066 11.2261ZM15.495 7.07279C14.76 7.19279 14.25 7.89029 14.25 8.64029V10.8003H3.75V8.55029C3.75 8.15247 3.59196 7.77094 3.31066 7.48963C3.02936 7.20833 2.64782 7.05029 2.25 7.05029C1.85218 7.05029 1.47064 7.20833 1.18934 7.48963C0.908035 7.77094 0.75 8.15247 0.75 8.55029V12.3003C0.75 13.1253 1.425 13.8003 2.25 13.8003V15.3003H3.75V13.8003H14.25V15.3003H15.75V13.8003C16.575 13.8003 17.25 13.1253 17.25 12.3003V8.55029C17.25 7.64279 16.4325 6.91529 15.495 7.07279Z" fill="#3657FF"/>
<path d="M15.495 7.07279C14.76 7.19279 14.25 7.89029 14.25 8.64029V10.8003H3.75V8.55029C3.75 8.15247 3.59196 7.77094 3.31066 7.48963C3.02936 7.20833 2.64782 7.05029 2.25 7.05029C1.85218 7.05029 1.47064 7.20833 1.18934 7.48963C0.908035 7.77094 0.75 8.15247 0.75 8.55029V12.3003C0.75 13.1253 1.425 13.8003 2.25 13.8003V15.3003H3.75V13.8003H14.25V15.3003H15.75V13.8003C16.575 13.8003 17.25 13.1253 17.25 12.3003V8.55029C17.25 7.64279 16.4325 6.91529 15.495 7.07279Z" fill="#BFCAFF"/>
<rect x="2.24866" y="13.8042" width="1.50134" height="1.49609" fill="#3657FF"/>
<rect x="14.2479" y="13.8042" width="1.50134" height="1.49609" fill="#3657FF"/>
</svg>
