<svg width="28" height="28" viewBox="0 0 28 28" fill="none" xmlns="http://www.w3.org/2000/svg">
<path d="M14.4318 9.11851C14.4318 8.15987 15.2005 7.39124 16.1591 7.39124H19.1818C20.1318 7.39124 20.9091 8.16851 20.9091 9.11851V12.2153C19.9073 12.5694 20.9091 15.2726 20.9091 16.3953H19.1818H14.4318V9.11851ZM7.44864 16.5179L8.81818 16.2873H13.5682V9.11851C13.5682 8.15987 12.7995 7.39124 11.8409 7.39124H8.81818C7.86818 7.39124 7.09091 8.16851 7.09091 9.11851V12.0986C8.09273 12.4527 7.44864 15.4038 7.44864 16.5179ZM21.4791 11.7353C20.6327 11.8735 20.0455 12.6767 20.0455 13.5403V16.0276H7.95455V13.4367C7.95455 12.9786 7.77257 12.5393 7.44864 12.2153C7.12471 11.8914 6.68537 11.7094 6.22727 11.7094C5.76917 11.7094 5.32983 11.8914 5.00591 12.2153C4.68198 12.5393 4.5 12.9786 4.5 13.4367V17.7549C4.5 18.7049 5.27727 19.4821 6.22727 19.4821V21.2094H7.95455V19.4821H20.0455V21.2094H21.7727V19.4821C22.7227 19.4821 23.5 18.7049 23.5 17.7549V13.4367C23.5 12.3917 22.5586 11.554 21.4791 11.7353Z" fill="#2C3043"/>
<path d="M21.4791 11.7353C20.6327 11.8734 20.0455 12.6766 20.0455 13.5403V16.0275H7.95455V13.4366C7.95455 12.9785 7.77257 12.5392 7.44864 12.2153C7.12471 11.8913 6.68537 11.7094 6.22727 11.7094C5.76917 11.7094 5.32983 11.8913 5.00591 12.2153C4.68198 12.5392 4.5 12.9785 4.5 13.4366V17.7548C4.5 18.7048 5.27727 19.4821 6.22727 19.4821V21.2094H7.95455V19.4821H20.0455V21.2094H21.7727V19.4821C22.7227 19.4821 23.5 18.7048 23.5 17.7548V13.4366C23.5 12.3916 22.5586 11.5539 21.4791 11.7353Z" fill="#2C3043"/>
<rect x="6.22574" y="19.4866" width="1.72882" height="1.72277" fill="#2C3043"/>
<rect x="20.0431" y="19.4866" width="1.72882" height="1.72277" fill="#2C3043"/>
</svg>
