<svg width="26" height="26" viewBox="0 0 26 26" fill="none" xmlns="http://www.w3.org/2000/svg">
<path fill-rule="evenodd" clip-rule="evenodd" d="M11.8 4.025C12.1462 3.76536 12.5673 3.625 13 3.625C13.4327 3.625 13.8538 3.76536 14.2 4.025L21.2 9.275C21.4484 9.4613 21.65 9.70286 21.7889 9.98057C21.9277 10.2583 22 10.5645 22 10.875V20.375C22 20.9054 21.7893 21.4141 21.4142 21.7892C21.0391 22.1643 20.5304 22.375 20 22.375H6C5.46957 22.375 4.96086 22.1643 4.58579 21.7892C4.21071 21.4141 4 20.9054 4 20.375V10.875C4 10.5645 4.07229 10.2583 4.21115 9.98057C4.35 9.70286 4.55161 9.4613 4.8 9.275L11.8 4.025ZM7.29167 15.2891C7.29167 14.8749 7.62745 14.5391 8.04167 14.5391H17.9583C18.3725 14.5391 18.7083 14.8749 18.7083 15.2891C18.7083 15.7033 18.3725 16.0391 17.9583 16.0391H8.04167C7.62745 16.0391 7.29167 15.7033 7.29167 15.2891ZM8.04167 17.9545C7.62745 17.9545 7.29167 18.2903 7.29167 18.7045C7.29167 19.1187 7.62745 19.4545 8.04167 19.4545H17.9583C18.3725 19.4545 18.7083 19.1187 18.7083 18.7045C18.7083 18.2903 18.3725 17.9545 17.9583 17.9545H8.04167Z" fill="#D8DAE9"/>
</svg>
