<svg width="24" height="24" viewBox="0 0 24 24" fill="none" xmlns="http://www.w3.org/2000/svg">
<path fill-rule="evenodd" clip-rule="evenodd" d="M11.9999 22.2857C17.6805 22.2857 22.2854 17.6807 22.2854 12.0001C22.2854 6.3196 17.6805 1.7146 11.9999 1.7146C6.31935 1.7146 1.71436 6.3196 1.71436 12.0001C1.71436 17.6807 6.31935 22.2857 11.9999 22.2857ZM8.99995 10.7146C9.59167 10.7146 10.0714 10.2349 10.0714 9.64316C10.0714 9.05144 9.59167 8.57175 8.99995 8.57175C8.40823 8.57175 7.92854 9.05144 7.92854 9.64316C7.92854 10.2349 8.40823 10.7146 8.99995 10.7146ZM16.0713 9.64316C16.0713 10.2349 15.5916 10.7146 14.9999 10.7146C14.4081 10.7146 13.9284 10.2349 13.9284 9.64316C13.9284 9.05144 14.4081 8.57175 14.9999 8.57175C15.5916 8.57175 16.0713 9.05144 16.0713 9.64316ZM15.8215 13.7901C15.964 13.4392 16.3639 13.2703 16.7148 13.4127C17.0656 13.5552 17.2346 13.9551 17.0921 14.306C16.325 16.1954 14.2993 17.4765 11.9999 17.4765C9.70047 17.4765 7.67478 16.1954 6.90768 14.306C6.76522 13.9551 6.93417 13.5552 7.28505 13.4127C7.63592 13.2703 8.03584 13.4392 8.1783 13.7901C8.70871 15.0965 10.184 16.1051 11.9999 16.1051C13.8158 16.1051 15.2911 15.0965 15.8215 13.7901Z" fill="#3657FF"/>
</svg>
