<svg width="24" height="24" viewBox="0 0 24 24" fill="none" xmlns="http://www.w3.org/2000/svg">
<path fill-rule="evenodd" clip-rule="evenodd" d="M1.71436 5.56229C1.71436 4.38408 2.66948 3.42896 3.84769 3.42896H20.1524C21.3307 3.42896 22.2858 4.38408 22.2858 5.56229L22.2858 17.1432L22.2858 19.429L22.2858 21.551C22.2858 22.1472 21.5649 22.4459 21.1432 22.0242L18.646 19.527C18.5832 19.4642 18.4981 19.429 18.4094 19.429H3.84769C2.66948 19.429 1.71436 18.4738 1.71436 17.2956V5.56229ZM5.4206 9.14438C5.4206 8.68992 5.78901 8.32152 6.24346 8.32152H17.7567C18.2111 8.32152 18.5795 8.68992 18.5795 9.14438C18.5795 9.59883 18.2111 9.96723 17.7567 9.96723H6.24346C5.78901 9.96723 5.4206 9.59883 5.4206 9.14438ZM5.4206 13.7155C5.4206 13.261 5.78901 12.8926 6.24346 12.8926H13.8625C14.317 12.8926 14.6854 13.261 14.6854 13.7155C14.6854 14.1699 14.317 14.5383 13.8625 14.5383H6.24346C5.78901 14.5383 5.4206 14.1699 5.4206 13.7155Z" fill="#3657FF"/>
</svg>
