<svg width="34" height="34" viewBox="0 0 34 34" fill="none" xmlns="http://www.w3.org/2000/svg">
<path fill-rule="evenodd" clip-rule="evenodd" d="M3 7C3 5.34315 4.34315 4 6 4H28C29.6569 4 31 5.34315 31 7V27C31 28.6569 29.6569 30 28 30H6C4.34315 30 3 28.6569 3 27V7ZM8 9C7.44772 9 7 9.44772 7 10C7 10.5523 7.44772 11 8 11H26C26.5523 11 27 10.5523 27 10C27 9.44772 26.5523 9 26 9H8ZM8 14.75C7.44772 14.75 7 15.1977 7 15.75C7 16.3023 7.44772 16.75 8 16.75H15C15.5523 16.75 16 16.3023 16 15.75C16 15.1977 15.5523 14.75 15 14.75H8ZM21.9827 14.75C22.535 14.75 22.9827 15.1977 22.9827 15.75V18.75H25.9827C26.535 18.75 26.9827 19.1977 26.9827 19.75C26.9827 20.3023 26.535 20.75 25.9827 20.75H22.9827V23.75C22.9827 24.3023 22.535 24.75 21.9827 24.75C21.4304 24.75 20.9827 24.3023 20.9827 23.75V20.75H17.9827C17.4304 20.75 16.9827 20.3023 16.9827 19.75C16.9827 19.1977 17.4304 18.75 17.9827 18.75H20.9827V15.75C20.9827 15.1977 21.4304 14.75 21.9827 14.75Z" fill="white"/>
</svg>
