<svg width="24" height="25" viewBox="0 0 24 25" fill="none" xmlns="http://www.w3.org/2000/svg">
<path fill-rule="evenodd" clip-rule="evenodd" d="M19.2732 19.3449C21.2021 17.416 22.2858 14.7998 22.2858 12.0718C22.2858 9.34391 21.2021 6.72769 19.2732 4.79875C17.3442 2.8698 14.728 1.78613 12.0001 1.78613C9.27213 1.78613 6.65592 2.8698 4.72697 4.79875C2.79803 6.72769 1.71436 9.34391 1.71436 12.0718C1.71436 14.7998 2.79803 17.416 4.72697 19.3449C6.65592 21.2739 9.27213 22.3576 12.0001 22.3576C14.728 22.3576 17.3442 21.2739 19.2732 19.3449ZM12.2366 6.38736C12.2366 5.91397 11.8529 5.53022 11.3795 5.53022C10.9061 5.53022 10.5224 5.91397 10.5224 6.38736V13.3243C10.5224 13.627 10.6821 13.9073 10.9425 14.0617L15.4762 16.7487C15.8835 16.9901 16.4093 16.8556 16.6506 16.4484C16.892 16.0412 16.7575 15.5154 16.3503 15.274L12.2366 12.8359V6.38736Z" fill="#3657FF"/>
</svg>
