<svg width="23" height="22" viewBox="0 0 23 22" fill="none" xmlns="http://www.w3.org/2000/svg">
<path d="M18.6317 18.3366H4.36855C4.09691 18.333 3.82847 18.2758 3.579 18.1682C3.32954 18.0607 3.10387 17.9049 2.91478 17.7098C2.72569 17.5148 2.57702 17.2843 2.47726 17.0316C2.3775 16.779 2.32873 16.5091 2.33358 16.2374V5.75995C2.32995 5.48909 2.37964 5.22012 2.47994 4.9685C2.58025 4.71687 2.72916 4.4875 2.91814 4.29342C3.10711 4.09934 3.33238 3.94436 3.58124 3.83738C3.8301 3.7304 4.0977 3.67351 4.36855 3.66992H18.6317C18.9026 3.67351 19.1702 3.7304 19.419 3.83738C19.6679 3.94436 19.8932 4.09934 20.0821 4.29342C20.2711 4.4875 20.42 4.71687 20.5203 4.9685C20.6206 5.22012 20.6706 5.48909 20.6669 5.75995V16.2374C20.6718 16.5091 20.6228 16.779 20.523 17.0316C20.4233 17.2843 20.2746 17.5148 20.0855 17.7098C19.8964 17.9049 19.6707 18.0607 19.4213 18.1682C19.1718 18.2758 18.9034 18.333 18.6317 18.3366Z" fill="#BFCAFF"/>
<path fill-rule="evenodd" clip-rule="evenodd" d="M6.02686 18.3366H18.6319C18.9035 18.333 19.1719 18.2758 19.4214 18.1682C19.6709 18.0607 19.8965 17.9049 20.0856 17.7098C20.2747 17.5148 20.4234 17.2843 20.5232 17.0316C20.6007 16.8352 20.6476 16.6283 20.6623 16.4183L15.962 11.6808C15.1108 10.8229 13.727 10.8122 12.8627 11.6568L6.02686 18.3366Z" fill="#3657FF"/>
<path d="M7.71092 10.9995C8.79108 10.9995 9.66672 10.1238 9.66672 9.04368C9.66672 7.96353 8.79108 7.08789 7.71092 7.08789C6.63077 7.08789 5.75513 7.96353 5.75513 9.04368C5.75513 10.1238 6.63077 10.9995 7.71092 10.9995Z" fill="#3657FF"/>
</svg>
