<svg width="28" height="28" viewBox="0 0 28 28" fill="none" xmlns="http://www.w3.org/2000/svg">
<path d="M14 24.625C9.59859 24.625 6.03125 21.9688 6.03125 17.3203C6.03125 15.3281 6.69531 12.0078 9.35156 9.35156C9.01953 11.3438 11.0117 12.0078 11.0117 12.0078C10.0156 8.6875 12.6719 4.03906 16.6562 3.375C16.1821 6.03125 15.9922 8.6875 19.3125 11.3438C20.9727 12.6719 21.9688 14.9682 21.9688 17.3203C21.9688 21.9688 18.4014 24.625 14 24.625ZM14 23.2969C16.2007 23.2969 17.9844 21.9688 17.9844 19.6445C17.9844 18.6484 17.6523 16.9883 16.3242 15.6602C16.4902 16.6562 15.3281 17.3203 15.3281 17.3203C15.8262 15.6602 14.6641 13.0039 12.6719 12.6719C12.9096 14 13.0039 15.3281 11.3438 16.6562C10.5137 17.3203 10.0156 18.4678 10.0156 19.6445C10.0156 21.9688 11.7993 23.2969 14 23.2969Z" fill="#2C3043"/>
</svg>
