<svg width="18" height="18" viewBox="0 0 18 18" fill="none" xmlns="http://www.w3.org/2000/svg">
<path d="M9.0007 5.19179C9.33186 5.20349 9.66199 5.14836 9.97139 5.0297C10.2808 4.91105 10.5631 4.73128 10.8015 4.50114C11.0399 4.271 11.2296 3.99519 11.3591 3.69018C11.4886 3.38516 11.5553 3.05719 11.5553 2.72581C11.5553 2.39444 11.4886 2.06646 11.3591 1.76145C11.2296 1.45643 11.0399 1.18063 10.8015 0.950485C10.5631 0.720343 10.2808 0.540581 9.97139 0.421923C9.66199 0.303264 9.33186 0.24814 9.0007 0.259839C8.36176 0.282412 7.75652 0.552102 7.31249 1.0121C6.86846 1.47209 6.6203 2.08647 6.6203 2.72581C6.6203 3.36515 6.86846 3.97954 7.31249 4.43953C7.75652 4.89952 8.36176 5.16922 9.0007 5.19179ZM13.6157 10.1607C13.6157 8.93667 13.1295 7.76281 12.264 6.89732C11.3985 6.03184 10.2247 5.54561 9.0007 5.54561C7.77671 5.54561 6.60286 6.03184 5.73737 6.89732C4.87188 7.76281 4.38565 8.93667 4.38565 10.1607" fill="#BFCAFF"/>
<path d="M1.55842 8.96021C1.52901 8.57331 1.83501 8.24316 2.22303 8.24316H15.7702C16.1607 8.24316 16.4675 8.57728 16.4343 8.96633L15.7822 16.6125C15.7527 16.9574 15.4642 17.2224 15.118 17.2224H2.80436C2.45585 17.2224 2.16618 16.9539 2.13976 16.6064L1.55842 8.96021Z" fill="#BFCAFF"/>
<path d="M9.796 11.3526L9.23899 10.2244C9.14118 10.0263 8.85868 10.0263 8.76087 10.2244L8.20386 11.3526C8.16503 11.4313 8.09002 11.4858 8.00323 11.4984L6.75927 11.6796C6.54065 11.7115 6.4534 11.9801 6.6116 12.1344L7.51202 13.0121C7.57489 13.0734 7.60355 13.1617 7.58866 13.2483L7.37544 14.487C7.33795 14.7048 7.56654 14.871 7.76219 14.7682L8.87587 14.1831C8.95354 14.1423 9.04631 14.1423 9.12396 14.1831L10.2365 14.7682C10.4321 14.8711 10.6607 14.705 10.6234 14.4872L10.4111 13.2481C10.3963 13.1617 10.4249 13.0734 10.4877 13.0122L11.3883 12.1344C11.5465 11.9801 11.4592 11.7115 11.2406 11.6796L9.99662 11.4984C9.90984 11.4858 9.83482 11.4313 9.796 11.3526Z" fill="#3657FF"/>
</svg>
