<svg width="28" height="28" viewBox="0 0 28 28" fill="none" xmlns="http://www.w3.org/2000/svg">
<path fill-rule="evenodd" clip-rule="evenodd" d="M14.0048 9.81638C14.3952 9.83018 14.7845 9.76519 15.1492 9.6253C15.514 9.4854 15.8468 9.27347 16.1279 9.00214C16.409 8.73081 16.6326 8.40565 16.7853 8.04605C16.9379 7.68644 17.0166 7.29977 17.0166 6.9091C17.0166 6.51843 16.9379 6.13175 16.7853 5.77215C16.6326 5.41255 16.409 5.08739 16.1279 4.81606C15.8468 4.54473 15.514 4.3328 15.1492 4.1929C14.7845 4.05301 14.3952 3.98802 14.0048 4.00181C13.2515 4.02843 12.538 4.34638 12.0145 4.88869C11.491 5.43101 11.1984 6.15534 11.1984 6.9091C11.1984 7.66286 11.491 8.38719 12.0145 8.9295C12.538 9.47182 13.2515 9.78977 14.0048 9.81638ZM6.01421 13.4138H9.05573C9.32287 12.829 9.69406 12.2906 10.1575 11.8271C11.1779 10.8068 12.5618 10.2335 14.0048 10.2335C15.4479 10.2335 16.8318 10.8068 17.8522 11.8271C18.3156 12.2906 18.6868 12.829 18.9539 13.4138H21.9858C22.4461 13.4138 22.8079 13.8078 22.7688 14.2664L21.9999 23.281C21.9652 23.6876 21.625 24 21.2169 24H6.69958C6.2887 24 5.94719 23.6835 5.91604 23.2738L5.23067 14.2592C5.19599 13.8031 5.55675 13.4138 6.01421 13.4138ZM14.2858 15.7496L14.9424 17.0797C14.9882 17.1724 15.0767 17.2367 15.179 17.2516L16.6456 17.4652C16.9033 17.5028 17.0062 17.8195 16.8197 18.0013L15.758 19.0363C15.6839 19.1085 15.6501 19.2125 15.6676 19.3145L15.9179 20.7753C15.9619 21.032 15.6924 21.2278 15.4618 21.1065L14.1501 20.4168C14.0586 20.3686 13.9492 20.3686 13.8576 20.4167L12.5447 21.1066C12.314 21.2278 12.0445 21.0318 12.0887 20.775L12.3401 19.3146C12.3576 19.2126 12.3238 19.1084 12.2497 19.0362L11.1882 18.0013C11.0017 17.8195 11.1045 17.5028 11.3623 17.4652L12.8288 17.2516C12.9312 17.2367 13.0196 17.1724 13.0654 17.0797L13.7221 15.7496C13.8374 15.5161 14.1704 15.5161 14.2858 15.7496Z" fill="#2C3043"/>
</svg>
