<svg width="30" height="30" viewBox="0 0 30 30" fill="none" xmlns="http://www.w3.org/2000/svg">
<path fill-rule="evenodd" clip-rule="evenodd" d="M11.2679 12.4735C10.4826 12.4735 9.84595 13.1102 9.84595 13.8955V21.7164C9.84595 22.5017 10.4826 23.1383 11.2679 23.1383H21.0663L22.7964 24.8684C23.0774 25.1494 23.5579 24.9504 23.5579 24.5529V21.615H23.5579V13.8955C23.5579 13.1102 22.9212 12.4735 22.1359 12.4735H11.2679Z" fill="#D8DAE9"/>
<path fill-rule="evenodd" clip-rule="evenodd" d="M18.2551 8C19.0405 8 19.6771 8.63664 19.6771 9.42198V17.2429C19.6771 18.0282 19.0405 18.6648 18.2551 18.6648H8.54898C8.48982 18.6648 8.43309 18.6883 8.39126 18.7302L6.72673 20.3947C6.4457 20.6757 5.96517 20.4767 5.96517 20.0792V17.1413C5.96517 17.1413 5.96518 17.1413 5.96518 17.1413C5.96519 17.1413 5.96519 17.1413 5.96519 17.1412V9.42198C5.96519 8.63664 6.60183 8 7.38717 8H18.2551Z" fill="#AAAEC9"/>
<path fill-rule="evenodd" clip-rule="evenodd" d="M8.98399 11.174C8.6334 11.174 8.34918 11.4582 8.34918 11.8088C8.34918 12.1594 8.6334 12.4436 8.98399 12.4436H16.6582C17.0088 12.4436 17.293 12.1594 17.293 11.8088C17.293 11.4582 17.0088 11.174 16.6582 11.174H8.98399ZM8.98399 14.221C8.6334 14.221 8.34918 14.5053 8.34918 14.8559C8.34918 15.2065 8.6334 15.4907 8.98399 15.4907H14.0625C14.4131 15.4907 14.6973 15.2065 14.6973 14.8559C14.6973 14.5053 14.4131 14.221 14.0625 14.221H8.98399Z" fill="white"/>
</svg>
