<svg width="26" height="26" viewBox="0 0 26 26" fill="none" xmlns="http://www.w3.org/2000/svg">
<path d="M4.99999 12.9991C4.99999 8.58075 8.58159 4.99915 13 4.99915C17.4184 4.99915 21 8.58075 21 12.9991C21.0017 14.2952 20.6873 15.5721 20.084 16.7191L20.9768 20.1503C21.0065 20.265 21.0057 20.3854 20.9746 20.4996C20.9435 20.6138 20.8831 20.718 20.7994 20.8017C20.7156 20.8854 20.6115 20.9458 20.4972 20.977C20.383 21.0081 20.2626 21.0088 20.148 20.9791L16.716 20.0855C15.5699 20.6874 14.2945 21.001 13 20.9991C8.58159 20.9991 4.99999 17.4175 4.99999 12.9991Z" fill="#BFCAFF"/>
<path d="M13 8.69995V14.3" stroke="#3657FF" stroke-width="1.5" stroke-linecap="round"/>
<circle cx="13" cy="17.0583" r="0.85" fill="#3657FF"/>
</svg>
