<svg width="20" height="20" viewBox="0 0 20 20" fill="none" xmlns="http://www.w3.org/2000/svg">
<path fill-rule="evenodd" clip-rule="evenodd" d="M12.1956 8.22317H15.1193C15.2917 8.22317 15.4569 8.15472 15.5788 8.03287C15.7006 7.91102 15.7691 7.74577 15.7691 7.57345V4.64972C15.7691 4.4774 15.7006 4.31214 15.5788 4.1903C15.4569 4.06845 15.2917 4 15.1193 4C14.947 4 14.7818 4.06845 14.6599 4.1903C14.5381 4.31214 14.4696 4.4774 14.4696 4.64972V5.78447C14.1002 5.43394 13.6894 5.12657 13.2446 4.86989C12.2566 4.29974 11.1359 3.99977 9.99521 4.00011C8.85451 4.00046 7.734 4.30112 6.74635 4.87186C5.75871 5.4426 4.93873 6.26331 4.36886 7.25147C3.799 8.23963 3.49933 9.3604 3.5 10.5011C3.50067 11.6418 3.80165 12.7622 4.37267 13.7497C4.94369 14.7372 5.76463 15.5569 6.75295 16.1265C7.74126 16.6961 8.86212 16.9955 10.0028 16.9945C11.7255 16.9928 13.377 16.3077 14.5951 15.0896C15.8132 13.8715 16.4983 12.2199 16.5 10.4973C16.5 10.325 16.4316 10.1597 16.3097 10.0379C16.1879 9.91603 16.0226 9.84757 15.8503 9.84757C15.678 9.84757 15.5127 9.91603 15.3909 10.0379C15.269 10.1597 15.2006 10.325 15.2006 10.4973C15.2023 11.7566 14.7462 12.9735 13.9173 13.9215C13.0883 14.8694 11.9431 15.4838 10.6949 15.6501C9.44663 15.8164 8.18051 15.5233 7.13232 14.8254C6.08413 14.1275 5.32535 13.0724 4.99731 11.8566C4.66927 10.6408 4.79434 9.34726 5.34921 8.21683C5.90409 7.08641 6.85095 6.19622 8.01342 5.71206C9.17589 5.22791 10.4747 5.1828 11.668 5.58515C12.472 5.85626 13.1912 6.31808 13.7681 6.92373H12.1956C12.0233 6.92373 11.858 6.99218 11.7362 7.11403C11.6143 7.23588 11.5459 7.40113 11.5459 7.57345C11.5459 7.74577 11.6143 7.91102 11.7362 8.03287C11.858 8.15472 12.0233 8.22317 12.1956 8.22317Z" fill="#2C3043"/>
</svg>
