<svg width="28" height="28" viewBox="0 0 28 28" fill="none" xmlns="http://www.w3.org/2000/svg">
<path d="M14 13.8349C15.3166 13.8349 16.4489 12.6593 16.4489 11.1284C16.4489 9.61599 15.3104 8.49561 14 8.49561C12.6896 8.49561 11.5507 9.64072 11.5507 11.1408C11.5507 12.6593 12.6834 13.8349 14 13.8349ZM6.95248 13.9755C8.09141 13.9755 9.0836 12.9471 9.0836 11.6185C9.0836 10.3019 8.08523 9.32827 6.95248 9.32827C5.81354 9.32827 4.8094 10.3262 4.81558 11.6305C4.81558 12.9471 5.80736 13.9759 6.95248 13.9759M21.0476 13.9759C22.1927 13.9759 23.1844 12.9475 23.1844 11.6309C23.1844 10.3266 22.1865 9.32868 21.0476 9.32868C19.9148 9.32868 18.9164 10.3023 18.9164 11.6185C18.9164 12.9475 19.9086 13.9759 21.0476 13.9759ZM3.53567 19.5049H8.18952C7.55265 18.5803 8.33008 16.7188 9.64667 15.7023C8.96653 15.2492 8.09141 14.9125 6.9467 14.9125C4.18449 14.9125 2.45816 16.9513 2.45816 18.6475C2.45816 19.1986 2.76443 19.5049 3.53567 19.5049ZM24.4644 19.5049C25.2418 19.5049 25.5419 19.1986 25.5419 18.6475C25.5419 16.9513 23.8151 14.9125 21.0537 14.9125C19.9086 14.9125 19.0331 15.2492 18.3538 15.7023C19.67 16.7188 20.4478 18.5803 19.8109 19.5049H24.4644ZM10.1483 19.5049H17.8451C18.8064 19.5049 19.1493 19.2291 19.1493 18.6904C19.1493 17.1108 17.1716 14.931 13.9938 14.931C10.8223 14.931 8.84451 17.1108 8.84451 18.6904C8.84451 19.2291 9.18706 19.5049 10.1483 19.5049Z" fill="#2C3043"/>
<path d="M16.4489 11.1283C16.4489 12.6592 15.3166 13.8348 14 13.8348C12.6834 13.8348 11.5506 12.6592 11.5506 11.1406C11.5506 9.6406 12.6896 8.49548 14 8.49548C15.3104 8.49548 16.4489 9.61587 16.4489 11.1283Z" fill="#2C3043"/>
<path d="M17.8451 19.5048H10.1483C9.18703 19.5048 8.84448 19.229 8.84448 18.6902C8.84448 17.1107 10.8223 14.9309 13.9938 14.9309C17.1715 14.9309 19.1493 17.1107 19.1493 18.6902C19.1493 19.229 18.8063 19.5048 17.8451 19.5048Z" fill="#2C3043"/>
</svg>
