<svg width="34" height="34" viewBox="0 0 34 34" fill="none" xmlns="http://www.w3.org/2000/svg">
<circle cx="17" cy="17" r="14" fill="#9AABFF"/>
<path d="M24.4588 15.7599C24.5983 16.2804 24.2894 16.8154 23.7689 16.9548C23.2485 17.0943 22.7135 16.7854 22.574 16.265C22.4346 15.7445 22.8572 14.4535 23.0825 14.3931C23.3079 14.3327 24.3194 15.2395 24.4588 15.7599Z" fill="#3657FF"/>
<path fill-rule="evenodd" clip-rule="evenodd" d="M12.625 14.375C13.5915 14.375 14.375 13.5915 14.375 12.625C14.375 11.6585 13.5915 10.875 12.625 10.875C11.6585 10.875 10.875 11.6585 10.875 12.625C10.875 13.5915 11.6585 14.375 12.625 14.375ZM21.375 14.375C22.3415 14.375 23.125 13.5915 23.125 12.625C23.125 11.6585 22.3415 10.875 21.375 10.875C20.4085 10.875 19.625 11.6585 19.625 12.625C19.625 13.5915 20.4085 14.375 21.375 14.375Z" fill="#3657FF"/>
<path d="M24 23C22.9811 20.6696 20.2317 19 17 19C13.7683 19 11.0189 20.6696 10 23" stroke="#3657FF" stroke-width="2" stroke-linecap="round"/>
</svg>
