<svg width="34" height="34" viewBox="0 0 34 34" fill="none" xmlns="http://www.w3.org/2000/svg">
<circle cx="17" cy="17" r="14" fill="#D8DAE9"/>
<path d="M24.4588 16.2599C24.5983 16.7804 24.2894 17.3154 23.7689 17.4548C23.2485 17.5943 22.7135 17.2854 22.574 16.765C22.4346 16.2445 22.8572 14.9535 23.0825 14.8931C23.3079 14.8327 24.3194 15.7395 24.4588 16.2599Z" fill="#AAAEC9"/>
<path fill-rule="evenodd" clip-rule="evenodd" d="M12.625 14.375C13.5915 14.375 14.375 13.5915 14.375 12.625C14.375 11.6585 13.5915 10.875 12.625 10.875C11.6585 10.875 10.875 11.6585 10.875 12.625C10.875 13.5915 11.6585 14.375 12.625 14.375ZM21.375 14.375C22.3415 14.375 23.125 13.5915 23.125 12.625C23.125 11.6585 22.3415 10.875 21.375 10.875C20.4085 10.875 19.625 11.6585 19.625 12.625C19.625 13.5915 20.4085 14.375 21.375 14.375Z" fill="#AAAEC9"/>
<path d="M24 23C22.9811 20.6696 20.2317 19 17 19C13.7683 19 11.0189 20.6696 10 23" stroke="#AAAEC9" stroke-width="2" stroke-linecap="round"/>
</svg>
