<svg width="18" height="18" viewBox="0 0 18 18" fill="none" xmlns="http://www.w3.org/2000/svg">
<path d="M9 8.87496C9.99813 8.87496 10.8566 7.98371 10.8566 6.82309C10.8566 5.67652 9.99344 4.82715 9 4.82715C8.00656 4.82715 7.14313 5.69527 7.14313 6.83246C7.14313 7.98371 8.00187 8.87496 9 8.87496ZM3.65719 8.98152C4.52062 8.98152 5.27281 8.20184 5.27281 7.19465C5.27281 6.19652 4.51594 5.4584 3.65719 5.4584C2.79375 5.4584 2.0325 6.21496 2.03719 7.20371C2.03719 8.20184 2.78906 8.98184 3.65719 8.98184M14.3428 8.98184C15.2109 8.98184 15.9628 8.20215 15.9628 7.20402C15.9628 6.21527 15.2062 5.45871 14.3428 5.45871C13.4841 5.45871 12.7272 6.19684 12.7272 7.19465C12.7272 8.20215 13.4794 8.98184 14.3428 8.98184ZM1.06687 13.1734H4.595C4.11219 12.4725 4.70156 11.0612 5.69969 10.2906C5.18406 9.94715 4.52062 9.69184 3.65281 9.69184C1.55875 9.69184 0.25 11.2375 0.25 12.5234C0.25 12.9412 0.482187 13.1734 1.06687 13.1734ZM16.9331 13.1734C17.5225 13.1734 17.75 12.9412 17.75 12.5234C17.75 11.2375 16.4409 9.69184 14.3475 9.69184C13.4794 9.69184 12.8156 9.94715 12.3006 10.2906C13.2984 11.0612 13.8881 12.4725 13.4053 13.1734H16.9331ZM6.08 13.1734H11.915C12.6437 13.1734 12.9037 12.9643 12.9037 12.5559C12.9037 11.3584 11.4044 9.7059 8.99531 9.7059C6.59094 9.7059 5.09156 11.3584 5.09156 12.5559C5.09156 12.9643 5.35125 13.1734 6.08 13.1734Z" fill="#BFCAFF"/>
<path d="M10.8566 6.82309C10.8566 7.98371 9.99812 8.87496 8.99999 8.87496C8.00187 8.87496 7.14312 7.98371 7.14312 6.83246C7.14312 5.69527 8.00655 4.82715 8.99999 4.82715C9.99343 4.82715 10.8566 5.67652 10.8566 6.82309Z" fill="#3657FF"/>
<path d="M11.915 13.1734H6.07999C5.35124 13.1734 5.09155 12.9643 5.09155 12.5559C5.09155 11.3584 6.59093 9.7059 8.9953 9.7059C11.4044 9.7059 12.9037 11.3584 12.9037 12.5559C12.9037 12.9643 12.6437 13.1734 11.915 13.1734Z" fill="#3657FF"/>
</svg>
