<svg width="28" height="29" viewBox="0 0 28 29" fill="none" xmlns="http://www.w3.org/2000/svg">
<path d="M5.29764 21.6882C5.05185 21.9339 4.6539 21.9357 4.40595 21.6921L3.9558 21.2498C3.70472 21.0032 3.70293 20.5991 3.95181 20.3502L7.395 16.907C7.88583 16.4162 8.22245 15.8028 8.40485 15.0669C8.58725 14.331 8.67813 13.2027 8.6775 11.682C8.6775 10.7637 8.88333 9.86122 9.295 8.97455C9.70666 8.08788 10.2925 7.26455 11.0525 6.50455C12.4933 5.06372 14.0846 4.2483 15.8262 4.0583C17.5679 3.8683 19.0008 4.35122 20.125 5.50705C21.265 6.64705 21.74 8.08788 21.55 9.82955C21.36 11.5712 20.5525 13.1545 19.1275 14.5795C18.3675 15.3395 17.5442 15.9254 16.6575 16.337C15.7708 16.7487 14.8683 16.9545 13.95 16.9545C12.4142 16.9545 11.29 17.0416 10.5775 17.2158C9.865 17.39 9.25541 17.7304 8.74875 18.237L5.29764 21.6882ZM11.385 14.1995C12.1292 14.9279 13.1346 15.197 14.4012 15.007C15.6679 14.817 16.8 14.2233 17.7975 13.2258C18.8108 12.2125 19.4166 11.0763 19.6148 9.8172C19.8131 8.55813 19.5398 7.57267 18.795 6.8608C18.035 6.1008 17.0416 5.8158 15.8148 6.0058C14.5881 6.1958 13.4598 6.79747 12.43 7.8108C11.4325 8.8083 10.827 9.93658 10.6136 11.1956C10.4002 12.4547 10.6573 13.456 11.385 14.1995Z" fill="#2C3043"/>
<path fill-rule="evenodd" clip-rule="evenodd" d="M18.7 17.3818C18.8406 17.3818 18.9794 17.3895 19.116 17.4043C19.468 20.0753 20.9597 21.8523 22.1564 22.763C21.5565 24.0723 20.2345 24.9818 18.7 24.9818C18.5317 24.9818 18.366 24.9709 18.2034 24.9497C17.8698 22.3141 16.4235 20.5453 15.2362 19.6169C15.8326 18.2989 17.1592 17.3818 18.7 17.3818ZM15.0147 20.2516C14.9398 20.5493 14.9 20.8609 14.9 21.1818C14.9 22.877 16.01 24.3129 17.5428 24.8024C17.1995 22.6034 16.0202 21.0945 15.0147 20.2516ZM22.5 21.1818C22.5 21.5105 22.4583 21.8295 22.3798 22.1337C21.3602 21.3039 20.134 19.78 19.7755 17.5362C21.3504 18.0001 22.5 19.4567 22.5 21.1818Z" fill="#2C3043"/>
</svg>
