<svg width="18" height="18" viewBox="0 0 18 18" fill="none" xmlns="http://www.w3.org/2000/svg">
<path d="M12.5 17.5752C11.675 17.5752 10.9688 17.2814 10.3813 16.6939C9.79375 16.1064 9.5 15.4002 9.5 14.5752C9.5 13.7502 9.79375 13.0439 10.3813 12.4564C10.9688 11.8689 11.675 11.5752 12.5 11.5752C13.325 11.5752 14.0313 11.8689 14.6188 12.4564C15.2063 13.0439 15.5 13.7502 15.5 14.5752C15.5 15.4002 15.2063 16.1064 14.6188 16.6939C14.0313 17.2814 13.325 17.5752 12.5 17.5752Z" fill="#3657FF"/>
<path d="M1.91919 14.975C1.72515 15.169 1.41098 15.1704 1.21522 14.9781L0.859839 14.6289C0.661622 14.4342 0.660211 14.1152 0.856696 13.9187L3.575 11.2004C3.9625 10.8129 4.22825 10.3287 4.37225 9.74767C4.51625 9.16667 4.588 8.27592 4.5875 7.07542C4.5875 6.35042 4.75 5.63792 5.075 4.93792C5.4 4.23792 5.8625 3.58792 6.4625 2.98792C7.6 1.85042 8.85625 1.20667 10.2313 1.05667C11.6063 0.906667 12.7375 1.28792 13.625 2.20042C14.525 3.10042 14.9 4.23792 14.75 5.61292C14.6 6.98792 13.9625 8.23792 12.8375 9.36292C12.2375 9.96292 11.5875 10.4254 10.8875 10.7504C10.1875 11.0754 9.475 11.2379 8.75 11.2379C7.5375 11.2379 6.65 11.3067 6.0875 11.4442C5.525 11.5817 5.04375 11.8504 4.64375 12.2504L1.91919 14.975ZM6.725 9.06292C7.3125 9.63792 8.10625 9.85042 9.10625 9.70042C10.1063 9.55042 11 9.08167 11.7875 8.29417C12.5875 7.49417 13.0658 6.59717 13.2222 5.60317C13.3787 4.60917 13.163 3.83117 12.575 3.26917C11.975 2.66917 11.1908 2.44417 10.2222 2.59417C9.25375 2.74417 8.363 3.21917 7.55 4.01917C6.7625 4.80667 6.2845 5.69742 6.116 6.69142C5.9475 7.68542 6.1505 8.47592 6.725 9.06292Z" fill="#BFCAFF"/>
<path d="M9.10622 9.70057C8.10622 9.85057 7.31247 9.63807 6.72497 9.06307C6.15047 8.47607 5.94747 7.68557 6.11597 6.69157C6.28447 5.69757 6.76247 4.80682 7.54997 4.01932C8.36297 3.21932 9.25372 2.74432 10.2222 2.59432C11.1907 2.44432 11.975 2.66932 12.575 3.26932C13.163 3.83132 13.3787 4.60932 13.2222 5.60332C13.0657 6.59732 12.5875 7.49432 11.7875 8.29432C11 9.08182 10.1062 9.55057 9.10622 9.70057Z" fill="#9AABFF"/>
<circle cx="12.5" cy="14.5752" r="3" fill="#3657FF"/>
<mask id="mask0_202_11908" style="mask-type:alpha" maskUnits="userSpaceOnUse" x="9" y="11" width="7" height="7">
<circle cx="12.5" cy="14.5752" r="3" fill="#3657FF"/>
</mask>
<g mask="url(#mask0_202_11908)">
<path d="M8.95453 13.1115C9.94102 13.6048 11.914 15.3636 11.914 18.4516" stroke="#BFCAFF" stroke-width="0.5"/>
<path d="M15.9865 16.0107C14.9969 15.5158 13.0178 13.7515 13.0178 10.6539" stroke="#BFCAFF" stroke-width="0.5"/>
</g>
</svg>
