<svg width="14" height="14" viewBox="0 0 14 14" fill="none" xmlns="http://www.w3.org/2000/svg">
<path fill-rule="evenodd" clip-rule="evenodd" d="M1.64865 6.81272C1.60377 6.93361 1.60377 7.06659 1.64865 7.18748C2.08572 8.24725 2.82762 9.15339 3.78029 9.791C4.73297 10.4286 5.85352 10.769 6.99988 10.769C8.14624 10.769 9.26679 10.4286 10.2195 9.791C11.1721 9.15339 11.914 8.24725 12.3511 7.18748C12.396 7.06659 12.396 6.93361 12.3511 6.81272C11.914 5.75294 11.1721 4.84681 10.2195 4.2092C9.26679 3.57158 8.14624 3.2312 6.99988 3.2312C5.85352 3.2312 4.73297 3.57158 3.78029 4.2092C2.82762 4.84681 2.08572 5.75294 1.64865 6.81272ZM9.49989 7.00012C9.49989 8.38083 8.3806 9.50012 6.99989 9.50012C5.61918 9.50012 4.49989 8.38083 4.49989 7.00012C4.49989 5.61941 5.61918 4.50012 6.99989 4.50012C8.3806 4.50012 9.49989 5.61941 9.49989 7.00012Z" fill="#EEEEF5"/>
<path d="M1.64865 7.18748L1.41412 7.27454L1.41753 7.2828L1.64865 7.18748ZM1.64865 6.81272L1.41738 6.71734L1.41427 6.72572L1.64865 6.81272ZM3.78029 9.791L3.64124 9.99876H3.64124L3.78029 9.791ZM10.2195 9.791L10.3585 9.99876L10.2195 9.791ZM12.3511 7.18748L12.5824 7.28286L12.5855 7.27448L12.3511 7.18748ZM12.3511 6.81272L12.5856 6.72566L12.5822 6.7174L12.3511 6.81272ZM10.2195 4.2092L10.3585 4.00144L10.2195 4.2092ZM3.78029 4.2092L3.64124 4.00144L3.78029 4.2092ZM1.88302 7.10048C1.85898 7.03572 1.85898 6.96448 1.88302 6.89972L1.41427 6.72572C1.34856 6.90274 1.34856 7.09746 1.41427 7.27448L1.88302 7.10048ZM3.91934 9.58324C3.00781 8.97316 2.29796 8.10617 1.87976 7.09217L1.41753 7.2828C1.87348 8.38834 2.64742 9.33361 3.64124 9.99876L3.91934 9.58324ZM6.99988 10.519C5.90303 10.519 4.83088 10.1933 3.91934 9.58324L3.64124 9.99876C4.63506 10.6639 5.80401 11.019 6.99988 11.019V10.519ZM10.0804 9.58324C9.16888 10.1933 8.09673 10.519 6.99988 10.519V11.019C8.19575 11.019 9.36469 10.6639 10.3585 9.99876L10.0804 9.58324ZM12.12 7.09217C11.7018 8.10617 10.9919 8.97316 10.0804 9.58324L10.3585 9.99876C11.3523 9.33361 12.1263 8.38834 12.5822 7.2828L12.12 7.09217ZM12.1167 6.89972C12.1408 6.96448 12.1408 7.03572 12.1167 7.10048L12.5855 7.27448C12.6512 7.09746 12.6512 6.90274 12.5855 6.72571L12.1167 6.89972ZM10.0804 4.41696C10.9919 5.02704 11.7018 5.89403 12.12 6.90803L12.5822 6.7174C12.1263 5.61186 11.3523 4.66659 10.3585 4.00144L10.0804 4.41696ZM6.99988 3.4812C8.09673 3.4812 9.16888 3.80688 10.0804 4.41696L10.3585 4.00144C9.36469 3.33629 8.19575 2.9812 6.99988 2.9812V3.4812ZM3.91934 4.41696C4.83088 3.80688 5.90303 3.4812 6.99988 3.4812V2.9812C5.80401 2.9812 4.63506 3.33629 3.64124 4.00144L3.91934 4.41696ZM1.87976 6.90803C2.29796 5.89403 3.00781 5.02704 3.91934 4.41696L3.64124 4.00144C2.64742 4.66659 1.87348 5.61186 1.41753 6.7174L1.87976 6.90803ZM6.99989 9.75012C8.51867 9.75012 9.74989 8.5189 9.74989 7.00012H9.24989C9.24989 8.24276 8.24253 9.25012 6.99989 9.25012V9.75012ZM4.24989 7.00012C4.24989 8.5189 5.48111 9.75012 6.99989 9.75012V9.25012C5.75725 9.25012 4.74989 8.24276 4.74989 7.00012H4.24989ZM6.99989 4.25012C5.48111 4.25012 4.24989 5.48134 4.24989 7.00012H4.74989C4.74989 5.75748 5.75725 4.75012 6.99989 4.75012V4.25012ZM9.74989 7.00012C9.74989 5.48134 8.51867 4.25012 6.99989 4.25012V4.75012C8.24253 4.75012 9.24989 5.75748 9.24989 7.00012H9.74989Z" fill="#EEEEF5"/>
<path d="M8.50244 6.7627C8.9749 6.7627 9.35791 6.37969 9.35791 5.90723C9.35791 5.43476 8.9749 5.05176 8.50244 5.05176C8.02998 5.05176 7.64697 5.43476 7.64697 5.90723C7.64697 6.37969 8.02998 6.7627 8.50244 6.7627Z" fill="#EEEEF5"/>
</svg>
