<svg width="18" height="18" viewBox="0 0 18 18" fill="none" xmlns="http://www.w3.org/2000/svg">
<circle cx="9" cy="9.30029" r="8" fill="#BFCAFF"/>
<circle cx="9" cy="9.30048" r="7.13885" fill="#3657FF"/>
<mask id="mask0_202_12050" style="mask-type:alpha" maskUnits="userSpaceOnUse" x="1" y="1" width="16" height="16">
<circle cx="9" cy="9.30011" r="7.68341" fill="#3657FF"/>
</mask>
<g mask="url(#mask0_202_12050)">
<path d="M2.80313 7.33154L3.09687 7.84404C3.35625 8.29717 3.78125 8.63154 4.28437 8.77529L6.09375 9.29092C6.63125 9.44404 7 9.93467 7 10.494V11.7409C7 12.0847 7.19375 12.3972 7.5 12.5503C7.80625 12.7034 8 13.0159 8 13.3597V14.5784C8 15.0659 8.46562 15.419 8.93437 15.2847C9.4375 15.1409 9.82812 14.7378 9.95625 14.2284L10.0437 13.8784C10.175 13.3503 10.5188 12.8972 10.9906 12.6284L11.2437 12.4847C11.7125 12.219 12 11.719 12 11.1815V10.9222C12 10.5253 11.8406 10.144 11.5594 9.86279L11.4375 9.74092C11.1562 9.45967 10.775 9.30029 10.3781 9.30029H9.03125C8.68437 9.30029 8.34062 9.20967 8.0375 9.03779L6.95937 8.42217C6.825 8.34404 6.72188 8.21904 6.67188 8.07217C6.57188 7.77217 6.70625 7.44717 6.99062 7.30654L7.175 7.21279C7.38125 7.10967 7.62187 7.09092 7.84062 7.16592L8.56563 7.40654C8.82188 7.49092 9.10312 7.39404 9.25 7.17217C9.39688 6.95342 9.38125 6.66279 9.2125 6.45967L8.7875 5.95029C8.475 5.57529 8.47813 5.02842 8.79688 4.65967L9.2875 4.08779C9.5625 3.76592 9.60625 3.30654 9.39688 2.94092L9.32187 2.80967C9.2125 2.80342 9.10625 2.80029 8.99687 2.80029C6.09687 2.80029 3.6375 4.70342 2.80313 7.33154ZM15.5 9.30029C15.5 8.15029 15.2 7.06904 14.675 6.12842L13.875 6.45029C13.3844 6.64717 13.1313 7.19404 13.2969 7.69404L13.825 9.27842C13.9344 9.60342 14.2 9.85029 14.5312 9.93154L15.4406 10.1597C15.4781 9.87842 15.4969 9.59092 15.4969 9.30029H15.5ZM1 9.30029C1 7.17856 1.84285 5.14373 3.34315 3.64344C4.84344 2.14315 6.87827 1.30029 9 1.30029C11.1217 1.30029 13.1566 2.14315 14.6569 3.64344C16.1571 5.14373 17 7.17856 17 9.30029C17 11.422 16.1571 13.4569 14.6569 14.9571C13.1566 16.4574 11.1217 17.3003 9 17.3003C6.87827 17.3003 4.84344 16.4574 3.34315 14.9571C1.84285 13.4569 1 11.422 1 9.30029Z" fill="#BFCAFF" stroke="#3657FF" stroke-width="0.5"/>
</g>
</svg>
