<svg width="28" height="28" viewBox="0 0 28 28" fill="none" xmlns="http://www.w3.org/2000/svg">
<path fill-rule="evenodd" clip-rule="evenodd" d="M14 23.8003C19.2467 23.8003 23.5 19.547 23.5 14.3003C23.5 9.05359 19.2467 4.80029 14 4.80029C8.75329 4.80029 4.5 9.05359 4.5 14.3003C4.5 19.547 8.75329 23.8003 14 23.8003ZM6.99003 12.571L6.6412 11.9624C7.63203 8.8415 10.5525 6.58154 13.9963 6.58154C14.1262 6.58154 14.2523 6.58525 14.3822 6.59268L14.4713 6.74854C14.7199 7.18271 14.668 7.72822 14.3414 8.11045L13.7588 8.78955C13.3803 9.22744 13.3766 9.87686 13.7477 10.3222L14.2523 10.9271C14.4527 11.1683 14.4713 11.5134 14.2969 11.7731C14.1225 12.0366 13.7885 12.1517 13.4842 12.0515L12.6232 11.7657C12.3635 11.6767 12.0777 11.6989 11.8328 11.8214L11.6139 11.9327C11.2762 12.0997 11.1166 12.4856 11.2353 12.8419C11.2947 13.0163 11.4172 13.1647 11.5768 13.2575L12.857 13.9886C13.217 14.1927 13.6252 14.3003 14.0371 14.3003H15.6365C16.1078 14.3003 16.5605 14.4896 16.8945 14.8235L17.0393 14.9683C17.3732 15.3022 17.5625 15.755 17.5625 16.2263V16.5343C17.5625 17.1726 17.2211 17.7663 16.6644 18.0817L16.3639 18.2524C15.8035 18.5716 15.3953 19.1097 15.2394 19.7368L15.1355 20.1524C14.9834 20.7573 14.5195 21.236 13.9221 21.4067C13.3654 21.5663 12.8125 21.147 12.8125 20.5681V19.1208C12.8125 18.7126 12.5824 18.3415 12.2187 18.1597C11.8551 17.9778 11.625 17.6067 11.625 17.1985V15.7179C11.625 15.0536 11.1871 14.471 10.5488 14.2892L8.40019 13.6769C7.80273 13.5062 7.29804 13.1091 6.99003 12.571ZM20.7391 10.5337C21.3625 11.6507 21.7187 12.9347 21.7187 14.3003H21.715C21.715 14.6454 21.6928 14.9868 21.6482 15.3208L20.5684 15.0499C20.175 14.9534 19.8596 14.6603 19.7297 14.2743L19.1025 12.3929C18.9059 11.7991 19.2064 11.1497 19.7891 10.9159L20.7391 10.5337Z" fill="#2C3043"/>
</svg>
