<svg width="100" height="100" viewBox="0 0 100 100" fill="none" xmlns="http://www.w3.org/2000/svg">
<path d="M28.0875 25.1216V75.9925" stroke="#F3F3F9" stroke-width="11.5385"/>
<path d="M72.4393 75.9917L28.0874 25.1213" stroke="#F3F3F9" stroke-width="11.5385"/>
<path d="M72.4393 25.1216V75.9925" stroke="#F3F3F9" stroke-width="11.5385"/>
<path fill-rule="evenodd" clip-rule="evenodd" d="M60.7792 76.4747C60.9829 76.6785 61.2001 76.8606 61.4279 77.021C61.7215 77.2279 61.8724 77.5922 61.811 77.9461C61.7634 78.2206 61.7386 78.503 61.7386 78.7912C61.7386 81.5041 63.9378 83.7033 66.6506 83.7033C66.9386 83.7033 67.2209 83.6785 67.4953 83.631C67.8491 83.5696 68.2133 83.7205 68.4202 84.0141C68.5806 84.2418 68.7626 84.4589 68.9663 84.6626C70.8846 86.5808 73.9948 86.5808 75.913 84.6626C76.1167 84.4589 76.2988 84.2417 76.4592 84.014C76.666 83.7205 77.0303 83.5696 77.3841 83.6309C77.6585 83.6784 77.9407 83.7032 78.2287 83.7032C80.9416 83.7032 83.1408 81.504 83.1408 78.7912C83.1408 78.5028 83.116 78.2202 83.0683 77.9455C83.0069 77.5917 83.1577 77.2274 83.4513 77.0205C83.6787 76.8602 83.8957 76.6782 84.0992 76.4747C86.0175 74.5564 86.0175 71.4463 84.0992 69.528C83.8957 69.3245 83.6788 69.1426 83.4514 68.9823C83.1579 68.7755 83.0071 68.4113 83.0684 68.0575C83.116 67.7829 83.1408 67.5006 83.1408 67.2125C83.1408 64.4996 80.9416 62.3004 78.2287 62.3004C77.9407 62.3004 77.6585 62.3252 77.3841 62.3727C77.0303 62.434 76.6661 62.2832 76.4592 61.9896C76.2988 61.7619 76.1167 61.5448 75.913 61.3411C73.9948 59.4228 70.8846 59.4228 68.9663 61.3411C68.7624 61.545 68.5802 61.7624 68.4196 61.9903C68.2128 62.284 67.8486 62.4349 67.4947 62.3736C67.2205 62.3261 66.9384 62.3014 66.6506 62.3014C63.9378 62.3014 61.7386 64.5006 61.7386 67.2135C61.7386 67.5012 61.7633 67.7831 61.8108 68.0572C61.872 68.4109 61.7211 68.7751 61.4276 68.9819C61.1999 69.1423 60.9828 69.3243 60.7792 69.528C58.8609 71.4463 58.8609 74.5564 60.7792 76.4747Z" fill="#AAAEC9"/>
<circle cx="28.088" cy="26.2436" r="12.3437" fill="#D8DAE9"/>
<path d="M16.4263 66.5611C16.644 63.7635 18.8508 61.5568 21.6484 61.339C23.7389 61.1763 26.1504 61.0308 28.0877 61.0308C30.025 61.0308 32.4365 61.1763 34.527 61.339C37.3246 61.5568 39.5313 63.7635 39.7491 66.5611C39.9118 68.6516 40.0573 71.0631 40.0573 73.0004C40.0573 74.9377 39.9118 77.3492 39.7491 79.4397C39.5313 82.2373 37.3246 84.444 34.527 84.6618C32.4365 84.8245 30.025 84.97 28.0877 84.97C26.1504 84.97 23.7389 84.8245 21.6484 84.6618C18.8508 84.444 16.644 82.2373 16.4263 79.4397C16.2636 77.3492 16.118 74.9377 16.118 73.0004C16.118 71.0631 16.2636 68.6516 16.4263 66.5611Z" fill="#EEEEF5"/>
<path d="M83.8724 23.7437C85.5856 25.015 85.5856 27.4721 83.8724 28.7435C81.9014 30.206 79.1647 32.1175 76.0743 33.9364C73.0176 35.7354 69.927 37.2336 67.5747 38.2918C65.5211 39.2156 63.2487 37.8739 63.079 35.6492C62.8924 33.2015 62.7142 29.9061 62.7142 26.2436C62.7142 22.5811 62.8924 19.2856 63.079 16.838C63.2487 14.6132 65.5211 13.2716 67.5747 14.1954C69.927 15.2536 73.0176 16.7517 76.0743 18.5508C79.1647 20.3697 81.9014 22.2812 83.8724 23.7437Z" fill="#6E7291"/>
</svg>
