<svg width="218" height="30" viewBox="0 0 218 30" fill="none" xmlns="http://www.w3.org/2000/svg">
<path d="M3.97526 0.352058C4.98212 0.352058 5.80019 0.578601 6.42948 1.03169C7.05876 1.4596 7.59995 2.0763 8.05303 2.88179L17.8321 20.1746V2.31543C17.8321 1.68614 18.0713 1.20789 18.5495 0.880658C19.0278 0.528258 19.6948 0.352058 20.5507 0.352058C21.4065 0.352058 22.0735 0.528258 22.5518 0.880658C23.03 1.23306 23.2692 1.73649 23.2692 2.39094V26.0647C23.2692 27.0212 22.9797 27.7638 22.4008 28.2924C21.847 28.7958 21.0289 29.0475 19.9465 29.0475C18.9397 29.0475 18.1216 28.8335 17.4923 28.4056C16.863 27.9525 16.3219 27.3233 15.8688 26.5178L6.08966 9.22499V27.0841C6.08966 27.7134 5.85053 28.2043 5.37228 28.5567C4.89402 28.8839 4.22698 29.0475 3.37115 29.0475C2.51532 29.0475 1.84828 28.8713 1.37002 28.5189C0.891761 28.1665 0.652633 27.6631 0.652633 27.0086V3.33487C0.652633 2.37836 0.929519 1.64839 1.48329 1.14496C2.06223 0.616358 2.89289 0.352058 3.97526 0.352058ZM34.635 22.1757C34.635 22.6288 34.7105 23.0063 34.8615 23.3084C35.0125 23.6105 35.2642 23.8496 35.6166 24.0258C35.969 24.202 36.4347 24.3278 37.0137 24.4034C37.6178 24.4789 38.3603 24.5166 39.2413 24.5166C40.374 24.5166 41.469 24.4411 42.5262 24.2901C43.6086 24.1391 44.5399 23.9629 45.3202 23.7615C46.0502 23.5601 46.6417 23.6105 47.0948 23.9125C47.5731 24.2146 47.9003 24.6802 48.0765 25.3095C48.2527 25.964 48.2275 26.5555 48.001 27.0841C47.7996 27.6127 47.3843 27.9777 46.755 28.1791C45.7985 28.5063 44.6658 28.758 43.3569 28.9342C42.0479 29.1356 40.6761 29.2363 39.2413 29.2363C37.3786 29.2363 35.7928 29.123 34.4839 28.8965C33.2002 28.6951 32.143 28.3679 31.3123 27.9148C30.5068 27.4365 29.9153 26.8198 29.5377 26.0647C29.1602 25.3095 28.9714 24.3908 28.9714 23.3084V3.93899C28.9714 1.79942 30.0412 0.729631 32.1807 0.729631H45.0937C45.7481 0.729631 46.2642 0.931003 46.6417 1.33374C47.0445 1.73649 47.2458 2.29026 47.2458 2.99506C47.2458 3.67469 47.0445 4.22846 46.6417 4.65637C46.2642 5.05912 45.7481 5.26049 45.0937 5.26049H34.635V12.0945H44.0365C44.6909 12.0945 45.207 12.2959 45.5845 12.6986C45.9873 13.1014 46.1886 13.6552 46.1886 14.36C46.1886 15.0396 45.9873 15.5934 45.5845 16.0213C45.207 16.424 44.6909 16.6254 44.0365 16.6254H34.635V22.1757ZM68.3249 9.48929L64.0206 26.631C63.5675 28.3679 62.3216 29.2363 60.2827 29.2363C59.2506 29.2363 58.4326 29.0223 57.8285 28.5944C57.2495 28.1413 56.8216 27.4743 56.5447 26.5933L50.126 3.37263C49.9246 2.693 50.0127 2.06372 50.3903 1.48477C50.7679 0.88066 51.372 0.490502 52.2026 0.314301C53.0836 0.138102 53.8514 0.17586 54.5058 0.427574C55.1855 0.679288 55.626 1.23306 55.8273 2.08889L60.2827 21.4583L65.0778 2.61749C65.2792 1.91269 65.6442 1.35892 66.1728 0.956174C66.7014 0.55343 67.4188 0.352058 68.3249 0.352058C69.2311 0.352058 69.9485 0.55343 70.4771 0.956174C71.0057 1.35892 71.3707 1.91269 71.5721 2.61749L76.405 21.4583L80.8226 2.05113C81.0239 1.1953 81.4519 0.641531 82.1063 0.389817C82.7608 0.138101 83.5159 0.11293 84.3717 0.314301C85.2527 0.515673 85.882 0.905831 86.2596 1.48477C86.6372 2.06372 86.7253 2.693 86.5239 3.37263L80.1429 26.5933C79.8661 27.4743 79.4256 28.1413 78.8214 28.5944C78.2425 29.0223 77.437 29.2363 76.405 29.2363C74.4164 29.2363 73.1704 28.3679 72.667 26.631L68.3249 9.48929ZM92.7827 22.8931C93.7392 23.472 94.7083 23.9125 95.69 24.2146C96.6969 24.4915 97.6282 24.6299 98.4841 24.6299C99.7426 24.6299 100.737 24.3153 101.467 23.686C102.222 23.0567 102.6 22.2512 102.6 21.2695C102.6 20.7409 102.486 20.2878 102.26 19.9103C102.058 19.5075 101.731 19.1425 101.278 18.8153C100.85 18.4629 100.284 18.1105 99.579 17.7581C98.8994 17.4057 98.0813 16.9904 97.1248 16.5121C95.8159 15.8828 94.6454 15.2787 93.6134 14.6998C92.5814 14.0957 91.7004 13.479 90.9704 12.8497C90.2656 12.1952 89.7244 11.4778 89.3468 10.6975C88.9693 9.9172 88.7805 9.01103 88.7805 7.979C88.7805 6.54423 89.0322 5.336 89.5356 4.35432C90.0642 3.34746 90.769 2.54197 91.65 1.93786C92.531 1.30857 93.5505 0.855488 94.7083 0.578603C95.8662 0.301716 97.0745 0.163273 98.333 0.163273C99.9188 0.163273 101.366 0.326887 102.675 0.654116C103.984 0.981345 105.104 1.43443 106.035 2.01337C106.715 2.44129 107.13 2.94472 107.281 3.52366C107.458 4.07743 107.382 4.66896 107.055 5.29825C106.753 5.9527 106.3 6.35545 105.696 6.50648C105.117 6.63233 104.462 6.50648 103.732 6.1289C102.977 5.72616 102.146 5.39893 101.24 5.14722C100.334 4.8955 99.3525 4.76965 98.2953 4.76965C97.1122 4.76965 96.1935 5.08429 95.539 5.71357C94.8845 6.31769 94.5573 7.07283 94.5573 7.979C94.5573 8.43209 94.6706 8.83483 94.8971 9.18723C95.1237 9.51446 95.4761 9.85428 95.9543 10.2067C96.4578 10.5339 97.087 10.8863 97.8422 11.2639C98.6225 11.6414 99.5413 12.0945 100.598 12.6231C101.958 13.3028 103.128 13.9572 104.11 14.5865C105.092 15.1906 105.897 15.8325 106.526 16.5121C107.156 17.1917 107.621 17.9217 107.923 18.702C108.225 19.4572 108.376 20.313 108.376 21.2695C108.376 22.6288 108.125 23.8118 107.621 24.8187C107.143 25.8004 106.463 26.631 105.582 27.3107C104.701 27.9651 103.657 28.4434 102.449 28.7454C101.265 29.0727 99.9818 29.2363 98.5973 29.2363C95.0985 29.2363 92.1409 28.4434 89.7244 26.8576C89.1203 26.4548 88.7553 25.9514 88.6294 25.3473C88.5288 24.718 88.6924 24.0887 89.1203 23.4594C89.5482 22.7798 90.102 22.4148 90.7816 22.3645C91.4612 22.289 92.1283 22.4652 92.7827 22.8931ZM115.366 0.352058C116.373 0.352058 117.191 0.578601 117.82 1.03169C118.45 1.4596 118.991 2.0763 119.444 2.88179L129.223 20.1746V2.31543C129.223 1.68614 129.462 1.20789 129.94 0.880658C130.419 0.528258 131.086 0.352058 131.942 0.352058C132.797 0.352058 133.464 0.528258 133.943 0.880658C134.421 1.23306 134.66 1.73649 134.66 2.39094V26.0647C134.66 27.0212 134.371 27.7638 133.792 28.2924C133.238 28.7958 132.42 29.0475 131.337 29.0475C130.331 29.0475 129.513 28.8335 128.883 28.4056C128.254 27.9525 127.713 27.3233 127.26 26.5178L117.481 9.22499V27.0841C117.481 27.7134 117.241 28.2043 116.763 28.5567C116.285 28.8839 115.618 29.0475 114.762 29.0475C113.906 29.0475 113.239 28.8713 112.761 28.5189C112.283 28.1665 112.044 27.6631 112.044 27.0086V3.33487C112.044 2.37836 112.32 1.64839 112.874 1.14496C113.453 0.616358 114.284 0.352058 115.366 0.352058ZM162.601 28.7454C161.846 29.0475 161.104 29.0978 160.374 28.8965C159.644 28.6951 159.153 28.2672 158.901 27.6127L156.787 21.9869H145.573L143.458 27.6127C143.207 28.2672 142.728 28.6951 142.024 28.8965C141.344 29.123 140.589 29.0853 139.758 28.7832C138.953 28.5063 138.437 28.0532 138.21 27.4239C137.984 26.7695 138.021 26.115 138.323 25.4606L147.838 2.08889C148.09 1.50994 148.48 1.04427 149.009 0.691873C149.537 0.339473 150.255 0.163273 151.161 0.163273C152.067 0.163273 152.784 0.339473 153.313 0.691873C153.842 1.04427 154.232 1.50994 154.484 2.08889L163.998 25.4606C164.3 26.115 164.326 26.7569 164.074 27.3862C163.822 27.9903 163.331 28.4434 162.601 28.7454ZM147.272 17.456H155.088L151.161 7.03508L147.272 17.456ZM180.143 24.6299C181.578 24.6299 182.912 24.4789 184.145 24.1768C185.379 23.8748 186.474 23.472 187.43 22.9686C188.085 22.6162 188.689 22.5533 189.243 22.7798C189.821 22.9812 190.249 23.3839 190.526 23.988C190.828 24.6425 190.891 25.2592 190.715 25.8381C190.564 26.4171 190.149 26.8828 189.469 27.2352C188.236 27.8896 186.788 28.3805 185.127 28.7077C183.491 29.0601 181.767 29.2363 179.954 29.2363C177.764 29.2363 175.763 28.8965 173.951 28.2168C172.164 27.5372 170.616 26.5681 169.307 25.3095C167.998 24.051 166.978 22.5281 166.248 20.7409C165.544 18.9537 165.191 16.94 165.191 14.6998C165.191 12.4595 165.544 10.4458 166.248 8.65863C166.978 6.87146 167.998 5.34859 169.307 4.09002C170.616 2.83145 172.164 1.86234 173.951 1.18272C175.763 0.503087 177.764 0.163273 179.954 0.163273C181.641 0.163273 183.201 0.339473 184.636 0.691873C186.096 1.0191 187.443 1.50994 188.676 2.1644C189.431 2.56714 189.872 3.07057 189.998 3.67469C190.124 4.2788 190.035 4.8955 189.733 5.52479C189.456 6.07856 189.029 6.46872 188.45 6.69526C187.896 6.89663 187.317 6.82112 186.713 6.46872C185.807 5.96529 184.8 5.56255 183.692 5.26049C182.585 4.93326 181.402 4.76965 180.143 4.76965C178.809 4.76965 177.576 5.00877 176.443 5.48703C175.31 5.94012 174.328 6.60716 173.498 7.48816C172.667 8.34399 172.013 9.3886 171.534 10.622C171.081 11.8302 170.855 13.1895 170.855 14.6998C170.855 16.2101 171.081 17.5819 171.534 18.8153C172.013 20.0235 172.667 21.0681 173.498 21.9491C174.328 22.805 175.31 23.472 176.443 23.9503C177.576 24.4034 178.809 24.6299 180.143 24.6299ZM200.228 13.6803L210.725 1.33374C210.951 1.03169 211.215 0.805144 211.517 0.654116C211.82 0.477917 212.134 0.377231 212.461 0.352058C212.789 0.326887 213.116 0.364644 213.443 0.46533C213.795 0.566016 214.11 0.729631 214.387 0.956174C215.016 1.40926 215.394 1.93786 215.52 2.54197C215.646 3.12092 215.495 3.71245 215.067 4.31656L207.515 12.8497L216.803 24.932C217.181 25.4606 217.282 26.0773 217.106 26.7821C216.929 27.4617 216.514 28.0155 215.86 28.4434C215.205 28.8713 214.513 29.0475 213.783 28.972C213.053 28.9216 212.499 28.607 212.122 28.0281L203.891 16.9274L200.228 21.1185V26.8576C200.228 27.512 199.976 28.0406 199.473 28.4434C198.97 28.8461 198.277 29.0475 197.396 29.0475C196.515 29.0475 195.823 28.8461 195.32 28.4434C194.816 28.0406 194.565 27.512 194.565 26.8576V2.54197C194.565 1.88752 194.816 1.35892 195.32 0.956174C195.823 0.55343 196.515 0.352058 197.396 0.352058C198.277 0.352058 198.97 0.55343 199.473 0.956174C199.976 1.35892 200.228 1.88752 200.228 2.54197V13.6803Z" fill="#3657FF"/>
</svg>
