<svg width="164" height="24" viewBox="0 0 164 24" fill="none" xmlns="http://www.w3.org/2000/svg">
<path d="M9.8624 2.1377C10.5545 2.1377 11.1168 2.29342 11.5494 2.60486C11.9819 2.899 12.3539 3.32291 12.6654 3.87659L19.3873 15.7633V3.48728C19.3873 3.05473 19.5517 2.72598 19.8804 2.50105C20.2092 2.25882 20.6677 2.1377 21.256 2.1377C21.8443 2.1377 22.3028 2.25882 22.6315 2.50105C22.9603 2.74328 23.1246 3.08933 23.1246 3.53919V19.812C23.1246 20.4695 22.9257 20.9799 22.5277 21.3433C22.1471 21.6893 21.5847 21.8624 20.8407 21.8624C20.1486 21.8624 19.5863 21.7153 19.1538 21.4211C18.7212 21.1097 18.3492 20.6771 18.0378 20.1235L11.3158 8.23677V20.5128C11.3158 20.9453 11.1514 21.2827 10.8227 21.525C10.4939 21.7499 10.0354 21.8624 9.44714 21.8624C8.85886 21.8624 8.40035 21.7412 8.07161 21.499C7.74286 21.2568 7.57849 20.9107 7.57849 20.4609V4.18803C7.57849 3.53054 7.76882 3.02877 8.14947 2.68273C8.54742 2.31938 9.1184 2.1377 9.8624 2.1377Z" fill="white"/>
<path d="M30.9372 17.1388C30.9372 17.4503 30.9892 17.7098 31.093 17.9174C31.1968 18.1251 31.3698 18.2894 31.612 18.4105C31.8543 18.5317 32.1744 18.6182 32.5723 18.6701C32.9876 18.722 33.498 18.7479 34.1036 18.7479C34.8822 18.7479 35.6348 18.696 36.3615 18.5922C37.1055 18.4884 37.7457 18.3673 38.2821 18.2289C38.7839 18.0905 39.1905 18.1251 39.5019 18.3327C39.8306 18.5403 40.0556 18.8604 40.1767 19.293C40.2978 19.7428 40.2805 20.1494 40.1248 20.5128C39.9864 20.8761 39.7009 21.127 39.2683 21.2654C38.6108 21.4904 37.8322 21.6634 36.9325 21.7845C36.0328 21.9229 35.0898 21.9921 34.1036 21.9921C32.8232 21.9921 31.7332 21.9143 30.8334 21.7585C29.951 21.6201 29.2243 21.3952 28.6533 21.0838C28.0997 20.755 27.6931 20.3311 27.4335 19.812C27.174 19.293 27.0442 18.6614 27.0442 17.9174V4.60328C27.0442 3.13259 27.7796 2.39724 29.2503 2.39724H38.1264C38.5762 2.39724 38.9309 2.53566 39.1905 2.81249C39.4673 3.08933 39.6057 3.46998 39.6057 3.95445C39.6057 4.42161 39.4673 4.80226 39.1905 5.0964C38.9309 5.37324 38.5762 5.51166 38.1264 5.51166H30.9372V10.2092H37.3997C37.8495 10.2092 38.2042 10.3477 38.4638 10.6245C38.7406 10.9013 38.879 11.282 38.879 11.7664C38.879 12.2336 38.7406 12.6143 38.4638 12.9084C38.2042 13.1852 37.8495 13.3237 37.3997 13.3237H30.9372V17.1388Z" fill="white"/>
<path d="M54.0951 8.41845L51.1364 20.2013C50.8249 21.3952 49.9685 21.9921 48.567 21.9921C47.8576 21.9921 47.2952 21.8451 46.88 21.5509C46.482 21.2395 46.1879 20.781 45.9976 20.1754L41.5855 4.21398C41.4471 3.74682 41.5076 3.31426 41.7672 2.91631C42.0267 2.50105 42.4419 2.23287 43.0129 2.11175C43.6185 1.99063 44.1462 2.01659 44.5961 2.18961C45.0632 2.36263 45.366 2.74328 45.5045 3.33156L48.567 16.6457L51.8631 3.69491C52.0015 3.21045 52.2524 2.8298 52.6157 2.55296C52.9791 2.27612 53.4722 2.1377 54.0951 2.1377C54.7179 2.1377 55.2111 2.27612 55.5744 2.55296C55.9378 2.8298 56.1886 3.21045 56.3271 3.69491L59.6491 16.6457L62.6857 3.30561C62.8241 2.71733 63.1182 2.33668 63.5681 2.16366C64.018 1.99063 64.537 1.97333 65.1253 2.11175C65.7309 2.25017 66.1634 2.51835 66.423 2.91631C66.6825 3.31426 66.7431 3.74682 66.6046 4.21398L62.2185 20.1754C62.0282 20.781 61.7254 21.2395 61.3101 21.5509C60.9122 21.8451 60.3585 21.9921 59.6491 21.9921C58.2822 21.9921 57.4258 21.3952 57.0797 20.2013L54.0951 8.41845Z" fill="white"/>
<path d="M70.9068 17.6319C71.5643 18.0299 72.2305 18.3327 72.9053 18.5403C73.5974 18.7306 74.2375 18.8258 74.8258 18.8258C75.6909 18.8258 76.3744 18.6095 76.8761 18.177C77.3952 17.7444 77.6548 17.1907 77.6548 16.5159C77.6548 16.1526 77.5769 15.8411 77.4212 15.5816C77.2828 15.3048 77.0578 15.0539 76.7464 14.829C76.4522 14.5867 76.0629 14.3445 75.5785 14.1023C75.1113 13.86 74.549 13.5745 73.8915 13.2458C72.9918 12.8132 72.1872 12.398 71.4778 12C70.7684 11.5848 70.1628 11.1609 69.6611 10.7283C69.1766 10.2784 68.8046 9.78533 68.5451 9.24896C68.2855 8.71259 68.1558 8.0897 68.1558 7.38031C68.1558 6.39408 68.3288 5.56356 68.6748 4.88877C69.0382 4.19668 69.5227 3.64301 70.1282 3.22775C70.7338 2.79519 71.4346 2.48375 72.2305 2.29342C73.0264 2.1031 73.8569 2.00793 74.722 2.00793C75.8121 2.00793 76.8069 2.1204 77.7067 2.34533C78.6064 2.57026 79.3763 2.8817 80.0165 3.27966C80.4837 3.5738 80.7692 3.91984 80.873 4.3178C80.9941 4.69845 80.9422 5.10505 80.7173 5.53761C80.5096 5.98747 80.1982 6.26431 79.7829 6.36812C79.385 6.45463 78.9351 6.36812 78.4334 6.10859C77.9143 5.83175 77.3433 5.60682 76.7204 5.4338C76.0975 5.26077 75.4228 5.17426 74.6961 5.17426C73.8828 5.17426 73.2513 5.39054 72.8015 5.8231C72.3516 6.23835 72.1267 6.75742 72.1267 7.38031C72.1267 7.69175 72.2045 7.96859 72.3602 8.21082C72.516 8.43575 72.7582 8.66933 73.0869 8.91156C73.433 9.1365 73.8655 9.37873 74.3846 9.63826C74.921 9.8978 75.5525 10.2092 76.2792 10.5726C77.2135 11.0398 78.0181 11.4896 78.6929 11.9222C79.3677 12.3374 79.9214 12.7786 80.3539 13.2458C80.7865 13.713 81.1066 14.2147 81.3142 14.7511C81.5218 15.2702 81.6256 15.8584 81.6256 16.5159C81.6256 17.4503 81.4526 18.2635 81.1066 18.9556C80.7778 19.6304 80.3107 20.2013 79.7051 20.6685C79.0995 21.1184 78.3815 21.4471 77.5509 21.6547C76.7377 21.8797 75.8553 21.9921 74.9037 21.9921C72.4987 21.9921 70.4656 21.4471 68.8046 20.3571C68.3894 20.0802 68.1385 19.7342 68.052 19.3189C67.9827 18.8864 68.0952 18.4538 68.3894 18.0212C68.6835 17.5541 69.0641 17.3032 69.5313 17.2686C69.9985 17.2167 70.457 17.3378 70.9068 17.6319Z" fill="white"/>
<path d="M86.4303 2.1377C87.1224 2.1377 87.6847 2.29342 88.1173 2.60486C88.5498 2.899 88.9218 3.32291 89.2333 3.87659L95.9552 15.7633V3.48728C95.9552 3.05473 96.1196 2.72598 96.4483 2.50105C96.7771 2.25882 97.2356 2.1377 97.8239 2.1377C98.4121 2.1377 98.8707 2.25882 99.1994 2.50105C99.5281 2.74328 99.6925 3.08933 99.6925 3.53919V19.812C99.6925 20.4695 99.4935 20.9799 99.0956 21.3433C98.7149 21.6893 98.1526 21.8624 97.4086 21.8624C96.7165 21.8624 96.1542 21.7153 95.7216 21.4211C95.2891 21.1097 94.9171 20.6771 94.6056 20.1235L87.8837 8.23677V20.5128C87.8837 20.9453 87.7193 21.2827 87.3906 21.525C87.0618 21.7499 86.6033 21.8624 86.015 21.8624C85.4267 21.8624 84.9682 21.7412 84.6395 21.499C84.3107 21.2568 84.1464 20.9107 84.1464 20.4609V4.18803C84.1464 3.53054 84.3367 3.02877 84.7173 2.68273C85.1153 2.31938 85.6863 2.1377 86.4303 2.1377Z" fill="white"/>
<path d="M118.899 21.6547C118.38 21.8624 117.869 21.897 117.367 21.7585C116.866 21.6201 116.528 21.326 116.355 20.8761L114.902 17.0091H107.194L105.74 20.8761C105.567 21.326 105.239 21.6201 104.754 21.7585C104.287 21.9143 103.768 21.8883 103.197 21.6807C102.643 21.4904 102.288 21.1789 102.133 20.7464C101.977 20.2965 102.003 19.8466 102.211 19.3968L108.751 3.33156C108.924 2.93361 109.192 2.61352 109.555 2.37128C109.919 2.12905 110.412 2.00793 111.035 2.00793C111.658 2.00793 112.151 2.12905 112.514 2.37128C112.877 2.61352 113.146 2.93361 113.319 3.33156L119.859 19.3968C120.067 19.8466 120.084 20.2878 119.911 20.7204C119.738 21.1357 119.4 21.4471 118.899 21.6547ZM108.362 13.8946H113.734L111.035 6.73147L108.362 13.8946Z" fill="white"/>
<path d="M130.957 18.8258C131.943 18.8258 132.86 18.722 133.708 18.5144C134.555 18.3067 135.308 18.0299 135.966 17.6838C136.415 17.4416 136.831 17.3984 137.211 17.5541C137.609 17.6925 137.903 17.9693 138.094 18.3846C138.301 18.8344 138.345 19.2584 138.224 19.6563C138.12 20.0543 137.834 20.3744 137.367 20.6166C136.519 21.0665 135.524 21.4038 134.382 21.6288C133.258 21.871 132.073 21.9921 130.827 21.9921C129.321 21.9921 127.946 21.7585 126.7 21.2914C125.472 20.8242 124.408 20.1581 123.508 19.293C122.608 18.4278 121.907 17.3811 121.406 16.1526C120.921 14.9241 120.679 13.5399 120.679 12C120.679 10.4601 120.921 9.07594 121.406 7.84747C121.907 6.61901 122.608 5.57222 123.508 4.7071C124.408 3.84198 125.472 3.17584 126.7 2.70868C127.946 2.24152 129.321 2.00793 130.827 2.00793C131.986 2.00793 133.059 2.12905 134.045 2.37128C135.049 2.59621 135.974 2.93361 136.822 3.38347C137.341 3.66031 137.644 4.00635 137.73 4.42161C137.817 4.83687 137.756 5.26077 137.549 5.69333C137.358 6.07398 137.064 6.34217 136.666 6.49789C136.286 6.63631 135.888 6.5844 135.472 6.34217C134.85 5.99612 134.157 5.71928 133.396 5.51166C132.635 5.28673 131.822 5.17426 130.957 5.17426C130.04 5.17426 129.192 5.33863 128.413 5.66738C127.634 5.97882 126.96 6.43733 126.389 7.04291C125.818 7.63119 125.368 8.34924 125.039 9.19705C124.728 10.0276 124.572 10.9619 124.572 12C124.572 13.0382 124.728 13.9811 125.039 14.829C125.368 15.6595 125.818 16.3775 126.389 16.9831C126.96 17.5714 127.634 18.0299 128.413 18.3586C129.192 18.6701 130.04 18.8258 130.957 18.8258Z" fill="white"/>
<path d="M144.763 11.2993L151.978 2.81249C152.133 2.60486 152.315 2.44914 152.523 2.34533C152.73 2.22421 152.947 2.15501 153.172 2.1377C153.396 2.1204 153.621 2.14635 153.846 2.21556C154.089 2.28477 154.305 2.39724 154.495 2.55296C154.928 2.8644 155.187 3.22775 155.274 3.64301C155.36 4.04096 155.256 4.44756 154.962 4.86282L149.772 10.7283L156.156 19.0334C156.416 19.3968 156.485 19.8207 156.364 20.3051C156.243 20.7723 155.957 21.153 155.507 21.4471C155.057 21.7412 154.582 21.8624 154.08 21.8105C153.578 21.7758 153.197 21.5596 152.938 21.1616L147.28 13.5313L144.763 16.4121V20.3571C144.763 20.8069 144.59 21.1703 144.244 21.4471C143.897 21.7239 143.422 21.8624 142.816 21.8624C142.21 21.8624 141.735 21.7239 141.389 21.4471C141.043 21.1703 140.87 20.8069 140.87 20.3571V3.64301C140.87 3.19314 141.043 2.8298 141.389 2.55296C141.735 2.27612 142.21 2.1377 142.816 2.1377C143.422 2.1377 143.897 2.27612 144.244 2.55296C144.59 2.8298 144.763 3.19314 144.763 3.64301V11.2993Z" fill="white"/>
</svg>
