<svg width="150" height="150" viewBox="0 0 150 150" fill="none" xmlns="http://www.w3.org/2000/svg">
<path d="M42.1311 37.6825V113.989" stroke="#768DFF" stroke-width="17.3077"/>
<path d="M108.659 113.988L42.131 37.6825" stroke="#768DFF" stroke-width="17.3077"/>
<path d="M108.659 37.6825V113.989" stroke="#768DFF" stroke-width="17.3077"/>
<path fill-rule="evenodd" clip-rule="evenodd" d="M91.1687 114.712C91.4743 115.017 91.8 115.29 92.1416 115.531C92.582 115.841 92.8083 116.388 92.7163 116.918C92.6449 117.33 92.6077 117.753 92.6077 118.186C92.6077 122.255 95.9065 125.554 99.9758 125.554C100.408 125.554 100.831 125.516 101.243 125.445C101.774 125.353 102.32 125.579 102.63 126.02C102.871 126.361 103.144 126.687 103.449 126.993C106.327 129.87 110.992 129.87 113.869 126.993C114.175 126.687 114.448 126.361 114.689 126.02C114.999 125.579 115.545 125.353 116.076 125.445C116.488 125.516 116.911 125.554 117.343 125.554C121.412 125.554 124.711 122.255 124.711 118.185C124.711 117.753 124.674 117.329 124.602 116.917C124.51 116.387 124.737 115.84 125.177 115.53C125.518 115.29 125.843 115.017 126.149 114.712C129.026 111.834 129.026 107.169 126.149 104.291C125.843 103.986 125.518 103.713 125.177 103.473C124.737 103.163 124.51 102.616 124.602 102.086C124.674 101.674 124.711 101.25 124.711 100.818C124.711 96.7487 121.412 93.4499 117.343 93.4499C116.911 93.4499 116.488 93.4871 116.076 93.5584C115.545 93.6504 114.999 93.424 114.689 92.9837C114.448 92.6421 114.175 92.3164 113.869 92.0109C110.992 89.1334 106.327 89.1334 103.449 92.0109C103.144 92.3167 102.87 92.6427 102.629 92.9847C102.319 93.4251 101.773 93.6515 101.242 93.5596C100.831 93.4884 100.408 93.4512 99.9758 93.4512C95.9065 93.4512 92.6077 96.75 92.6077 100.819C92.6077 101.251 92.6448 101.674 92.7161 102.085C92.8079 102.616 92.5816 103.162 92.1414 103.472C91.7998 103.713 91.4742 103.986 91.1687 104.291C88.2913 107.169 88.2913 111.834 91.1687 114.712Z" fill="#DBE1FF"/>
<circle cx="42.1319" cy="39.3653" r="18.5155" fill="#BFCAFF"/>
<path d="M24.6394 99.8426C24.966 95.6461 28.2761 92.336 32.4726 92.0094C35.6083 91.7653 39.2255 91.547 42.1315 91.547C45.0374 91.547 48.6546 91.7653 51.7904 92.0094C55.9868 92.336 59.2969 95.6461 59.6235 99.8425C59.8676 102.978 60.0859 106.596 60.0859 109.501C60.0859 112.407 59.8676 116.025 59.6235 119.16C59.2969 123.357 55.9868 126.667 51.7904 126.994C48.6547 127.238 45.0374 127.456 42.1315 127.456C39.2255 127.456 35.6083 127.238 32.4726 126.994C28.2761 126.667 24.966 123.357 24.6394 119.16C24.3953 116.025 24.177 112.407 24.177 109.501C24.177 106.596 24.3953 102.978 24.6394 99.8426Z" fill="#9AABFF"/>
<path d="M125.808 35.6155C128.378 37.5224 128.378 41.2081 125.808 43.1151C122.852 45.3089 118.747 48.1761 114.111 50.9044C109.526 53.603 104.89 55.8502 101.362 57.4375C98.2814 58.8233 94.8728 56.8108 94.6184 53.4737C94.3384 49.8022 94.0712 44.8591 94.0712 39.3653C94.0712 33.8715 94.3384 28.9283 94.6184 25.2568C94.8728 21.9198 98.2814 19.9072 101.362 21.293C104.89 22.8803 109.526 25.1275 114.111 27.8261C118.747 30.5545 122.852 33.4217 125.808 35.6155Z" fill="white"/>
</svg>
